<svg width="74" height="68" viewBox="0 0 74 68" fill="none" xmlns="http://www.w3.org/2000/svg">
<path d="M57.0515 63.2445L57.2615 63.6645C53.6215 65.9745 50.4715 67.1645 47.8115 67.5145C44.1015 68.0745 41.2315 66.8845 39.1315 64.5745C37.0315 62.2645 35.7015 58.7645 34.8615 54.5645C34.7215 53.7945 34.5115 53.0245 34.4415 52.1845C30.8015 55.4045 26.6015 58.4845 21.7015 61.7745C17.2215 64.7845 8.54145 69.9645 3.15145 66.1845C1.96145 65.3445 1.19145 64.0845 0.841452 62.4745C0.421452 60.3045 0.841452 57.4345 2.31145 54.1445C8.05145 41.2645 22.1915 30.8345 35.7015 22.5745C38.2915 14.6645 45.2915 7.38449 52.0115 3.32449C56.0715 0.874492 59.9915 -0.385508 62.8615 0.10449C63.7715 0.244492 64.5415 0.594492 65.1715 1.15449H65.2415C66.5715 2.20449 66.4315 3.46449 65.2415 4.93449C61.5315 9.76449 42.2815 20.3345 35.5615 24.8845C34.3715 33.9845 35.0715 42.2445 36.9615 48.8945C51.1015 35.3145 55.9315 24.4645 73.2915 24.4645C73.3615 24.4645 73.2915 25.2345 73.2915 25.2345C56.8415 25.2345 50.7515 36.7845 37.2415 49.6645C37.6615 51.1345 38.2215 52.6045 38.8515 53.8645C40.2515 56.8745 41.9315 59.3945 43.9615 61.2145C45.9215 63.0345 48.0915 64.1545 50.5415 64.4345C52.5715 64.7145 54.7415 64.3645 57.0515 63.2445ZM21.4215 61.4245C26.5315 57.9945 30.7315 54.6345 34.3015 51.3445C33.3915 43.7145 33.8815 34.3345 35.0015 25.3745V25.3045C23.5215 33.0745 12.1115 42.7345 6.93145 54.2845C5.25145 58.0645 4.55145 61.1445 4.83145 63.3145C4.97145 64.5745 5.46145 65.5545 6.23145 66.1145C9.66145 68.7745 18.6215 63.3145 21.4215 61.4245ZM36.3315 22.1545C42.7715 18.2345 61.6015 8.64449 64.9615 4.30449C65.8015 3.25449 65.8715 2.27449 64.9615 1.50449H64.8915C64.3315 1.01449 63.5615 0.73449 62.7915 0.594492C59.9915 0.10449 56.2115 1.36449 52.2915 3.67449C45.4315 7.87449 39.1315 14.5945 36.3315 22.1545Z" fill="#A39D79"/>
</svg>
