<svg xmlns="http://www.w3.org/2000/svg" fill="none" viewBox="0 0 389 111"><path fill="#f9f5ed" d="M12.085 67.62c-1.604 0-3.049-.835-3.65-1.347-.2.198-.56.793-.643 1.346h-.76V62.15h.844c.283 2.62 2.12 4.164 4.493 4.164 1.286 0 2.321-.71 2.321-1.9 0-1.033-.918-1.826-2.563-2.578L9.88 60.762c-1.645-.751-2.806-2.065-2.806-3.808 0-1.9 1.804-3.528 4.25-3.528 1.32 0 2.448.48 3.166 1.033.159-.157.4-.595.484-1.074h.76v4.676h-.843c-.284-1.867-1.32-3.412-3.408-3.412-1.16 0-2.204.636-2.204 1.627 0 .992.843 1.587 2.764 2.462l2.247 1.074c1.92.909 2.647 2.38 2.647 3.57 0 2.494-2.205 4.246-4.852 4.246zM23.835 64.133c-.76 1.586-.76 2.222 1.72 2.222v.752h-6.371v-.752c2.004 0 2.363-.512 3.365-2.693l4.894-10.269h.718l4.853 10.27c1.002 2.139 1.403 2.692 3.207 2.692v.752h-7.734v-.752c2.289 0 2.522-.636 1.762-2.222l-.6-1.305h-5.212zm3.207-6.75-2.004 4.247h4.009zm4.97-8.798-5.496 2.338-.2-.28 3.725-3.487c.684-.595 1.119-.909 1.762-.909.76 0 1.16.678 1.16 1.148 0 .595-.6 1.033-.96 1.19zM38.3 66.347c2.247 0 2.606-.512 2.606-3.33v-5.072c0-2.817-.36-3.288-2.606-3.288v-.752h7.174c3.207 0 4.853 1.504 4.853 3.454 0 .95-.443 1.825-1.203 2.495 1.52.677 2.405 1.982 2.405 3.453 0 2.098-1.887 3.808-5.412 3.808H38.3zm7.016-11.26H43.67v4.444h1.646c1.486 0 2.163-1.032 2.163-2.18s-.685-2.264-2.163-2.264m.76 5.667H43.67v3.057c0 1.743.2 2.065 1.846 2.065h.56c1.72 0 2.564-1.19 2.564-2.577s-.844-2.537-2.564-2.537zM58.545 64.133c-.76 1.586-.76 2.222 1.72 2.222v.752h-6.372v-.752c2.004 0 2.363-.512 3.365-2.693l4.895-10.269h.718l4.852 10.27c1.002 2.139 1.403 2.692 3.207 2.692v.752h-7.734v-.752c2.289 0 2.523-.636 1.763-2.222l-.602-1.305h-5.211zm3.207-6.75-2.005 4.247h4.009zM73.018 66.347c2.246 0 2.606-.512 2.606-3.33v-5.072c0-2.817-.36-3.288-2.606-3.288v-.752h7.174c5.73 0 8.218 2.974 8.218 6.585s-2.489 6.625-8.218 6.625h-7.174zm5.378-11.26v8.608c0 1.826.2 2.181 1.646 2.181h.284c4.167 0 4.927-3.015 4.927-5.436s-.76-5.353-4.927-5.353zM100.478 67.62c-4.41 0-8.018-3.214-8.018-7.139 0-3.924 3.608-7.096 8.018-7.096s8.017 3.214 8.017 7.096-3.607 7.138-8.017 7.138m0-13.012c-3.691 0-4.97 3.288-4.97 5.865s1.287 5.866 4.97 5.866 5.011-3.255 5.011-5.866-1.286-5.865-5.011-5.865M290.276 55.244v-.876l5.654-1.074v9.715c0 2.818.359 3.33 2.606 3.33v.752h-7.976v-.752c2.247 0 2.606-.512 2.606-3.33v-4.717c0-2.817-.685-3.09-2.89-3.056zM308.842 66.116c-.443 1.107-1.003 1.743-2.088 1.503-.518-.082-1.245-.909-.485-2.263l5.212-9.278h-4.727c-1.161 0-2.364.397-2.606 1.504l-.159.71h-.843l.802-4.403h9.462v.95l-4.568 11.26zM331.808 63.018c0 2.817.36 3.329 2.606 3.329v.752h-7.976v-.752c2.247 0 2.606-.512 2.606-3.33v-5.072c0-2.817-.359-3.288-2.606-3.288v-.752h7.976v.752c-2.246 0-2.606.48-2.606 3.288v1.545h7.058v-1.545c0-2.817-.401-3.288-2.606-3.288v-.752h7.934v.752c-2.247 0-2.606.48-2.606 3.288v5.073c0 2.817.359 3.329 2.606 3.329v.752h-7.934v-.752c2.205 0 2.606-.512 2.606-3.33v-2.296h-7.058zM353.055 61.589v1.429c0 2.817.359 3.329 2.606 3.329v.752h-7.976v-.752c2.246 0 2.605-.512 2.605-3.33v-5.072c0-2.817-.359-3.288-2.605-3.288v-.752h7.057c3.524 0 5.412 1.67 5.412 3.85 0 1.743-1.32 3.288-3.809 3.726l1.846 1.983c1.604 1.743 2.764 2.66 4.493 2.891v.752h-4.493l-4.451-5.51h-.685zm1.645-6.502h-1.645v5.27h1.645c1.804 0 2.606-1.23 2.606-2.618s-.802-2.66-2.606-2.66zM370.293 67.62c-1.604 0-3.049-.835-3.65-1.347-.201.198-.56.793-.643 1.346h-.76V62.15h.843c.284 2.62 2.122 4.164 4.493 4.164 1.287 0 2.331-.71 2.331-1.9 0-1.033-.919-1.826-2.564-2.578l-2.247-1.074c-1.645-.751-2.806-2.065-2.806-3.808 0-1.9 1.804-3.528 4.251-3.528 1.319 0 2.447.48 3.165 1.033.159-.157.401-.595.485-1.074h.76v4.676h-.844c-.284-1.867-1.32-3.412-3.407-3.412-1.161 0-2.205.636-2.205 1.627 0 .992.843 1.587 2.764 2.462l2.247 1.074c1.921.909 2.647 2.38 2.647 3.57 0 2.494-2.205 4.246-4.852 4.246zM166.213 7.543v4.205h-.367l-4.076-4.296v2.305c0 1.23.159 1.454 1.136 1.454v.33h-2.823v-.33c.977 0 1.136-.223 1.136-1.454V7.543c0-1.231-.159-1.438-1.136-1.438v-.33h1.737l3.85 4.031V7.534c0-1.23-.158-1.437-1.135-1.437v-.33h2.822v.33c-.977 0-1.135.206-1.135 1.437zM172.168 11.772c-1.929 0-3.499-1.404-3.499-3.114s1.578-3.098 3.499-3.098 3.499 1.404 3.499 3.098-1.578 3.114-3.499 3.114m0-5.683c-1.612 0-2.172 1.437-2.172 2.56 0 1.124.56 2.562 2.172 2.562s2.188-1.421 2.188-2.561-.56-2.561-2.188-2.561M182.257 7.27l-2.138 4.502h-.301L177.68 7.27c-.451-.934-.61-1.157-1.403-1.157v-.33h3.399v.33c-1.019 0-1.119.281-.785.967l1.403 2.941 1.403-2.941c.351-.71.351-.967-.752-.967v-.33h2.781v.33c-.876 0-1.018.207-1.469 1.157M184.378 11.55v-.331c.977 0 1.136-.223 1.136-1.454V7.55c0-1.231-.159-1.438-1.136-1.438v-.33h3.483v.33c-.978 0-1.136.207-1.136 1.438v2.214c0 1.23.158 1.454 1.136 1.454v.33zM194.375 7.41h-.276l-.092-.33c-.158-.57-.35-.777-1.595-.777h-.96v1.942c1.361 0 1.47-.124 1.47-1.025h.334v2.578h-.334c0-.9-.109-1.024-1.47-1.024v.793c0 1.23.158 1.437 1.069 1.437h.242c1.244 0 1.436-.206 1.595-.776l.084-.314h.258l-.108 1.627h-5.495v-.33c.977 0 1.135-.223 1.135-1.454V7.543c0-1.231-.158-1.438-1.135-1.438v-.33h5.144l.125 1.627zM201.365 11.55v-.331c.977 0 1.136-.223 1.136-1.454V7.237l-2.138 4.535h-.301l-2.121-4.502v2.495c0 1.23.159 1.454 1.136 1.454v.33h-2.823v-.33c.977 0 1.136-.223 1.136-1.454V7.55c0-1.231-.159-1.438-1.136-1.438v-.33h2.155l2.087 4.42 2.088-4.42h2.122v.33c-.977 0-1.136.207-1.136 1.438v2.214c0 1.23.159 1.454 1.136 1.454v.33zM206.234 11.219c.977 0 1.136-.223 1.136-1.454V7.55c0-1.231-.159-1.438-1.136-1.438v-.33h3.132c1.403 0 2.121.66 2.121 1.504 0 .413-.192.793-.526 1.09.668.297 1.052.867 1.052 1.504 0 .917-.827 1.66-2.363 1.66h-3.416v-.33zm3.065-4.924h-.718v1.942h.718c.651 0 .944-.447.944-.95 0-.504-.301-.984-.944-.984zm.334 2.479h-1.052v1.33c0 .76.083.9.802.9h.242c.751 0 1.119-.52 1.119-1.123s-.368-1.107-1.119-1.107zM215.989 9.137v.62c0 1.23.158 1.454 1.135 1.454v.33h-3.482v-.33c.977 0 1.136-.223 1.136-1.454V7.543c0-1.231-.159-1.438-1.136-1.438v-.33h3.082c1.536 0 2.363.727 2.363 1.677 0 .76-.576 1.437-1.662 1.627l.802.868c.701.76 1.211 1.156 1.962 1.264v.33h-1.962l-1.946-2.404h-.301zm.718-2.842h-.718V8.6h.718c.785 0 1.136-.537 1.136-1.14s-.351-1.157-1.136-1.157zM226.253 7.41h-.276l-.092-.33c-.158-.57-.35-.777-1.595-.777h-.96v1.942c1.369 0 1.47-.124 1.47-1.025h.334v2.578h-.334c0-.9-.101-1.024-1.47-1.024v.793c0 1.23.158 1.437 1.069 1.437h.242c1.244 0 1.436-.206 1.595-.776l.084-.314h.258l-.108 1.627h-5.495v-.33c.977 0 1.135-.223 1.135-1.454V7.543c0-1.231-.158-1.438-1.135-1.438v-.33h5.144l.125 1.627zM172.911 106.282H160.91v-1.065l6.865-5.725c1.729-1.43 2.146-2.446 2.146-4.205 0-1.76-1.311-3.049-3.457-3.049s-4.251 2.123-2.339 5.04l-1.403 1.197c-4.109-2.676-2.054-8.038 3.784-8.038 3.315 0 6.355 1.801 6.355 4.759 0 2.214-1.545 3.833-3.082 4.94l-4.902 3.652h8.544l-.518 2.494zM185.096 106.886c-3.599 0-6.489-3.743-6.489-8.32 0-4.576 2.898-8.319 6.489-8.319s6.448 3.792 6.448 8.32c0 4.527-2.898 8.319-6.448 8.319m0-15.152c-2.288 0-3.274 3.14-3.274 6.84 0 3.702.977 6.882 3.274 6.882s3.274-3.23 3.274-6.881-1.027-6.84-3.274-6.84M208.731 106.282H196.73v-1.065l6.865-5.725c1.729-1.43 2.146-2.446 2.146-4.205 0-1.76-1.311-3.049-3.457-3.049s-4.251 2.123-2.339 5.04l-1.403 1.197c-4.109-2.676-2.054-8.038 3.783-8.038 3.316 0 6.356 1.801 6.356 4.759 0 2.214-1.545 3.833-3.082 4.94l-4.902 3.652h8.544l-.518 2.494zM219.939 106.886c-3.641 0-5.42-1.942-5.42-3.231 0-.512.376-1.016 1.077-1.016 1.311 0 .794 2.817 4.343 2.817 2.472 0 3.733-2.032 3.733-4.114s-.977-3.974-3.407-3.974c-1.495 0-3.04 1.017-3.5 2.727h-1.728l1.027-9.195h9.947l-.468 2.544h-7.984l-.326 3.693c.518-.603 1.913-1.338 3.407-1.338 3.458 0 6.122 2.495 6.122 5.543s-3.082 5.544-6.823 5.544M160.793 71.188l11.993-14.936c5.846-7.279 8.727-12.913 8.727-17.044 0-5.328-2.43-9.31-8.268-9.31-5.837 0-10.088 5.031-5.846 11.26l-2.121 2.33c-9.563-5.477-5.921-16.812 8.042-16.812 9.028 0 14.039 6.08 14.039 12.458 0 6.006-3.791 10.657-9.863 17.49l-10.013 11.334h11.383c6.681 0 7.742-1.198 8.953-5.709h1.67l-1.896 10.732h-26.792V71.18zM198.358 71.188l11.993-14.936c5.846-7.279 8.728-12.913 8.728-17.044 0-5.328-2.431-9.31-8.277-9.31s-10.088 5.031-5.846 11.26l-2.121 2.33c-9.563-5.477-5.921-16.812 8.042-16.812 9.029 0 14.039 6.08 14.039 12.458 0 6.006-3.791 10.657-9.863 17.49L205.04 67.957h11.383c6.681 0 7.742-1.198 8.953-5.709h1.67l-1.896 10.732h-26.792V71.18zM138.544 0v111h-1.252V0zM250.322 0v111h-1.253V0zM113.723 38.647v1.239H0v-1.24zM113.723 78.805v1.24H0v-1.24zM389 38.647v1.239H275.277v-1.24zM389 78.805v1.24H275.277v-1.24z"/></svg>