<svg xmlns="http://www.w3.org/2000/svg" fill="none" viewBox="0 0 142 96"><path fill="#fff" d="M23.667 40.104q7.503-.392 12.152-5.6 4.704-5.208 4.872-13.44-.169-7.896-4.816-12.936-4.648-5.096-12.096-5.432h-8.512v37.408zM23.61 41H10.787l.56-2.184V3.984l-.56-2.184h12.88q9.015 0 14.84 5.32t6.104 13.776v.168q0 8.792-5.824 14.392Q32.963 41 23.61 41m42.662 0h-3.696l-.28-2.016-7.448-18.648h-1.4v18.48L54.01 41h-5.04l.56-2.184V3.984L48.97 1.8h7.896q3.64 0 5.992 2.408 2.408 2.352 2.408 6.048 0 4.2-2.184 7-2.127 2.745-5.656 3.08l7.448 18.648zm-9.408-21.56q1.905 0 3.136-2.52 1.288-2.52 1.344-6.552 0-3.304-1.288-5.488-1.231-2.184-3.192-2.184H53.45V19.44zM87.905 41h-16.24l.56-2.184V3.984l-.56-2.184h16.24l1.568 6.16q-2.745-4.368-6.216-5.264h-7.112v18.256h4.704l6.16-1.568q-4.368 2.744-5.264 6.216v-3.752h-5.6v18.256h7.112q3.471-.896 6.216-5.264zm14.029.896q-2.407 0-4.648-1.344-2.24-1.4-3.416-3.584l2.184-5.936q0 5.431 1.568 8.568 2.24 1.4 4.312 1.4 2.016 0 3.304-1.68 1.288-1.736 1.288-4.368 0-2.295-1.736-4.984t-4.088-5.656a91 91 0 0 1-3.304-4.424 34 34 0 0 1-2.632-4.536q-1.008-2.24-1.008-4.368 0-4.704 2.128-7.392Q98.071.904 101.374.904q1.96 0 3.976.84 2.016.784 3.192 2.128l-1.568 6.216q-.391-5.208-2.8-7.84-1.287-.448-2.296-.448-1.791 0-3.024 1.792-1.176 1.735-1.176 4.48t1.904 5.824a88 88 0 0 0 4.368 6.272 66 66 0 0 1 4.48 6.384q2.016 3.192 2.016 6.104 0 4.033-2.408 6.664-2.408 2.576-6.104 2.576m20.344 0q-2.408 0-4.648-1.344-2.24-1.4-3.416-3.584l2.184-5.936q0 5.431 1.568 8.568 2.24 1.4 4.312 1.4 2.016 0 3.304-1.68 1.288-1.736 1.288-4.368 0-2.295-1.736-4.984t-4.088-5.656a91 91 0 0 1-3.304-4.424 34 34 0 0 1-2.632-4.536q-1.008-2.24-1.008-4.368 0-4.704 2.128-7.392 2.184-2.688 5.488-2.688 1.96 0 3.976.84 2.016.784 3.192 2.128l-1.568 6.216q-.392-5.208-2.8-7.84-1.288-.448-2.296-.448-1.792 0-3.024 1.792-1.176 1.735-1.176 4.48t1.904 5.824a88 88 0 0 0 4.368 6.272 66 66 0 0 1 4.48 6.384q2.016 3.192 2.016 6.104 0 4.033-2.408 6.664-2.408 2.576-6.104 2.576m-101.495 54q-5.656 0-10.304-2.744a21.55 21.55 0 0 1-7.448-7.448Q.286 81.056.287 75.4q0-5.655 2.744-10.304 2.8-4.649 7.448-7.392 4.648-2.8 10.304-2.8 7.84 0 13.608 5.152l-3.08 1.68q-5.544-5.544-12.32-5.544-3.975 0-7.784 2.128-6.384 3.864-7.728 10.752a19.4 19.4 0 0 0-.28 3.304q0 5.432 3.136 11.2 4.536 7.447 11.256 9.856 2.688.952 5.32.952 3.975 0 7.952-2.184 4.032-2.407 5.88-6.496l1.4.616q-2.8 4.368-7.336 7-4.536 2.576-10.024 2.576m41.234 0q-5.655 0-10.304-2.744a21.55 21.55 0 0 1-7.448-7.448q-2.744-4.648-2.744-10.304 0-5.655 2.744-10.304 2.8-4.649 7.448-7.392 4.649-2.8 10.304-2.8t10.304 2.8a20.63 20.63 0 0 1 7.392 7.392q2.8 4.648 2.8 10.304 0 5.655-2.8 10.304-2.744 4.648-7.392 7.448-4.647 2.745-10.304 2.744m2.128-1.512q3.976 0 7.952-2.184 6.105-3.752 7.168-10.864a18 18 0 0 0 .224-2.8q0-5.824-3.528-12.152-4.256-7.168-10.752-9.352-2.52-.896-4.984-.896-3.92 0-7.784 2.184-6.384 3.864-7.728 10.752a19.4 19.4 0 0 0-.28 3.304q0 5.432 3.136 11.2 4.536 7.447 11.256 9.856 2.689.952 5.32.952m35.155-.28q7.503-.392 12.152-5.6 4.704-5.208 4.872-13.44-.168-7.896-4.816-12.936-4.648-5.096-12.096-5.432H90.9v37.408zm-.056.896H86.42l.56-2.184V57.984l-.56-2.184H99.3q9.015 0 14.84 5.32 5.823 5.32 6.104 13.776v.168q0 8.792-5.824 14.392Q108.595 95 99.244 95m40.45 0h-16.24l.56-2.184V57.984l-.56-2.184h16.24l1.568 6.16q-2.745-4.368-6.216-5.264h-7.112v18.256h4.704l6.16-1.568q-4.368 2.744-5.264 6.216v-3.752h-5.6v18.256h7.112q3.471-.896 6.216-5.264z"/></svg>