<svg xmlns="http://www.w3.org/2000/svg" fill="none" viewBox="0 0 390 281"><path fill="#312e25" d="M83.802 181h-6.12l.68-2.652V139.18L70.474 181h-4.828l-8.024-41.888v39.236l.68 2.652h-2.448l.68-2.652v-42.296l-.68-2.652h6.188l-.204 2.584 8.092 42.16 7.956-42.16-.204-2.584h6.12l-.68 2.652v42.296zm26.321 0h-6.188l.272-2.652-1.904-12.716h-8.568l-1.904 12.716.272 2.652h-2.448l1.088-2.652 6.324-42.296-.272-2.652h5.508l6.732 44.948zm-7.956-16.456-4.148-27.54-4.148 27.54zM124.701 181h-6.324l.68-2.652v-20.604l-6.8-23.12-1.02-1.224h6.324l-.34 1.224 6.256 21.284 6.324-21.284-.34-1.224h2.448l-1.02 1.224-6.868 23.12v20.604zm34.11 0h-4.488l-.34-2.448-9.044-22.644h-1.7v22.44l.68 2.652h-6.12l.68-2.652v-42.296l-.68-2.652h9.588q4.42 0 7.276 2.924 2.924 2.856 2.924 7.344 0 5.1-2.652 8.5-2.584 3.332-6.868 3.74l9.044 22.644zm-11.424-26.18q2.312 0 3.808-3.06 1.565-3.06 1.632-7.956 0-4.012-1.564-6.664-1.496-2.652-3.876-2.652h-4.148v20.332zM185.162 181h-6.188l.272-2.652-1.904-12.716h-8.568l-1.904 12.716.272 2.652h-2.448l1.088-2.652 6.324-42.296-.272-2.652h5.508l6.732 44.948zm-7.956-16.456-4.148-27.54-4.148 27.54zM211.454 181h-6.12l.68-2.652v-42.296l-.68-2.652h9.792q4.353 0 7.14 4.08t2.788 10.336q0 6.596-2.788 10.88t-7.14 4.284h-4.352v15.368zm3.672-19.108q2.176 0 3.604-3.876 1.497-3.876 1.564-10.064 0-5.848-1.496-9.656-1.428-3.808-3.672-3.808h-4.352v27.404zM251.285 181h-19.72l.68-2.652v-42.296l-.68-2.652h19.72l1.904 7.48q-3.333-5.304-7.548-6.392h-8.636v22.168h5.712l7.48-1.904q-5.304 3.332-6.392 7.548v-4.556h-6.8v22.168h8.636q4.215-1.088 7.548-6.392zm-11.288-56.78-1.156-1.088 3.876-6.596 3.128 2.924zM280.733 181h-4.488l-.34-2.448-9.044-22.644h-1.7v22.44l.68 2.652h-6.12l.68-2.652v-42.296l-.68-2.652h9.588q4.42 0 7.276 2.924 2.924 2.856 2.924 7.344 0 5.1-2.652 8.5-2.584 3.332-6.868 3.74l9.044 22.644zm-11.424-26.18q2.312 0 3.808-3.06 1.565-3.06 1.632-7.956 0-4.012-1.564-6.664-1.495-2.652-3.876-2.652h-4.148v20.332zM307 181h-19.72l.68-2.652v-42.296l-.68-2.652H307l1.904 7.48q-3.333-5.304-7.548-6.392h-8.636v22.168h5.712l7.48-1.904q-5.304 3.332-6.392 7.548v-4.556h-6.8v22.168h8.636q4.215-1.088 7.548-6.392zm24.244 0h-17.136v-1.088l14.076-45.424h-6.528q-4.149 1.088-7.548 6.392l1.904-7.48h17.136v1.088l-14.076 45.424h6.528q4.215-1.088 7.548-6.392zM25.257 261H19.07l.272-2.652-1.904-12.716H8.87l-1.904 12.716.272 2.652H4.79l1.088-2.652 6.324-42.296-.272-2.652h5.508l6.732 44.948zm-7.956-16.456-4.148-27.54-4.148 27.54zm29.612 15.368q9.111-.476 14.756-6.8 5.712-6.324 5.916-16.32-.204-9.588-5.848-15.708-5.644-6.188-14.688-6.596H36.713v45.424zM46.845 261H31.273l.68-2.652v-42.296l-.68-2.652h15.64q10.947 0 18.02 6.46 7.071 6.46 7.412 16.728v.204q0 10.676-7.072 17.476Q58.2 261 46.845 261m52.468 0h-4.488l-.34-2.448-9.044-22.644h-1.7v22.44l.68 2.652h-6.12l.68-2.652v-42.296l-.68-2.652h9.588q4.42 0 7.276 2.924 2.924 2.856 2.924 7.344 0 5.1-2.652 8.5-2.584 3.332-6.868 3.74l9.044 22.644zM87.89 234.82q2.311 0 3.808-3.06 1.565-3.06 1.632-7.956 0-4.012-1.564-6.664-1.496-2.652-3.876-2.652h-4.148v20.332zM111.98 261h-6.12l.68-2.652v-42.296l-.68-2.652h6.12l-.68 2.652v42.296zm26.965 0h-6.188l.272-2.652-1.904-12.716h-8.568l-1.904 12.716.272 2.652h-2.448l1.088-2.652 6.324-42.296-.272-2.652h5.508l6.732 44.948zm-12.58-56.78-1.156-1.088 3.876-6.596 3.128 2.924zm4.624 40.324-4.148-27.54-4.148 27.54zM165.224 261h-4.964l-12.988-43.928v41.276l.68 2.652h-2.448l.68-2.652v-42.296l-.68-2.652h5.644l12.988 43.928v-41.276l-.68-2.652h2.448l-.68 2.652zm48.802 0h-6.12l.68-2.652V219.18L200.698 261h-4.828l-8.024-41.888v39.236l.68 2.652h-2.448l.68-2.652v-42.296l-.68-2.652h6.188l-.204 2.584 8.092 42.16 7.956-42.16-.204-2.584h6.12l-.68 2.652v42.296zm26.321 0h-6.188l.272-2.652-1.904-12.716h-8.568l-1.904 12.716.272 2.652h-2.448l1.088-2.652 6.324-42.296-.272-2.652h5.508l6.732 44.948zm-7.956-16.456-4.148-27.54-4.148 27.54zM267.919 261h-4.488l-.34-2.448-9.044-22.644h-1.7v22.44l.68 2.652h-6.12l.68-2.652v-42.296l-.68-2.652h9.588q4.42 0 7.276 2.924 2.924 2.856 2.924 7.344 0 5.1-2.652 8.5-2.584 3.332-6.868 3.74l9.044 22.644zm-11.424-26.18q2.311 0 3.808-3.06 1.563-3.06 1.632-7.956 0-4.012-1.564-6.664-1.497-2.652-3.876-2.652h-4.148v20.332zM284.898 261h-6.12l.68-2.652v-43.86h-1.496q-4.148 1.088-7.548 6.392l1.904-7.48h19.04l1.904 7.48q-3.332-5.304-7.548-6.392h-1.496v43.86zm20.988 0h-6.12l.68-2.652v-42.296l-.68-2.652h6.12l-.68 2.652v42.296zm-5.44-56.78-1.156-1.088 3.876-6.596 3.128 2.924zM332.103 261h-4.964l-12.988-43.928v41.276l.68 2.652h-2.448l.68-2.652v-42.296l-.68-2.652h5.644l12.988 43.928v-41.276l-.68-2.652h2.448l-.68 2.652zm26.961 0h-19.72l.68-2.652v-42.296l-.68-2.652h19.72l1.904 7.48q-3.332-5.304-7.548-6.392h-8.636v22.168h5.712l7.48-1.904q-5.304 3.332-6.392 7.548v-4.556h-6.8v22.168h8.636q4.216-1.088 7.548-6.392zm24.244 0h-17.136v-1.088l14.076-45.424h-6.528q-4.147 1.088-7.548 6.392l1.904-7.48h17.136v1.088l-14.076 45.424h6.528q4.216-1.088 7.548-6.392z"/><path fill="#a39d79" d="m214.051 217.244.21.42c-3.64 2.31-6.79 3.5-9.45 3.85-3.71.56-6.58-.63-8.68-2.94s-3.43-5.81-4.27-10.01c-.14-.77-.35-1.54-.42-2.38-3.64 3.22-7.84 6.3-12.74 9.59-4.48 3.01-13.16 8.19-18.55 4.41-1.19-.84-1.96-2.1-2.31-3.71-.42-2.17 0-5.04 1.47-8.33 5.74-12.88 19.88-23.31 33.39-31.57 2.59-7.91 9.59-15.19 16.31-19.25 4.06-2.45 7.98-3.71 10.85-3.22q1.365.21 2.31 1.05h.07c1.33 1.05 1.19 2.31 0 3.78-3.71 4.83-22.96 15.4-29.68 19.95-1.19 9.1-.49 17.36 1.4 24.01 14.14-13.58 18.97-24.43 36.33-24.43.07 0 0 .77 0 .77-16.45 0-22.54 11.55-36.05 24.43.42 1.47.98 2.94 1.61 4.2 1.4 3.01 3.08 5.53 5.11 7.35 1.96 1.82 4.13 2.94 6.58 3.22 2.03.28 4.2-.07 6.51-1.19m-35.63-1.82c5.11-3.43 9.31-6.79 12.88-10.08-.91-7.63-.42-17.01.7-25.97v-.07c-11.48 7.77-22.89 17.43-28.07 28.98-1.68 3.78-2.38 6.86-2.1 9.03.14 1.26.63 2.24 1.4 2.8 3.43 2.66 12.39-2.8 15.19-4.69m14.91-39.27c6.44-3.92 25.27-13.51 28.63-17.85.84-1.05.91-2.03 0-2.8h-.07c-.56-.49-1.33-.77-2.1-.91-2.8-.49-6.58.77-10.5 3.08-6.86 4.2-13.16 10.92-15.96 18.48"/><path fill="#312e25" d="M194.5 0C175.475 0 160 17.944 160 40s15.478 40 34.5 40S229 62.056 229 40 213.522 0 194.5 0m0 79.749c-18.878 0-34.238-17.83-34.238-39.746S175.619.252 194.5.252 228.738 18.083 228.738 40c0 21.916-15.36 39.747-34.238 39.747z"/><path fill="#312e25" d="M227.166 33.32C224.444 15.177 210.832 1.34 194.5 1.34c-18.286 0-33.164 17.344-33.164 38.662 0 21.319 14.878 38.662 33.164 38.662s33.164-17.343 33.164-38.662c0-2.276-.17-4.506-.495-6.676v-.005zM194.5 1.57c16.182 0 29.677 13.697 32.42 31.68l-.126.043c-.34.114-.299.101-.663.284-2.986 1.194-7.566 1.034-11.996.88-2.858-.1-5.559-.196-7.885.045-1.656-3.15-4.91-4.545-8.68-3.79l-1.603-8.618q-.306-1.577.527-2.538.832-.957 2.496-1.173v-.256h-4.076q-.613 0-1.161.299t-.767.811l-9.29 22.895-10.123-22.895a1.53 1.53 0 0 0-.788-.831 2.7 2.7 0 0 0-1.185-.277h-4.162c5.954-10 15.862-16.56 27.062-16.56m-7.511 51.36c1.168 1.417 3.091 2.104 5.562 1.993 3.851-.175 7.982-2.57 11.066-6.411l2.819.705c-1.129.996-2.269 2.07-3.471 3.204-5.237 4.943-11.174 10.547-18.305 10.87-4.05.184-7.01-1.942-7.542-5.413-.582-3.797 1.983-8.664 8.967-10.479-.558 2.19-.241 4.147.904 5.534zm10.689-21.632c3.463-.723 6.371.449 7.94 3.255-2.499.304-4.862.849-7.036 1.607zm8.229 3.817c1.676 3.648.717 8.52-2.513 12.768-2.347-.6-4.692-1.156-7.175-1.472l2.156-.104 4.514.299v-.256q-1.36 0-2.039-.875-.678-.875-.985-2.408l-1.179-6.347c2.109-.738 4.509-1.298 7.221-1.605m-8.889 7.952q.262 1.537-.833 2.408c-.443.353-1.109.596-1.989.735a31 31 0 0 0-3.565-.043c-1.323.061-2.547.213-3.642.457 1.124-3.002 4.048-6.457 9.096-8.845zm-6.359 3.688c4.52-.205 8.271.599 12.327 1.605-2.948 3.584-6.843 5.812-10.464 5.977-2.3.104-4.066-.527-5.111-1.825-1.051-1.305-1.281-3.171-.65-5.257 1.179-.272 2.458-.434 3.898-.5m13.723 1.374-.367-.093c3.188-4.295 4.139-9.235 2.507-13.004 2.232-.203 4.802-.11 7.519-.008 3.385.124 6.872.254 9.725-.233-3.55 2.157-7.524 5.724-11.375 9.181l-.037.033a280 280 0 0 1-4.983 4.393l-.417.362c-.801-.18-1.624-.39-2.572-.63m11.938-5.391c2.934-2.697 5.916-5.402 8.192-7.164-4.98 4.444-9.305 9.214-12.609 13.919a35 35 0 0 1-2.902-.32 632 632 0 0 0 7.317-6.433zM167.283 18.39c1.092.15 2.206.535 2.853 1.164q.986.959.592 2.75l-4.425 20.636q-.394 1.791-1.205 2.601c-.529.53-1.894.799-3.073.809a45 45 0 0 1-.451-6.348c0-8.007 2.109-15.447 5.714-21.61zM194.5 78.433c-16.23 0-29.753-13.777-32.441-31.835l4.155-.291 5.434.299v-.256q-2.85.001-3.833-.811-.987-.81-.637-2.601l4.294-21.232 11.042 24.259 10.605-25.027 2.869 16.269a24 24 0 0 0-3.584 2.048c-3.031 2.114-5.197 4.775-6.109 7.508-7.566 1.79-10.361 7.03-9.756 11.153.56 3.818 3.762 6.155 8.155 5.955 7.996-.363 15.58-7.037 21.674-12.398.717-.631 1.414-1.245 2.088-1.825 1.11.205 2.074.352 3.049.395-2.455 3.584-4.257 7.027-5.219 9.972-1.289 4.026-1.042 7.161.697 8.83.996.955 2.45 1.39 4.289 1.307 1.582-.07 3.77-.725 4.668-1.004-5.763 5.782-13.256 9.283-21.435 9.283zm22.177-10.048a.18.18 0 0 0-.134-.015c-2.764.857-6.581 1.214-7.841.038-1.564-1.457-1.839-4.436-.76-8.172.875-3.05 2.596-6.558 4.978-10.155 2.661-.056 5.017-.773 7.398-2.261a.16.16 0 0 0 .055-.213l-.128-.223a.18.18 0 0 0-.105-.078.18.18 0 0 0-.131.02c-2.127 1.32-4.315 2.025-6.683 2.147 3.557-5.235 8.011-10.5 13.693-15.519.268 1.97.409 3.988.409 6.044 0 11.229-4.15 21.35-10.751 28.382z"/></svg>