<svg xmlns="http://www.w3.org/2000/svg" fill="none" viewBox="0 0 36 64"><path fill="#f7efda" d="M23.957 14.162c-.004.046.008.104-.017.138-.906 1.256-1.154 2.692-1.194 4.186-.029 1.173.138 2.325.439 3.456.21.305.231.672.337 1.01.053.163.077.338.175.484.077.067.008.288.227.213.11.146.134.309.081.476-.044.146.02.25.098.354.008.172-.09.305-.17.439-.52.838-.464 1.652.117 2.441.122.092.15.355.402.217.334-.434.419-.926.39-1.456-.056-1.015-.174-2.025-.089-3.043.012-.134 0-.271.081-.388q.049-.056.114-.017c-.057 1.098.077 2.187.167 3.28.044.577.065 1.157-.228 1.695-.069.125-.04.267-.02.4.325 2.296.532 4.6.662 6.912.13 2.354.146 4.704-.012 7.058-.126 1.883-.423 3.74-.817 5.58a21 21 0 0 1-.418 1.64c-.138.034-.289.084-.212-.162q.276-1.221.545-2.442c.414-1.882.622-3.79.72-5.714.19-3.74.011-7.466-.383-11.19l-.203-1.89c-.122.192-.475.013-.439.367q-.03.033-.057-.004c-.012-.108-.02-.2-.118-.288-.853-.768-1.064-1.652-.63-2.687a.52.52 0 0 0-.02-.485c-.187-.359-.35-.73-.524-1.093.167-.196-.105-.388-.008-.58q-.02-.082-.04-.163c-.066-.38-.204-.743-.26-1.123-.013-.492-.257-.926-.362-1.394a5 5 0 0 1-.053-.246.1.1 0 0 1 .11-.008c.19.258.166.571.268.784-.04-.204-.138-.467-.195-.739-.057-.27-.2-.534-.098-.826q.043-.055.098-.017.004.04.02.071c.049.08.073.034.065-.02-.02-.197-.053-.389-.073-.585-.17-1.686-.406-3.372-.122-5.07.191-1.136.476-2.234 1.032-3.252.065-.013.102-.004.061.07-1.256 2.522-1.162 5.197-.89 7.78.118-.826.256-1.752.57-2.646a4.6 4.6 0 0 1 .877-1.523zM14.091 13.92c-.248.605-.491 1.21-.751 1.811a.5.5 0 0 0 .008.464c.394.797.345 1.531-.378 2.145-.122.104-.086.234-.094.346-.13 1.803-.097 3.606 0 5.414l.118 2.19c.008.097.114.218-.065.272-.215-2.191-.268-4.39-.28-6.59 0-.305.024-.605.04-.91.041-.213-.02-.438.025-.655-.029.167.02.359-.102.505a42 42 0 0 0-.154 3.339c-.037.78.044 1.56.044 2.341 0 .104.106.259-.093.313-.15-2.108-.179-4.22.04-6.327.021-.18 0-.313-.105-.45a1.75 1.75 0 0 1-.325-1.186c.053-.81.081-1.616.033-2.425a.1.1 0 0 1 .105-.013c.224.568.252 1.156.179 1.75-.081.617.114 1.16.366 1.714.65-.818.678-1.298.158-2.107-.11-.167-.264-.318-.268-.535a.13.13 0 0 1 .06-.087c.098.012.167.05.16.159.028-.364.093-.718.26-1.048.178-.346.1-.722.133-1.085.126-.322.013-.647.037-.973.012-.142-.065-.309.097-.417.204.075.118.25.135.388.024.18-.045.359-.02.555-.009-.204.028-.388.036-.576.24-.271.236-.597.236-.926.012-.439-.098-.873.02-1.307a.12.12 0 0 1 .105-.058c.147.104.122.263.135.409.028.4.008.805.052 1.206.232-.03.167.138.15.242-.036.226-.011.438.058.651.101.342-.204.605-.195.927 0 .18-.02.359.044.534z"/><path fill="#f7efda" d="M14.091 13.92c-.26-.125-.101-.342-.118-.522.407-.488.663-1.072 1.053-1.573.231-.3.443-.614.67-.923.857-1.139 1.873-2.166 2.597-3.405.386-.664.698-1.357.788-2.125.085-.743-.134-1.415-.756-1.799-1.235-.763-2.308-1.694-3.328-2.7-.036-.038-.081-.058-.126-.092-.76-.526-1.613-.55-2.486-.425-.24.033-.492.033-.724.125-1 .217-2.007.359-3.03.363-1.098.004-2.15.263-3.162.672-.167.067-.325.158-.516.158-.069-.012-.138-.025-.138-.116C6.095.94 7.435.568 8.87.564c1.069 0 2.097-.271 3.14-.446 1.086-.18 2.17-.242 3.113.475.232.18.451.38.642.597.646.735 1.402 1.323 2.251 1.828 1.252.743 1.597 1.64 1.211 3.026a6.4 6.4 0 0 1-.723 1.628 13 13 0 0 1-1.183 1.644c-1.219 1.44-2.352 2.939-3.234 4.6zM31.262 8.832c-1.483-.004-2.889-.396-4.282-.847-.13-.042-.268-.054-.399-.08-1.052-.108-2.06.005-2.978.56-.524.3-.95.714-1.361 1.144-.983 1.03-2.06 1.965-3.137 2.9-.577.501-1.068 1.073-1.21 1.85a3.8 3.8 0 0 0 .142 1.902c.02.08.052.163-.086.167-.459-1.06-.447-2.5.488-3.501a10 10 0 0 1 1.032-.964c1.134-.914 2.145-1.954 3.185-2.964.821-.797 1.752-1.365 2.958-1.381.659-.009 1.3.1 1.906.338 1.353.534 2.775.697 4.206.814-.127.196-.301.058-.456.058zM15.253 48.8a73 73 0 0 0-.43-6.311c-.236-2.145-.52-4.286-.785-6.432l-.658-5.259c.024-.033.029-.083.077-.1q.191 1.389.382 2.776l.756 5.555c.46 3.343.813 6.694.744 10.08-.191-.06-.09-.193-.086-.305z"/><path fill="#f7efda" d="M12.462 9.175c-.975-2.421-2.698-4.228-4.86-5.68-.682-.46-1.381-.877-2.247-.927-.532-.034-1.02.108-1.511.275-.654.221-1.304.497-2.028.41-.487-.064-.918-.23-1.267-.573.243-.154.402.109.609.121.813.334 1.613.188 2.369-.146 1.377-.61 2.629-.396 3.848.393 1.495.964 2.872 2.049 3.95 3.468.284.375.515.785.792 1.164q.108.131.19.28c.037.067.074.13.094.204.008.226.073.439.146.647.045.13.13.284-.081.368zM24.952 22.676h-.073c-.008-.008-.02-.016-.024-.025q-.015-.05-.017-.008c-.032.355.013.739-.317 1.006-.142-.046-.158-.171-.195-.284a2.3 2.3 0 0 1 .037-.814c.15-.263.264-.538.288-.843.025-.405 0-.814.074-1.219.024-.146.036-.296.146-.409.028-.075-.008-.18.097-.225.09.188.009.367.009.517.064-.421.089-.884.207-1.33.057-.256.044-.535.268-.723.48-1.623 1.264-3.072 2.49-4.27.07-.012.098.005.074.08-1.524 1.602-2.271 3.556-2.674 5.676-.179.956-.276 1.92-.39 2.88zM24.079 49.08c-.017.162.146.1.21.162-.548 1.97-1.1 3.94-1.645 5.914-.504 1.828-.942 3.669-1.21 5.543q-.03.055-.062 0c.066-1.048.285-2.07.492-3.093.577-2.846 1.394-5.635 2.158-8.435.008-.033.036-.063.057-.092M12.137 14.509q-.043-.001-.085.004c-.143-.46-.106-.944-.232-1.407-.439-1.623-1.418-2.9-2.629-4.04-.646-.61-1.365-1.144-2.117-1.799.386.117.549.384.805.501.365.125.605.426.906.643.13.092.243.217.386.296.13.088.231.205.373.271.451.255.707.689 1.028 1.065.057.062.074.167.187.17.655.944 1.073 1.983 1.35 3.085q.047.182.1.363c.298.25.224.639.363.948.048.213.231.413.06.642l-.024.013c-.252-.054-.276-.288-.366-.463-.044-.092-.02-.213-.105-.293M34.472 36.483c.78-.63.492-1.548-.053-2.058-.272-.254-.56-.492-.832-.743a.73.73 0 0 1-.224-.338q.019-.05.032-.1c.017-.08.017-.196.11-.196.146 0 .049.154.106.221.049.342.325.51.565.701.418.334.837.668.97 1.223.155.643-.056 1.215-.377 1.753-.614 1.031-1.508 1.79-2.515 2.425-.89.56-1.796 1.09-2.698 1.636q-.05-.027-.045-.08c.016-.062.053-.137.106-.141.215-.008.012-.142.065-.192.353-.321.8-.497 1.21-.718 1.033-.56 2.036-1.152 2.853-2.003.358-.372.723-.739.845-1.26-.04-.042-.098-.072-.122-.126zM13.165 58.073c-.029-.822-.037-1.644-.098-2.462-.138-1.811-1-3.147-2.759-3.852-.402-.163-.816-.305-1.21-.489-.996-.467-1.744-1.715-1.654-2.817.04.422.122.751.252 1.069.357.868.991 1.452 1.91 1.744q.495.157.97.363c1.451.639 2.32 1.728 2.569 3.26.199 1.24.186 2.491.117 3.74-.13-.167-.004-.38-.097-.556M32.567 11.741c.361-.25.723-.496 1.028-.939-.813.451-1.626.526-2.447.53-1.21.004-2.421-.02-3.587.397-.472.167-.919.38-1.366.588-.02-.175.147-.175.24-.225a7.8 7.8 0 0 1 3.913-.93c.723.016 1.45.024 2.162-.134.699-.155 1.276-.472 1.593-1.152.101-.213.235-.41.511-.43.269-.088.086.18.183.23-.052.129-.223.087-.288.196.016.133.138.095.211.133.098.054.26.025.264.2-.695-.075-1.089.31-1.426.844-.203.32-.524.546-.874.713q-.065.046-.113-.017zM16.773 47.614c.138-.505.24-1.014.305-1.552.032.062.06.108.089.158.345-1.565.179-3.072-.46-4.528.188-.005.172.158.216.258.74 1.657.715 3.364.224 5.063-.57 1.962-1.187 3.91-1.638 5.906-.012.063-.028.125-.097.15-.07-.033-.033-.117-.078-.159a.29.29 0 0 1 .053-.242c.098-.317.195-.638.147-.976q.13-.758.26-1.515c.211.025.134.175.122.288-.029.233-.098.459-.159.684.159-.592.244-1.206.427-1.79.15-.593.325-1.181.589-1.736z"/><path fill="#f7efda" d="m16.281 49.375-.52 1.925c-.101-.426.22-.773.033-1.127.174-1.47.402-2.934.418-4.42.008-.852-.179-1.67-.309-2.496q-.061-.389-.13-.776c.02-.464-.053-.923-.056-1.386 0-.322.077-.622.15-.927.024-.096.069-.192.199-.2-.102.776-.17 1.557-.053 2.333.098.66.252 1.31.309 1.978.081.902-.012 1.79-.045 2.684-.016.4-.065.806-.101 1.206.073.497-.07.977-.159 1.461.012-.117-.008-.246.073-.338.134-.154.147.008.191.083M17.947 16.428q.043-.083.085-.167c.54 1.47 1.56 2.617 2.573 3.773.8.915 1.552 1.862 2.186 2.897.036.063.073.133.162.133.04.1.057.23.13.297.244.225 0 .225-.122.284-1.072-2.02-2.73-3.619-4.08-5.439-.401-.542-.76-1.118-.938-1.782zM14.36 40.185c.353 2.546.576 5.1.564 7.671a35 35 0 0 1-.264 4.082c-.073.017-.11 0-.085-.083.203-2.358.26-4.72.09-7.083-.102-1.423-.253-2.842-.379-4.266 0-.112-.122-.254.073-.325zM22.088 54.413c.337-1.398.792-2.763 1.19-4.144.723-2.513 1.243-5.067 1.48-7.672.186.146.064.322.052.484-.004.94-.203 1.858-.358 2.776-.48 2.876-1.414 5.635-2.243 8.418-.02.071-.032.142-.048.217-.065.013-.106 0-.07-.079zM26.846 42.585c.65-1.32 1.3-2.634 2.482-3.594.83-.672 1.8-1.089 2.792-1.469.694-.267 1.401-.505 2.064-.843.044.046.049.1.028.159a.25.25 0 0 1-.081.079c-.955.476-1.975.805-2.934 1.269-.325.154-.646.317-.95.5-1.175.643-1.955 1.64-2.593 2.776-.235.413-.406.868-.731 1.231-.061-.008-.11-.025-.073-.1zM13.266 59.58c.07.175-.024.384.155.584.244-1.636.475-3.234.723-4.833.065-.421.057-.851.187-1.264.053.004.057.054.085.083-.41 3.218-.975 6.41-1.5 9.612-.06-.263.037-.517.062-.772.049-.5.085-.998.126-1.498.077-.51.04-1.019.036-1.528 0-.133-.085-.309.126-.384M10.577 28.724q.201.2.402.405a7.5 7.5 0 0 0-1.329-1.753 13.5 13.5 0 0 0-1.548-1.31c-.13-.092-.284-.163-.358-.322.456.108.78.426 1.118.701a12.1 12.1 0 0 1 3.047 3.723c-.085.08-.175.034-.264.009-.292-.447-.601-.885-1-1.253-.06-.054-.101-.112-.064-.196z"/><path fill="#f7efda" d="M16.062 39.968c-.228.35-.268.743-.289 1.143-.024.46.126.915 0 1.37-.447-1.862.252-3.402 1.422-4.813.269-.321.517-.663.573-1.093.05-.042-.024-.184.122-.15.025.588-.284 1.043-.617 1.494-.403.538-.813 1.077-.988 1.736-.08.075-.126.18-.211.25 0 .021-.008.046-.008.067zM13.266 59.58c-.089.538.017 1.09-.105 1.628-.02.092.032.2-.057.284.008-1.152-.146-2.283-.382-3.414-.215-1.015-.085-2.058-.004-3.143.06 1.385-.053 2.733.361 4.04.114-.292.045-.601.086-.902.138.167.04.376.097.556q-.001.476.004.951M12.47 14.642l-.256-.977c.04-.045.085-.087.126-.133-.187-.171-.004-.43-.154-.61q-.075-.044 0-.096c.113-.129.089-.308.162-.475.09.22.167.425.26.663.272-.71-.097-1.34-.13-1.999.305.722.419 1.482.484 2.258-.073.092 0 .205-.045.3a.11.11 0 0 1-.094.021c-.069-.041-.077-.116-.093-.183 0 .096.024.188-.06.259-.013 0-.025.008-.037 0-.033-.017-.057-.009-.045.008.15.246.032.505.032.755 0 .084 0 .209-.15.205zM15.131 54.73c-.536 2.997-1.04 5.994-1.73 8.965.093-.534.178-1.068.28-1.598.463-2.459.934-4.917 1.308-7.388.008-.05.037-.091.057-.142.085.026.04.117.09.163zM24.81 43.082c-.02-.163.06-.334-.053-.485.183-2.195.195-4.395.13-6.598h.118c.016.446.04.889.045 1.335a57 57 0 0 1-.183 5.501c-.008.084-.037.163-.057.246M14.36 40.185c-.114.092-.025.221-.074.325-.126-.872-.248-1.74-.374-2.612-.105-.722-.215-1.444-.32-2.166-.163-.79-.431-1.561-.399-2.383.017-.109-.008-.238.159-.263q.458 3.1.91 6.197c.044.297.069.597.101.898zM33.61 33.273c-.198-.342-.113.209-.247.075-.11-.262-.187-.521.057-.76.077.063.09.16.118.264-.012-.054-.02-.088-.02-.121 0-.159 0-.167-.098-.138.073-.48.475-.63.85-.772.552-.209 1.14-.209 1.73-.142-.496.058-.995.121-1.459.313-.573.242-.938.626-.93 1.281M13.372 11.887c-.138.338-.004.69-.037 1.031-.012.126.078.288-.13.343-.012-1.207-.219-2.384-.52-3.544.017-.125-.073-.309.171-.317.22.342.28.73.354 1.118.032.368.158.718.235 1.077.016.109.024.217-.077.297zM5.79 24.9c-.195.018-.28-.183-.471-.229.122.439.43.76.621 1.14-.036 0-.089.012-.101 0-.59-.835-1.085-1.703-.886-2.78.09-.496.419-.88.675-1.302.065-.02.105-.013.073.067-.228.417-.524.801-.602 1.285-.11.672.017 1.244.679 1.599.032.07.053.142.016.217zM11.645 30.168c.085-.062.175-.037.264-.008.545.914 1.004 1.861 1.236 2.9.044.084.04.155-.066.192-.235-.175-.24-.467-.337-.705-.183-.455-.504-.855-.589-1.348-.17-.342-.337-.689-.508-1.03"/><path fill="#f7efda" d="M13.063 33.236c.073-.038.07-.109.082-.171.138-.505-.041-.99-.09-1.482-.11-1.148-.268-2.291-.402-3.44-.037-.32-.057-.646-.085-.972.056-.066-.02-.17.069-.23.17.473.101.973.166 1.462.155 1.135.252 2.283.378 3.422.049.422.11.847.167 1.269-.02.075-.045.15-.065.225-.073.075-.065.326-.264.113-.02-.071-.017-.138.048-.192zM1.13 2.876c-.212-.02-.358-.22-.586-.2-.256-.18-.418-.421-.544-.722.053.013.077.008.085.02.679.819 1.524.915 2.495.564.772-.28 1.491-.66 2.243-.98q.04.03.081.062c.008.109-.069.163-.15.2-.89.401-1.763.848-2.722 1.081-.317.08-.602-.041-.902-.025M12.88 13.582c.041-.1-.036-.23.082-.309-.029.367.093.714.113 1.073.045.371-.15.697-.207 1.052-.126.016-.106-.172-.231-.142.044-.23-.143-.401-.167-.614.098-.371.106-.743.045-1.144l.138.172c.093.104.036.233.057.35-.029.188-.045.376-.065.564q.026-.218.053-.443c.004-.05.016-.1.016-.15.016-.209-.061-.426.024-.63l.098.225c.06.309.016.622.053.89 0-.272-.05-.581-.009-.894M21.125 58.382c-.419 1.85-.8 3.702-.642 5.618-.269-1.945.073-3.827.572-5.697.053 0 .053.046.07.08M32.567 11.741c.036.005.077.013.113.017-.357.255-.768.388-1.186.488-1.325.33-2.507.91-3.478 1.866q-.037-.036-.073-.08a6.6 6.6 0 0 1 2.84-1.685c.605-.18 1.207-.351 1.784-.61z"/><path fill="#f7efda" d="M13.063 33.236q-.001.114-.008.23c-.17.016-.13-.147-.199-.218-.22-.396-.41-.805-.618-1.206l-.036-.138c-.13-.112-.248-.233-.22-.425-.012-.134.114-.188.171-.28.386.643.736 1.302.91 2.033z"/><path fill="#f7efda" d="M12.905 33.24c.053.075.101.15.154.221.134.038.081-.196.224-.15 0 .693.15 1.369.272 2.05.02.12.024.245.036.37l-.755-2.34c.048-.038.008-.118.069-.151M24.79 7.739c.495-.476 1.109-.639 1.763-.672.366-.017.74-.03 1.093.108-.414.025-.829.025-1.24.08-.446.058-.857.258-1.283.396-.11.038-.212.113-.337.088zM24.261 28.202s.041 0 .057.004c.159.476.163.977.216 1.466.101.872.162 1.748.24 2.625-.025.029-.033.075-.078.083l-.22-2.053q-.108-1.065-.219-2.129zM12.633 26.938c-.025.075-.045.154-.07.23q-.076-1.134-.154-2.267c.102-.651-.02-1.302 0-1.953.008-.234-.077-.476.045-.706.057 1.565.118 3.13.174 4.696zM21.125 58.382a1 1 0 0 1-.07-.08c.297-1.31.614-2.612 1.033-3.889.024.025.044.054.069.08-.346 1.297-.687 2.591-1.032 3.89M34.773 9.671c-.016-.067-.26-.067-.057-.192a1 1 0 0 0-.102-.033c.057-.063.135-.063.208-.063.268.004.516.092.58.367.07.301-.182.384-.418.451-.06-.117-.244-.02-.292-.162.028-.213.235-.1.341-.18.049 0 .008-.025 0-.017-.098.055-.183.059-.187-.092a.3.3 0 0 1 .183-.02c-.081-.025-.187.033-.248-.059zM12.933 26.558c.077-.075.049-.18.065-.271q.151 1.495.309 2.996c-.02.038-.024.088-.077.105a33 33 0 0 1-.297-2.83"/><path fill="#f7efda" d="M24.696 32.384c.024-.029.053-.054.077-.083l.22 3.134c-.04 0-.086.005-.126.009zM29.556 41.007c-.854.63-1.613 1.357-2.32 2.137a.11.11 0 0 1-.07-.07.26.26 0 0 1 .078-.201c.394-.438.76-.902 1.24-1.26.251-.16.434-.401.694-.547.105-.059.187-.172.333-.109q.026.02.045.046zM5.79 24.9c-.045-.07-.114-.137-.016-.216.48.209.97.392 1.393.705-.117.042-.296-.117-.353.109-.39-.117-.65-.455-1.024-.597M25.854 45.298a26 26 0 0 0-1.02 2.354c.008-.36.171-.677.293-1.002.183-.48.317-.985.613-1.42.057-.007.09.014.11.064zM31.262 8.832c.147-.058.317.046.455-.058.821.05 1.614.213 2.361.563-.544-.13-1.085-.271-1.637-.359-.395-.062-.797-.012-1.179-.146M22.652 21.779h.037c.11.367.337.71.223 1.119-.182-.434-.491-.81-.56-1.29.057-.034.105-.03.142.03 0 .108.069.137.158.137zM12.832 9.4c-.114.075-.061.225-.147.317-.138-.154-.15-.359-.227-.538.11-.126.028-.238-.02-.35-.09-.222-.163-.447-.11-.694.036-.012.081-.025.105.009.244.384.447.784.399 1.26zM21.316 61.867c.008.697-.045 1.39 0 2.087-.139-.793-.252-1.582-.065-2.383.097.083 0 .204.065.296M26.846 42.585q.028.04.056.08c.094.112.009.212-.04.304-.3.593-.565 1.202-.837 1.811-.033.05-.07.088-.138.08a.38.38 0 0 1 .012-.25c.305-.677.565-1.378.947-2.021zM14.416 54.15c-.028-.03-.057-.054-.085-.083l.244-2.208c.028.029.057.054.085.083l-.244 2.212zM16.074 39.901c.024-.12-.016-.292.211-.25-.09.555.07 1.068.285 1.573-.346-.208-.321-.58-.415-.897-.04-.138.033-.3-.081-.426"/><path fill="#f7efda" d="m27.236 43.148-.955 1.37a.13.13 0 0 1-.061-.084c.22-.518.455-1.019.963-1.336q.023.027.053.046zM9.41 28.766c.46.325.915.65 1.211 1.14-.434-.351-.865-.702-1.21-1.14M15.253 48.8l.086.304q-.014.644-.029 1.294c-.073.025-.101.008-.085-.071.004-.51-.057-1.018.028-1.528"/><path fill="#f7efda" d="M15.225 50.327q.042.035.085.071c-.036.48-.077.96-.114 1.444a4 4 0 0 1 .033-1.51zM11.982 31.479l.22.425c-.22-.041-.244-.25-.35-.384-.219-.288-.422-.584-.63-.876.285.03.313.313.472.463.114.109.195.25.292.376zM13.23 29.384c.024-.034.049-.072.077-.105.049.472.102.943.15 1.41-.024.034-.053.068-.077.101-.069-.467-.15-.935-.146-1.41zM22.36 19.325c-.179-.505-.313-1.018-.321-1.561.174.51.264 1.04.374 1.565h-.029l-.028-.008zM25.354 12.797c-.121.31-.447.418-.646.651-.134.155-.296.284-.447.426.24-.484.67-.776 1.093-1.077M12.905 33.24c-.008.058 0 .121-.07.15-.174-.459-.491-.86-.593-1.348.313.35.431.806.667 1.198zM25.887 44.855l.065-.079c.113-.08.093-.288.284-.296a.1.1 0 0 1 .04.037l-.426.78-.11-.062c-.126-.192.159-.23.143-.38zM5.7 21.796l-.072-.067c.17-.355.34-.705.459-1.077-.02.418-.147.801-.39 1.148zM21.718 18.632c-.008.038 0 .071.04.083.005.067.013.138.017.205-.025 0-.045.008-.07.013-.125-.414-.251-.823-.377-1.236l.077-.025c.101.322.207.639.309.96zM34.176 36.813c0-.046.008-.092.008-.138.069-.1.175-.154.288-.192.077.008.159.012.175.113-.085.22-.179.43-.488.321-.016-.038-.012-.075.02-.104zM15.33 52.91q.039.083.078.16c-.05.3-.094.6-.143.897-.073.016-.113 0-.089-.084-.004-.334.081-.651.15-.977zM21.316 61.867c-.02-.1-.041-.196-.065-.296.032-.292-.013-.597.117-.877h.061c-.036.393-.077.78-.113 1.173M23.672 13.67c.134-.322.273-.647.407-.969-.033.35-.159.668-.33.973q-.04.05-.077 0zM22.494 21.641q-.075-.014-.142-.029l-.098-.213c-.126-.142-.264-.28-.183-.496.008-.059.033-.096.098-.092.057.225.17.421.276.626.037.067.073.13.049.208zM17.265 36.479l-.118.146c0-.326-.11-.63-.207-.94.186.234.308.493.325.798zM23.4 10.552c-.02-.025-.04-.046-.061-.071.081-.246.236-.45.386-.664q.06-.044.114.013l-.435.722zM11.23 10.598c.216.233.37.509.37.843-.121-.28-.247-.56-.37-.843M21.01 16.545c-.109-.292-.182-.592-.133-.914l.207.843a.12.12 0 0 1-.07.071z"/><path fill="#f7efda" d="M23.835 9.83c-.037 0-.073-.009-.114-.013.118-.25.325-.425.512-.626-.07.25-.256.43-.398.639M15.53 51.688c.154.342-.057.66-.086.989 0 0-.02.008-.032.008s-.02-.012-.033-.02l.146-.977zM15.18 53.887c.029.03.057.054.09.084l-.135.763c-.069-.033-.069-.104-.089-.162.016-.234.049-.464.138-.685zM21.889 16.762c.028.3.138.497.06.726-.032-.208-.178-.4-.06-.726M22.193 19.6c.179.15.02.38.126.547q-.04-.001-.081-.008c-.081.05-.049.15-.134.213l.085-.752zM21.125 19.196c.174.087.252.23.207.434zM22.071 20.903c-.008.192.142.325.183.496-.276-.104-.244-.384-.35-.588q0-.055.054-.042c.036.046.077.088.113.134"/><path fill="#f7efda" d="M21.9 20.81c-.141-.179-.194-.392-.247-.604.138.17.26.346.3.563q-.023.027-.052.042M12.612 18.908l.057-.547c.085.233.102.467.024.697q-.038-.075-.077-.15zM21.01 16.545q.039-.036.07-.07c.053.22.11.446.162.667-.158-.175-.203-.384-.235-.6zM22.445 21.433c-.19-.167-.268-.38-.276-.626.118.196.26.384.276.626M23.672 13.67h.077q-.09.306-.186.613c-.09-.234.073-.409.11-.613M7 26.984c.249.02.375.208.517.371-.24-.03-.37-.209-.516-.371M6.135 26.078c.171.142.37.255.415.497-.163-.146-.386-.242-.415-.497M8.854 28.328c.207.091.378.23.516.404-.24-.054-.427-.17-.516-.404M10.613 29.901c.228.071.325.276.451.447-.252-.05-.357-.242-.45-.447M12.186 12.827v.095c-.15-.17-.167-.38-.183-.592.117.146.17.313.178.496zM24.737 21.77c-.049.268-.073.543-.3.74-.147.045-.107-.097-.16-.143-.024.013-.036.026-.044.05-.037.117-.016.247-.106.343-.044.037-.093.058-.154.033-.122-.288.069-.542.093-.814l.078-2.358h.048l.061 2.196h.02c.02-.242.045-.485.066-.73h.056l-.032.963c.085-.496.093-1.001.26-1.481.17.22.045.467.065.7.012.134-.012.268-.004.402a.2.2 0 0 0 .049.091zM23.684 23.553c-.235-.213-.223-.522-.304-.793-.082-.267-.13-.543-.191-.814.13-.02.187.08.256.167.101-.259-.082-.51.008-.839.134.505.252.93.366 1.36.052.322.203.64.065.977-.175.009-.147-.142-.171-.233-.061-.255-.122-.506-.167-.802.029.36.195.651.138.981zM25.257 18.244c.24-.872.544-1.715 1.036-2.483-.321.822-.711 1.615-.902 2.483a.09.09 0 0 1-.065.046.1.1 0 0 1-.07-.042z"/><path fill="#f7efda" d="M24.692 21.77c-.158-.179-.028-.383-.049-.575-.02-.205-.008-.41-.012-.618.008-.668.118-1.323.24-1.974.073-.013.106.008.077.087l-.146 1.303c-.073.592-.033 1.19-.11 1.782z"/><path fill="#f7efda" d="M24.948 18.69c-.024-.029-.053-.058-.077-.087.09-.68.305-1.332.508-1.987q.042-.037.085 0c-.17.693-.345 1.382-.516 2.075M24.07 21.98l-.036.822c.179.233.09.513.138.768.012.066-.02.162-.102.17-.122.013-.097-.112-.125-.183-.102-.43-.167-.856-.029-1.29.118-.062.032-.23.154-.288"/><path fill="#f7efda" d="M23.92 22.267q-.08.643.09 1.273a.4.4 0 0 1-.045.071.07.07 0 0 1-.077 0c-.029-.325-.18-.643-.07-.976l.025-.718h.057l.024.354zM24.692 21.77c0-.596-.028-1.193.11-1.782.024.03.049.055.069.084l-.134 1.699h-.049zM25.281 19.045c-.097.472-.199.943-.296 1.415h-.033l.02-.61q.042-.173.09-.354c-.004-.184.008-.359.097-.526.07-.02.102.017.126.075z"/><path fill="#f7efda" d="M25.204 18.966c-.126.154-.04.367-.15.53-.187-.204 0-.396.028-.593.033-.225.114-.442.17-.66.03 0 .054 0 .082.005.065.259-.053.484-.134.718zM25.464 16.616h-.085c.081-.271.19-.53.378-.751-.065.263-.147.522-.293.751"/><path fill="#f7efda" d="m25.204 18.966.134-.718a.2.2 0 0 0 .053-.008q.03.036.06.07c-.056.247-.113.489-.174.735zM24.534 23.62c-.094.304-.26.567-.472.805-.101.046-.178 0-.178-.1.004-.217.036-.434.056-.651q-.042-.027-.024-.046c.008-.017.02-.02.029-.02q.03-.035.06-.068c.013.046.02.092.033.138.065-.292-.061-.584 0-.876.024-.026.049-.046.073-.071.093.233.09.48.106.726-.008-.388-.118-.785-.004-1.173.024 0 .044.004.069.008.142.36.069.74.11 1.106.11.038.044.184.146.23z"/><path fill="#f7efda" d="M23.945 23.607v.071c-.139.067-.236.046-.256-.121-.029-.338-.204-.655-.135-1.01.15.346.126.739.334 1.064h.06zM24.046 27.497c-.02-.104-.045-.209-.065-.313.264.08.33.305.41.517-.19.059-.24-.125-.345-.204M15.753 10.96c-.504.802-1.166 1.503-1.552 2.38-.057.125-.146.058-.228.058-.069-.33.24-.588.187-.914-.004-.271.049-.517.313-.668.272-.183.317-.509.496-.755.085-.117.138-.367.297-.28.182.1 0 .292-.074.426a9 9 0 0 1-.357.626c.154-.263.32-.522.455-.797.126-.255.276-.271.463-.071z"/><path fill="#f7efda" d="M14.542 11.842c-.264.133-.264.421-.382.638-.146-.238-.093-.492-.057-.743.013-.083.041-.154-.089-.092-.065-.029-.053-.083-.057-.137.033-.096.024-.21.114-.284.126-.267.093-.58.264-.83.179-.013.122.124.13.204.016.188-.06.363-.098.538.061-.313.228-.626-.028-.93a.8.8 0 0 1 .159-.68c.121.124.11.224.065.333h.032a3.8 3.8 0 0 1 .134-1.027c.025-.079.04-.196.155-.183.11.012.105.125.117.212.008.076-.008.15-.02.226-.15.818-.223 1.653-.512 2.441.065-.225.138-.45.203-.676.02-.07.029-.167.13-.15.09.017.106.113.098.184-.04.342-.138.668-.354.947zM13.372 8.536c.167.835.297 1.678.382 2.525.012.113-.004.23.06.33.11.254-.088.488-.052.747.024.163-.13.083-.215.046-.244-.3-.147-.66-.106-.973.077-.65-.04-1.273-.146-1.899-.077-.45-.252-.897-.13-1.406.284.188.211.417.203.634z"/><path fill="#f7efda" d="M13.388 9.291c.2.772.256 1.553.11 2.342a1 1 0 0 0 .053.55q-.036.407-.077.815h-.065l-.037-1.11c0-.1-.008-.2-.008-.297-.049-.113-.033-.225-.025-.342-.032-.514-.032-1.023-.06-1.536-.009-.146-.02-.305.105-.422zM14.002 11.47c0 .058.008.121.012.18-.008.05-.02.095-.028.146h-.07l-.056-1.824c-.025-.084.02-.1.093-.096.07.046.11.112.138.188.049.471.073.943-.085 1.406z"/><path fill="#f7efda" d="M13.937 9.888q-.04.045-.077.088h-.057q-.001-.149-.008-.305c.044-.446-.025-.889-.013-1.335 0-.088-.113-.268.126-.26.139.602.216 1.203.029 1.808zM16.281 49.375c-.329-.158-.101.247-.292.247.02-.484.085-.973.187-1.453.04.105.077.209.142.384.093-.28.162-.5.248-.718.036-.096-.012-.288.211-.217-.163.585-.33 1.173-.492 1.757zM14.977.735c-.106.084-.195.059-.313 0-.756-.342-1.54-.48-2.369-.304-.207.046-.41-.017-.613-.046 1.141-.259 2.267-.397 3.295.35M12.088 7.751c-.154-.446-.48-.805-.634-1.256.317.463.72.885.788 1.477zM24.387 23.39l-.11-1.106c.183-.017.021.209.16.225zM9.167 8.77q-.202-.24-.403-.472c.277.225.622.38.748.743-.126-.08-.293-.1-.341-.267zM28.528 41.68c-.13-.101-.07-.172.028-.251.366-.292.723-.601 1.154-.806.183.255-.166.205-.195.334-.366.188-.638.505-.983.718zM34.866 9.767c.045.109.163.034.232.096-.106.13-.293.075-.406.176-.114-.009-.24.041-.321-.067-.013-.017.073-.1.113-.15.134.02.236-.18.386-.055z"/><path fill="#f7efda" d="M34.866 9.767c-.138-.054-.235.175-.386.054.061-.12.195-.1.293-.15l.325.038c-.07.1-.158.046-.236.058zM33.566 37.36c-.122-.163.073-.122.122-.172.126-.13.337-.163.418-.346.025-.013.045-.021.07-.033 0 .045.008.095.012.141-.179.176-.41.276-.622.405zM12.88 13.582l.029.901h-.045c-.008-.3-.02-.6-.028-.905h.044zM12.738 13.357v.667q-.024-.001-.049.005c-.012-.121-.02-.243-.032-.364l.012-.454c-.024-.046.065-.026.04.008-.02.029.017.087.025.133zM33.416 32.593c.138-.05.134-.25.325-.28-.04.205-.256.343-.187.572-.102-.083-.106-.196-.134-.296zM13.12 10.514c.122-.367-.077-.71-.097-1.068-.009-.146-.07-.292-.009-.489.244.785.22 1.566.362 2.317 0 .104-.008.209-.012.313-.114-.35-.24-.701-.244-1.077z"/><path fill="#f7efda" d="M12.685 14.029s.033 0 .05-.005c.044.213-.017.418-.086.618-.029-.204-.09-.413.036-.614M24.209 22.28q.025.64.044 1.281-.03-.001-.06.004-.045-.42-.086-.838c.033-.15 0-.314.102-.447M23.802 26.725c-.122-.188-.211-.384-.15-.706.065.301.106.501.15.706M14.006 10.034q-.034-1.281-.07-2.57c-.011-.084-.125-.197.066-.222.077 1.336.142 2.671.13 4.007q-.069.11-.13.221v-1.436zM14.351 10.414c-.008-.062 0-.121.057-.163.012.075.163-.02.142.109-.053.325-.028.668-.215.956-.114-.3.28-.597.02-.906zM13.547 7.246c-.033-.246-.07-.492-.102-.734l.065-.013c.122.53.24 1.056.362 1.586-.126.38-.012.768-.045 1.152-.012.146.053.3-.037.443-.064-.756 0-1.52-.174-2.263-.012-.058-.049-.112-.073-.167z"/><path fill="#f7efda" d="M14.002 7.242c-.02.075-.045.146-.065.221-.159-.492-.142-1.014-.24-1.515-.122-.626-.22-1.256-.382-1.874.37 1.027.606 2.083.69 3.168zM11.743 4.467c.243.23.418.492.438.83z"/></svg>