<svg width="36" height="64" viewBox="0 0 36 64" fill="none" xmlns="http://www.w3.org/2000/svg">
<path d="M23.9567 14.1621C23.9526 14.208 23.9648 14.2664 23.9404 14.2998C23.0343 15.5561 22.7865 16.9918 22.7458 18.486C22.7174 19.6588 22.884 20.8107 23.1846 21.9418C23.3959 22.2465 23.4163 22.6138 23.5219 22.9518C23.5747 23.1146 23.5991 23.2899 23.6966 23.436C23.7738 23.5028 23.7047 23.724 23.9242 23.6488C24.0339 23.7949 24.0582 23.9577 24.0054 24.1246C23.9607 24.2707 24.0257 24.3751 24.1029 24.4794C24.1111 24.6505 24.0135 24.7841 23.9323 24.9176C23.4122 25.7565 23.4691 26.5704 24.0501 27.3592C24.172 27.4511 24.2005 27.714 24.4524 27.5763C24.7856 27.1422 24.8709 26.6497 24.8424 26.1197C24.7856 25.1055 24.6677 24.0954 24.753 23.077C24.7652 22.9435 24.753 22.8057 24.8343 22.6889C24.8668 22.6513 24.9034 22.6472 24.9481 22.6722C24.8912 23.7699 25.0253 24.8592 25.1147 25.9527C25.1594 26.5287 25.1797 27.1088 24.8871 27.6472C24.8181 27.7724 24.8465 27.9143 24.8668 28.0479C25.1919 30.3434 25.3991 32.6473 25.5291 34.9595C25.6591 37.3135 25.6754 39.6633 25.5169 42.0172C25.391 43.8995 25.0944 45.7568 24.7002 47.5974C24.5824 48.1484 24.4442 48.6993 24.2817 49.2377C24.1436 49.2711 23.9932 49.3212 24.0704 49.0749C24.2533 48.261 24.4361 47.4472 24.6149 46.6333C25.0293 44.751 25.2366 42.8436 25.3341 40.9195C25.5251 37.1799 25.3463 33.4528 24.9521 29.7299C24.8871 29.1164 24.8221 28.507 24.749 27.8392C24.6271 28.0312 24.2736 27.8517 24.3102 28.2065C24.2898 28.2274 24.2695 28.2274 24.2533 28.2023C24.2411 28.0938 24.233 28.002 24.1354 27.9143C23.2822 27.1464 23.0709 26.2616 23.5056 25.2265C23.5788 25.0512 23.5707 24.9093 23.4853 24.7423C23.2984 24.3834 23.1359 24.0119 22.9612 23.6488C23.1278 23.4527 22.8555 23.2607 22.953 23.0687C22.9409 23.0144 22.9246 22.9602 22.9124 22.9059C22.8474 22.5261 22.7093 22.163 22.6524 21.7832C22.6402 21.2907 22.3964 20.8566 22.2907 20.3892C22.2704 20.3057 22.2542 20.2264 22.2379 20.1429C22.2704 20.1179 22.307 20.1137 22.3476 20.1346C22.5386 20.3934 22.5142 20.7064 22.6158 20.9192C22.5752 20.7147 22.4776 20.4518 22.4208 20.1805C22.3639 19.9092 22.2217 19.6463 22.3232 19.3541C22.3517 19.3166 22.3842 19.3124 22.4208 19.3374C22.4248 19.3625 22.4289 19.3875 22.4411 19.4084C22.4898 19.4877 22.5142 19.4418 22.5061 19.3875C22.4858 19.1913 22.4533 18.9993 22.433 18.8032C22.2623 17.117 22.0266 15.4309 22.3111 13.7322C22.502 12.5969 22.7865 11.4992 23.3431 10.4809C23.4081 10.4683 23.4447 10.4767 23.4041 10.5518C22.1485 13.0727 22.242 15.7481 22.5142 18.3316C22.6321 17.5052 22.7702 16.5786 23.0831 15.6854C23.2781 15.122 23.5707 14.6128 23.9607 14.1621H23.9567Z" fill="#F7EFDA"/>
<path d="M14.0912 13.92C13.8433 14.5252 13.5995 15.1303 13.3395 15.7314C13.2664 15.8983 13.2664 16.0277 13.3476 16.1946C13.7418 16.9918 13.693 17.7264 12.9698 18.3399C12.8479 18.4443 12.8844 18.5736 12.8763 18.6863C12.7463 20.4894 12.7788 22.2924 12.8763 24.0996C12.9169 24.83 12.9535 25.5604 12.9941 26.2908C13.0023 26.3868 13.1079 26.5078 12.9291 26.5621C12.7138 24.3709 12.6609 22.1713 12.6488 19.9718C12.6488 19.6671 12.6731 19.3666 12.6894 19.062C12.73 18.8491 12.6691 18.6237 12.7138 18.4067C12.6853 18.5736 12.7341 18.7656 12.6122 18.9117C12.5228 20.0219 12.4578 21.1363 12.4578 22.2507C12.4212 23.0311 12.5025 23.8116 12.5025 24.5921C12.5025 24.6964 12.6081 24.8509 12.409 24.9051C12.2587 22.7974 12.2302 20.6855 12.4497 18.5778C12.47 18.3983 12.4497 18.2648 12.344 18.1271C12.084 17.7723 11.9905 17.3674 12.019 16.9417C12.0718 16.132 12.1002 15.3265 12.0515 14.5168C12.084 14.4918 12.1205 14.4876 12.1571 14.5043C12.3806 15.0719 12.409 15.6604 12.3359 16.2531C12.2546 16.8708 12.4497 17.4134 12.7016 17.9685C13.3517 17.1504 13.3801 16.6704 12.86 15.8607C12.7503 15.6938 12.5959 15.5435 12.5919 15.3265C12.6 15.2889 12.6203 15.2597 12.6528 15.2389C12.7503 15.2514 12.8194 15.2889 12.8113 15.3975C12.8397 15.0344 12.9047 14.6796 13.0713 14.3499C13.2501 14.0035 13.1729 13.6278 13.2054 13.2647C13.3314 12.9433 13.2176 12.6178 13.242 12.2922C13.2542 12.1503 13.177 11.9834 13.3395 11.8749C13.5427 11.95 13.4573 12.1253 13.4736 12.263C13.498 12.4425 13.4289 12.622 13.4533 12.8181C13.4451 12.6136 13.4817 12.43 13.4898 12.2422C13.7296 11.9709 13.7255 11.6453 13.7255 11.3156C13.7377 10.8774 13.628 10.4433 13.7458 10.0092C13.7702 9.97167 13.8068 9.95081 13.8515 9.95081C13.9977 10.0551 13.9734 10.2137 13.9856 10.3598C14.014 10.7605 13.9937 11.1653 14.0384 11.566C14.27 11.5368 14.205 11.7038 14.1887 11.8081C14.1521 12.0335 14.1765 12.2463 14.2456 12.4592C14.3472 12.8014 14.0424 13.0644 14.0506 13.3857C14.0506 13.5652 14.0302 13.7447 14.0953 13.92H14.0912Z" fill="#F7EFDA"/>
<path d="M14.0912 13.92C13.8312 13.7948 13.9896 13.5777 13.9734 13.3983C14.3797 12.9099 14.6357 12.3256 15.0257 11.8248C15.2573 11.5243 15.4686 11.2113 15.6962 10.9024C16.5535 9.76299 17.5693 8.73627 18.2926 7.49668C18.6786 6.83307 18.9914 6.14023 19.0808 5.37228C19.1661 4.62936 18.9467 3.9574 18.3251 3.57342C17.0898 2.80964 16.0172 1.8789 14.9973 0.873046C14.9607 0.835483 14.916 0.814615 14.8713 0.781225C14.1115 0.255341 13.2582 0.230299 12.3846 0.35551C12.1449 0.388899 11.893 0.388899 11.6614 0.48072C10.6619 0.697751 9.65418 0.839657 8.63025 0.84383C7.53318 0.848004 6.48081 1.10677 5.46907 1.51579C5.30248 1.58257 5.14402 1.67439 4.95305 1.67439C4.88397 1.66187 4.8149 1.64935 4.8149 1.55753C6.09481 0.939825 7.43567 0.568367 8.86998 0.564194C9.9386 0.564194 10.9666 0.292904 12.0108 0.11761C13.0957 -0.0618588 14.1806 -0.124464 15.1233 0.593409C15.3549 0.772878 15.5743 0.973215 15.7652 1.19025C16.4113 1.92481 17.167 2.5133 18.0163 3.01832C19.2677 3.76123 19.6131 4.65858 19.2271 6.04424C19.0686 6.62021 18.8167 7.15861 18.5038 7.67198C18.1503 8.24794 17.7603 8.79887 17.3214 9.31641C16.1025 10.7563 14.9688 12.2547 14.0871 13.9158L14.0912 13.92Z" fill="#F7EFDA"/>
<path d="M31.2623 8.83226C29.7792 8.82809 28.3734 8.43576 26.9797 7.985C26.8497 7.94326 26.7115 7.93074 26.5815 7.9057C25.5291 7.79719 24.5214 7.90988 23.6032 8.46498C23.079 8.76548 22.6524 9.17868 22.242 9.60856C21.2587 10.6395 20.1819 11.5744 19.1052 12.5093C18.5282 13.0101 18.0366 13.5819 17.8944 14.3582C17.7765 15.001 17.8293 15.6354 18.0366 16.2614C18.0569 16.3407 18.0894 16.4242 17.9512 16.4284C17.4921 15.3682 17.5043 13.9283 18.4388 12.9266C18.7598 12.5844 19.1011 12.2589 19.4709 11.9625C20.6045 11.0485 21.6162 10.0092 22.6564 8.99921C23.4772 8.20203 24.4077 7.63441 25.6144 7.61772C26.2727 7.60937 26.9147 7.71789 27.5201 7.95579C28.8731 8.49002 30.2953 8.65279 31.7255 8.76965C31.5995 8.96582 31.4248 8.82809 31.2704 8.82809L31.2623 8.83226Z" fill="#F7EFDA"/>
<path d="M15.2533 48.7994C15.2045 46.6876 15.0542 44.584 14.8226 42.4888C14.5869 40.3436 14.3025 38.2025 14.0384 36.0572C13.819 34.3042 13.5995 32.5513 13.3801 30.7984C13.4045 30.765 13.4086 30.7149 13.4573 30.6982C13.5833 31.6247 13.7133 32.5471 13.8393 33.4737C14.0912 35.3268 14.3431 37.1757 14.595 39.0289C15.0542 42.372 15.4077 45.7234 15.3386 49.1083C15.1476 49.0499 15.2492 48.9163 15.2533 48.8036V48.7994Z" fill="#F7EFDA"/>
<path d="M12.4619 9.1745C11.4867 6.75376 9.76388 4.94656 7.60226 3.49412C6.91964 3.03501 6.22077 2.61765 5.3553 2.56756C4.82302 2.53417 4.33544 2.67608 3.84379 2.84302C3.18962 3.06423 2.5395 3.33969 1.81625 3.25205C1.32867 3.18944 0.897968 3.02249 0.548533 2.68025C0.792325 2.52582 0.95079 2.78877 1.15801 2.80129C1.97065 3.13518 2.77111 2.9891 3.52686 2.65521C4.90429 2.04585 6.15576 2.25871 7.37472 3.04753C8.86998 4.01166 10.2474 5.09681 11.3242 6.51587C11.6086 6.8915 11.8402 7.30052 12.1165 7.68032C12.1896 7.76797 12.2506 7.85979 12.3074 7.95996C12.344 8.02674 12.3806 8.08934 12.4009 8.16447C12.409 8.38985 12.474 8.60271 12.5472 8.81139C12.5919 8.94077 12.6772 9.0952 12.4659 9.17867L12.4619 9.1745Z" fill="#F7EFDA"/>
<path d="M24.9521 22.6764C24.9278 22.6764 24.9034 22.6764 24.879 22.6764C24.8709 22.668 24.8587 22.6597 24.8546 22.6513C24.8465 22.6179 24.8384 22.6138 24.8384 22.643C24.8059 22.9977 24.8506 23.3817 24.5214 23.6488C24.3792 23.6029 24.363 23.4777 24.3264 23.365C24.298 23.0937 24.2939 22.8224 24.363 22.5512C24.5133 22.2882 24.6271 22.0128 24.6515 21.7081C24.6758 21.3032 24.6515 20.8942 24.7246 20.4894C24.749 20.3433 24.7612 20.193 24.8709 20.0803C24.8993 20.0052 24.8628 19.9009 24.9684 19.855C25.0578 20.0428 24.9765 20.2222 24.9765 20.3725C25.0415 19.951 25.0659 19.4877 25.1837 19.0411C25.2406 18.7865 25.2284 18.5069 25.4519 18.319C25.9314 16.6955 26.7156 15.2472 27.9427 14.0494C28.0117 14.0368 28.0402 14.0535 28.0158 14.1287C26.4921 15.7314 25.7445 17.6846 25.3422 19.8049C25.1634 20.7606 25.0659 21.7248 24.9521 22.6847V22.6764Z" fill="#F7EFDA"/>
<path d="M24.0786 49.0791C24.0623 49.2419 24.2248 49.1793 24.2898 49.2419C23.7413 51.2118 23.1887 53.1818 22.6442 55.156C22.1404 56.984 21.7016 58.8246 21.4334 60.6986C21.4131 60.7362 21.3928 60.7362 21.3725 60.6986C21.4375 59.651 21.6569 58.6285 21.8641 57.6059C22.4411 54.7595 23.2578 51.9714 24.0217 49.1709C24.0298 49.1375 24.0582 49.1083 24.0786 49.0791Z" fill="#F7EFDA"/>
<path d="M12.1368 14.5085C12.1084 14.5085 12.0799 14.5085 12.0515 14.5126C11.9093 14.0535 11.9458 13.5694 11.8199 13.1061C11.381 11.4825 10.4018 10.2054 9.19097 9.06599C8.54492 8.45663 7.82573 7.9224 7.07404 7.26713C7.46004 7.38399 7.62257 7.65111 7.87855 7.76797C8.24424 7.89318 8.48397 8.19369 8.78465 8.41072C8.91467 8.50254 9.02844 8.62775 9.17065 8.70705C9.30068 8.7947 9.40226 8.91156 9.54447 8.97834C9.99548 9.23293 10.2515 9.667 10.5725 10.0426C10.6293 10.1052 10.6456 10.2096 10.7594 10.2137C11.4135 11.157 11.8321 12.1962 12.1084 13.2981C12.1409 13.4191 12.1734 13.5402 12.2099 13.6612C12.5065 13.9116 12.4334 14.2998 12.5716 14.6086C12.6203 14.8215 12.8032 15.0218 12.6325 15.2514L12.6081 15.2639C12.3562 15.2096 12.3318 14.9759 12.2424 14.8006C12.1977 14.7088 12.2221 14.5878 12.1368 14.5085Z" fill="#F7EFDA"/>
<path d="M34.4722 36.4829C35.2524 35.8527 34.9639 34.9345 34.4194 34.4253C34.1472 34.1707 33.8587 33.9328 33.5865 33.6824C33.4889 33.5905 33.3995 33.482 33.363 33.3443C33.3752 33.3109 33.3874 33.2775 33.3955 33.2441C33.4117 33.1648 33.4117 33.048 33.5052 33.048C33.6515 33.048 33.5539 33.2024 33.6108 33.2692C33.6596 33.6114 33.9359 33.7784 34.1756 33.9704C34.5941 34.3042 35.0126 34.6381 35.1467 35.1932C35.3011 35.836 35.0898 36.4078 34.7688 36.9462C34.1553 37.9771 33.2614 38.7367 32.2537 39.3711C31.3639 39.9304 30.4578 40.4604 29.5558 41.0072C29.5232 40.9905 29.507 40.9613 29.5111 40.9279C29.5273 40.8653 29.5639 40.7902 29.6167 40.786C29.8321 40.7776 29.6289 40.6441 29.6817 40.594C30.0352 40.2726 30.4822 40.0973 30.8925 39.8761C31.9246 39.3168 32.9282 38.7242 33.7449 37.8727C34.1025 37.5013 34.4682 37.134 34.5901 36.6123C34.5494 36.5706 34.4925 36.5413 34.4682 36.4871L34.4722 36.4829Z" fill="#F7EFDA"/>
<path d="M13.1648 58.0734C13.1363 57.2512 13.1282 56.4289 13.0673 55.6109C12.9291 53.7995 12.0677 52.4639 10.3084 51.7586C9.90609 51.5958 9.49165 51.4539 9.09752 51.2703C8.10203 50.8028 7.3544 49.5549 7.44379 48.453C7.48442 48.8746 7.56569 49.2043 7.69571 49.5215C8.05327 50.3896 8.68713 50.9739 9.60542 51.2661C9.93454 51.3704 10.2596 51.4915 10.5765 51.6292C12.0271 52.2678 12.8966 53.3571 13.1445 54.8889C13.3436 56.1284 13.3314 57.3805 13.2623 58.6285C13.1323 58.4615 13.2582 58.2487 13.1648 58.0734Z" fill="#F7EFDA"/>
<path d="M32.5666 11.7413C32.9282 11.4909 33.2898 11.2446 33.5946 10.8022C32.7819 11.253 31.9693 11.3281 31.1485 11.3323C29.9377 11.3365 28.7269 11.3114 27.5607 11.7288C27.0894 11.8957 26.6424 12.1086 26.1955 12.3173C26.1752 12.142 26.3418 12.142 26.4352 12.0919C27.6542 11.445 28.9585 11.1278 30.3481 11.1612C31.0713 11.1779 31.7986 11.1862 32.5097 11.0276C33.2086 10.8732 33.7855 10.556 34.1025 9.87568C34.2041 9.66282 34.3381 9.46666 34.6144 9.44579C34.8826 9.35814 34.6998 9.62526 34.7973 9.67534C34.7445 9.80473 34.5738 9.76299 34.5088 9.87151C34.5251 10.0051 34.6469 9.9675 34.7201 10.0051C34.8176 10.0593 34.9801 10.0301 34.9842 10.2054C34.2894 10.1303 33.8953 10.5143 33.558 11.0485C33.3548 11.3699 33.0339 11.5952 32.6844 11.7622C32.6397 11.7914 32.6032 11.7872 32.5707 11.7455L32.5666 11.7413Z" fill="#F7EFDA"/>
<path d="M16.7729 47.6141C16.9111 47.1091 17.0126 46.5999 17.0777 46.0615C17.1102 46.1241 17.1386 46.17 17.167 46.2201C17.5124 44.655 17.3458 43.1483 16.7079 41.6917C16.8948 41.6875 16.8786 41.8503 16.9233 41.9504C17.6628 43.6074 17.6384 45.3144 17.1467 47.0131C16.5779 48.9747 15.9603 50.9239 15.5093 52.9189C15.4971 52.9815 15.4808 53.0441 15.4117 53.0691C15.3427 53.0357 15.3792 52.9523 15.3345 52.9105C15.3142 52.8229 15.3345 52.7394 15.3874 52.6684C15.4849 52.3512 15.5824 52.0299 15.5336 51.6918C15.619 51.1868 15.7084 50.6818 15.7937 50.1768C16.005 50.2018 15.9278 50.3521 15.9156 50.4647C15.8871 50.6985 15.8181 50.9239 15.7571 51.1492C15.9156 50.5566 16.0009 49.943 16.1837 49.3587C16.3341 48.7661 16.5088 48.1776 16.7729 47.6225V47.6141Z" fill="#F7EFDA"/>
<path d="M16.2813 49.3754C16.1147 49.9931 15.9481 50.6108 15.7612 51.2995C15.6596 50.8738 15.9806 50.5274 15.7937 50.1726C15.9684 48.7034 16.1959 47.2385 16.2122 45.7527C16.2203 44.9012 16.0334 44.0832 15.9034 43.2568C15.8628 42.998 15.8181 42.7393 15.7734 42.4805C15.7937 42.0172 15.7205 41.5581 15.7165 41.0948C15.7165 40.7735 15.7937 40.4729 15.8668 40.1683C15.8912 40.0723 15.9359 39.9763 16.0659 39.9679C15.9643 40.7442 15.8953 41.5247 16.0131 42.301C16.1106 42.9605 16.265 43.6116 16.3219 44.2793C16.4032 45.1809 16.3097 46.0699 16.2772 46.963C16.2609 47.3637 16.2122 47.7686 16.1756 48.1692C16.2488 48.6659 16.1065 49.1459 16.0172 49.63C16.0293 49.5131 16.009 49.3838 16.0903 49.2919C16.2244 49.1375 16.2366 49.3003 16.2813 49.3754Z" fill="#F7EFDA"/>
<path d="M17.9472 16.4284C17.9756 16.3741 18.0041 16.3157 18.0325 16.2614C18.5729 17.7306 19.5928 18.8783 20.6045 20.0344C21.405 20.9485 22.1567 21.8959 22.7905 22.931C22.8271 22.9936 22.8637 23.0645 22.953 23.0645C22.9937 23.1647 23.0099 23.2941 23.0831 23.3608C23.3269 23.5862 23.0831 23.5862 22.9612 23.6447C21.8885 21.6246 20.2307 20.0261 18.8817 18.2064C18.4795 17.6638 18.1219 17.0878 17.9431 16.4242L17.9472 16.4284Z" fill="#F7EFDA"/>
<path d="M14.3594 40.185C14.7129 42.7309 14.9363 45.2852 14.9242 47.8562C14.9201 49.221 14.8226 50.5816 14.66 51.9381C14.5869 51.9548 14.5503 51.9381 14.5747 51.8546C14.7779 49.4965 14.8348 47.1341 14.6641 44.7718C14.5625 43.3486 14.4122 41.9296 14.2862 40.5063C14.2862 40.3937 14.1643 40.2517 14.3594 40.1808V40.185Z" fill="#F7EFDA"/>
<path d="M22.0876 54.413C22.4248 53.0149 22.8799 51.6501 23.2781 50.2686C24.0014 47.756 24.5214 45.2017 24.7571 42.5974C24.944 42.7434 24.8221 42.9187 24.8099 43.0815C24.8059 44.0206 24.6068 44.9388 24.4524 45.857C23.9729 48.7327 23.0384 51.4915 22.2095 54.2753C22.1892 54.3463 22.177 54.4172 22.1607 54.4923C22.0957 54.5049 22.0551 54.4923 22.0916 54.413H22.0876Z" fill="#F7EFDA"/>
<path d="M26.8456 42.5848C27.4957 41.2659 28.1458 39.9512 29.3282 38.9913C30.1571 38.3193 31.1282 37.902 32.1196 37.5222C32.8144 37.255 33.5214 37.0171 34.1837 36.6791C34.2284 36.725 34.2325 36.7792 34.2122 36.8377C34.1919 36.8711 34.1634 36.8961 34.1309 36.917C33.1761 37.3928 32.1562 37.7225 31.1973 38.1858C30.8722 38.3402 30.5512 38.503 30.2465 38.6866C29.0722 39.3294 28.2921 40.3269 27.6542 41.4621C27.4185 41.8753 27.2479 42.3302 26.9228 42.6933C26.8619 42.685 26.8131 42.6683 26.8497 42.5932L26.8456 42.5848Z" fill="#F7EFDA"/>
<path d="M13.2664 59.5801C13.3354 59.7554 13.242 59.964 13.4208 60.1644C13.6646 58.5283 13.8962 56.9298 14.144 55.3313C14.209 54.9097 14.2009 54.4798 14.3309 54.0666C14.3837 54.0708 14.3878 54.1209 14.4163 54.1501C14.0059 57.368 13.4411 60.5609 12.9169 63.7621C12.856 63.4992 12.9535 63.2446 12.9779 62.99C13.0266 62.4891 13.0632 61.9925 13.1038 61.4916C13.181 60.9824 13.1445 60.4732 13.1404 59.9641C13.1404 59.8305 13.0551 59.6552 13.2664 59.5801Z" fill="#F7EFDA"/>
<path d="M10.5765 28.724C10.7106 28.8576 10.8447 28.9911 10.9788 29.1289C10.6212 28.4778 10.1783 27.8935 9.65011 27.3759C9.16659 26.9043 8.65463 26.4619 8.10203 26.0654C7.97201 25.9736 7.81761 25.9026 7.74447 25.744C8.19955 25.8525 8.5246 26.1697 8.86185 26.4452C10.1336 27.4803 11.1413 28.7324 11.9093 30.1681C11.8239 30.2474 11.7345 30.2015 11.6451 30.1765C11.3526 29.7299 11.0438 29.2917 10.6456 28.9244C10.5847 28.8701 10.544 28.8117 10.5806 28.7282L10.5765 28.724Z" fill="#F7EFDA"/>
<path d="M16.0618 39.9679C15.8343 40.3185 15.7937 40.7108 15.7734 41.1115C15.749 41.5706 15.8993 42.0256 15.7734 42.4805C15.3264 40.619 16.0253 39.0789 17.1955 37.6682C17.4637 37.3469 17.7115 37.0046 17.7684 36.5747C17.8172 36.533 17.744 36.3911 17.8903 36.4245C17.9147 37.013 17.6059 37.4679 17.2727 37.9187C16.8704 38.4571 16.46 38.9955 16.2853 39.6549C16.2041 39.73 16.1594 39.8344 16.074 39.9053C16.074 39.9262 16.0659 39.9512 16.0659 39.9721L16.0618 39.9679Z" fill="#F7EFDA"/>
<path d="M13.2664 59.5801C13.177 60.1185 13.2826 60.6694 13.1607 61.2078C13.1404 61.2996 13.1932 61.4081 13.1038 61.4916C13.112 60.3397 12.9576 59.2086 12.7219 58.0775C12.5065 57.0633 12.6366 56.0199 12.7178 54.9348C12.7788 56.3204 12.665 57.6685 13.0795 58.9749C13.1932 58.6827 13.1242 58.3739 13.1648 58.0734C13.3029 58.2403 13.2054 58.449 13.2623 58.6285C13.2623 58.9457 13.2623 59.2629 13.2664 59.5801Z" fill="#F7EFDA"/>
<path d="M12.47 14.642C12.3846 14.3165 12.2993 13.9909 12.214 13.6654C12.2546 13.6195 12.2993 13.5777 12.34 13.5318C12.153 13.3607 12.3359 13.1019 12.1856 12.9225C12.1368 12.8933 12.1368 12.8599 12.1856 12.8265C12.2993 12.6971 12.2749 12.5176 12.3481 12.3507C12.4375 12.5719 12.5147 12.7764 12.6081 13.0143C12.8804 12.3048 12.5106 11.6745 12.4781 11.0151C12.7828 11.7371 12.8966 12.4968 12.9616 13.2731C12.8885 13.3649 12.9616 13.4776 12.9169 13.5736C12.8885 13.5944 12.856 13.6028 12.8235 13.5944C12.7544 13.5527 12.7463 13.4776 12.73 13.4108C12.73 13.5068 12.7544 13.5986 12.6691 13.6696C12.6569 13.6696 12.6447 13.6779 12.6325 13.6696C12.6 13.6529 12.5756 13.6612 12.5878 13.6779C12.7381 13.9242 12.6203 14.1829 12.6203 14.4333C12.6203 14.5168 12.6203 14.642 12.47 14.6379V14.642Z" fill="#F7EFDA"/>
<path d="M15.1314 54.7303C14.595 57.727 14.0912 60.7237 13.4005 63.6953C13.4939 63.1611 13.5792 62.6269 13.6808 62.0968C14.144 59.6385 14.6153 57.1802 14.9892 54.7094C14.9973 54.6593 15.0257 54.6176 15.046 54.5675C15.1314 54.5925 15.0867 54.6843 15.1354 54.7303H15.1314Z" fill="#F7EFDA"/>
<path d="M24.8099 43.0815C24.7896 42.9187 24.8709 42.7476 24.7571 42.5974C24.94 40.402 24.9521 38.2025 24.8871 35.9988C24.9278 35.9988 24.9684 35.9988 25.005 35.9988C25.0212 36.4453 25.0456 36.8878 25.0497 37.3343C25.07 39.1708 25.0253 41.003 24.8668 42.8353C24.8587 42.9187 24.8302 42.998 24.8099 43.0815Z" fill="#F7EFDA"/>
<path d="M14.3594 40.185C14.2456 40.2768 14.335 40.4062 14.2862 40.5105C14.1603 39.6382 14.0384 38.7701 13.9124 37.8978C13.8068 37.1757 13.6971 36.4537 13.5914 35.7316C13.4289 34.9428 13.1607 34.1707 13.1932 33.3485C13.2095 33.24 13.1851 33.1106 13.3517 33.0855C13.6564 35.1515 13.9612 37.2175 14.2619 39.2835C14.3065 39.5798 14.3309 39.8803 14.3634 40.1808L14.3594 40.185Z" fill="#F7EFDA"/>
<path d="M33.6108 33.2733C33.4117 32.9311 33.4971 33.482 33.363 33.3485C33.2533 33.0855 33.1761 32.8268 33.4199 32.5889C33.4971 32.6515 33.5093 32.7475 33.5377 32.8518C33.5255 32.7975 33.5174 32.7642 33.5174 32.7308C33.5174 32.5722 33.5174 32.5638 33.4199 32.593C33.493 32.1131 33.8953 31.9628 34.2691 31.8209C34.8217 31.6122 35.4108 31.6122 36 31.679C35.5043 31.7374 35.0045 31.8 34.5413 31.992C33.9684 32.2341 33.6027 32.6181 33.6108 33.2733Z" fill="#F7EFDA"/>
<path d="M13.372 11.8874C13.2339 12.2255 13.3679 12.5761 13.3354 12.9183C13.3232 13.0435 13.4126 13.2063 13.2054 13.2605C13.1932 12.0543 12.986 10.8774 12.6853 9.71708C12.7016 9.59187 12.6122 9.40823 12.856 9.39988C13.0754 9.74212 13.1363 10.1303 13.2095 10.5184C13.242 10.8857 13.3679 11.2363 13.4451 11.5952C13.4614 11.7038 13.4695 11.8123 13.3679 11.8916L13.372 11.8874Z" fill="#F7EFDA"/>
<path d="M5.79007 24.9009C5.59503 24.9176 5.50971 24.7173 5.31874 24.6714C5.44063 25.1096 5.74944 25.431 5.94041 25.8108C5.90384 25.8108 5.85102 25.8233 5.83883 25.8108C5.24966 24.9761 4.75395 24.1079 4.95305 23.0311C5.04244 22.5345 5.37156 22.1505 5.62754 21.7289C5.69255 21.7081 5.73318 21.7164 5.70068 21.7957C5.47314 22.2131 5.17652 22.5971 5.09932 23.0812C4.98962 23.7532 5.11558 24.325 5.77788 24.6797C5.81038 24.7507 5.8307 24.8216 5.79413 24.8968L5.79007 24.9009Z" fill="#F7EFDA"/>
<path d="M11.6451 30.1681C11.7305 30.1055 11.8199 30.1306 11.9093 30.1598C12.4537 31.0738 12.9129 32.0212 13.1445 33.0605C13.1892 33.144 13.1851 33.2149 13.0795 33.2525C12.8438 33.0772 12.8397 32.785 12.7422 32.5471C12.5594 32.0922 12.2384 31.6915 12.153 31.199C11.9824 30.8568 11.8158 30.5104 11.6451 30.1681Z" fill="#F7EFDA"/>
<path d="M13.0632 33.2358C13.1363 33.1982 13.1323 33.1273 13.1445 33.0647C13.2826 32.5596 13.1038 32.0755 13.0551 31.583C12.9454 30.4352 12.7869 29.2917 12.6528 28.1439C12.6163 27.8225 12.5959 27.497 12.5675 27.1714C12.6244 27.1046 12.5472 27.0003 12.6366 26.9419C12.8072 27.4135 12.7381 27.9143 12.8032 28.4027C12.9576 29.5379 13.0551 30.6857 13.181 31.8251C13.2298 32.2466 13.2907 32.6723 13.3476 33.0939C13.3273 33.169 13.3029 33.2441 13.2826 33.3193C13.2095 33.3944 13.2176 33.6448 13.0185 33.4319C12.9982 33.361 13.0023 33.2942 13.0673 33.24L13.0632 33.2358Z" fill="#F7EFDA"/>
<path d="M1.12957 2.87641C0.918284 2.85555 0.772009 2.65521 0.544469 2.67608C0.288488 2.49661 0.125959 2.25454 0 1.95403C0.0528217 1.96655 0.0772009 1.96238 0.0853273 1.9749C0.763883 2.79294 1.60903 2.88894 2.58014 2.53835C3.35214 2.25871 4.07133 1.8789 4.82302 1.55753C4.85147 1.5784 4.87585 1.59927 4.90429 1.62014C4.91242 1.72865 4.83521 1.78291 4.75395 1.82047C3.86411 2.22115 2.99052 2.66773 2.0316 2.90146C1.71467 2.98076 1.43025 2.85972 1.12957 2.87641Z" fill="#F7EFDA"/>
<path d="M12.8804 13.5819C12.921 13.4817 12.8438 13.3524 12.9616 13.2731C12.9332 13.6403 13.0551 13.9868 13.0754 14.3457C13.1201 14.7172 12.9251 15.0427 12.8682 15.3975C12.7422 15.4142 12.7625 15.2263 12.6366 15.2556C12.6813 15.026 12.4944 14.8549 12.47 14.642C12.5675 14.2706 12.5756 13.8991 12.5147 13.4984C12.5716 13.5694 12.6122 13.6195 12.6528 13.6696C12.7463 13.7739 12.6894 13.9033 12.7097 14.0201C12.6813 14.208 12.665 14.3958 12.6447 14.5836C12.6609 14.4375 12.6813 14.2914 12.6975 14.1412C12.7016 14.0911 12.7138 14.041 12.7138 13.9909C12.73 13.7822 12.6528 13.5652 12.7381 13.3607C12.7707 13.4358 12.8032 13.511 12.8357 13.5861C12.8966 13.8949 12.8519 14.208 12.8885 14.4751C12.8885 14.2038 12.8397 13.8949 12.8804 13.5819Z" fill="#F7EFDA"/>
<path d="M21.1246 58.3822C20.7061 60.2312 20.3242 62.0843 20.4826 64C20.2144 62.0551 20.5558 60.1727 21.0555 58.3029C21.1084 58.3029 21.1084 58.3488 21.1246 58.3822Z" fill="#F7EFDA"/>
<path d="M32.5666 11.7413C32.6032 11.7455 32.6438 11.7538 32.6804 11.758C32.3228 12.0126 31.9124 12.1462 31.4939 12.2463C30.1693 12.5761 28.9869 13.1562 28.0158 14.112C27.9914 14.0869 27.967 14.0619 27.9427 14.0327C28.739 13.2271 29.6939 12.672 30.7828 12.3465C31.3883 12.167 31.9896 11.9959 32.5666 11.7371V11.7413Z" fill="#F7EFDA"/>
<path d="M13.0632 33.2358C13.0632 33.3109 13.0591 33.3902 13.0551 33.4653C12.8844 33.482 12.9251 33.3193 12.856 33.2483C12.6366 32.8518 12.4456 32.4428 12.2384 32.0421C12.2262 31.9962 12.214 31.9503 12.2018 31.9044C12.0718 31.7917 11.9539 31.6707 11.9824 31.4787C11.9702 31.3451 12.0962 31.2908 12.153 31.199C12.5391 31.8418 12.8885 32.5012 13.0632 33.2316V33.2358Z" fill="#F7EFDA"/>
<path d="M12.9047 33.24C12.9576 33.3151 13.0063 33.3902 13.0591 33.4612C13.1932 33.4987 13.1404 33.265 13.2826 33.3109C13.2826 34.0037 13.433 34.6799 13.5549 35.3602C13.5752 35.4812 13.5792 35.6064 13.5914 35.7316C13.3395 34.9512 13.0876 34.1707 12.8357 33.3902C12.8844 33.3526 12.8438 33.2733 12.9047 33.24Z" fill="#F7EFDA"/>
<path d="M24.7896 7.73876C25.2853 7.26296 25.8989 7.10018 26.553 7.06679C26.9187 7.0501 27.2925 7.03758 27.646 7.17531C27.2316 7.20035 26.8172 7.20035 26.4068 7.25461C25.9598 7.31304 25.5494 7.51338 25.1228 7.65111C25.0131 7.68867 24.9115 7.7638 24.7856 7.73876H24.7896Z" fill="#F7EFDA"/>
<path d="M24.2614 28.2023C24.2614 28.2023 24.302 28.2023 24.3183 28.2065C24.4767 28.6823 24.4808 29.1831 24.5336 29.6715C24.6352 30.5438 24.6962 31.4202 24.7734 32.2967C24.749 32.3259 24.7409 32.3718 24.6962 32.3802C24.623 31.6957 24.5499 31.0112 24.4767 30.3267C24.4036 29.6172 24.3305 28.9077 24.2573 28.1981L24.2614 28.2023Z" fill="#F7EFDA"/>
<path d="M12.6325 26.9377C12.6081 27.0128 12.5878 27.0921 12.5634 27.1672C12.5106 26.4118 12.4619 25.6564 12.409 24.9009C12.5106 24.2498 12.3887 23.5987 12.409 22.9477C12.4172 22.7139 12.3318 22.4719 12.4537 22.2423C12.5106 23.8074 12.5716 25.3726 12.6284 26.9377H12.6325Z" fill="#F7EFDA"/>
<path d="M21.1246 58.3822C21.1002 58.3572 21.0758 58.328 21.0555 58.3029C21.3521 56.9924 21.6691 55.6902 22.0876 54.413C22.112 54.4381 22.1323 54.4673 22.1567 54.4923C21.8113 55.7904 21.47 57.0842 21.1246 58.3822Z" fill="#F7EFDA"/>
<path d="M34.7729 9.67117C34.7567 9.60439 34.5129 9.60439 34.716 9.47918C34.6835 9.46666 34.6469 9.45414 34.6144 9.44579C34.6713 9.38318 34.7485 9.38319 34.8217 9.38319C35.0898 9.38736 35.3377 9.47501 35.4027 9.75047C35.4718 10.051 35.2199 10.1344 34.9842 10.2012C34.9232 10.0844 34.7404 10.1804 34.6916 10.0385C34.7201 9.8256 34.9273 9.93829 35.033 9.85899C35.0817 9.85899 35.0411 9.83394 35.033 9.84229C34.9354 9.89655 34.8501 9.90072 34.8461 9.75047C34.9029 9.72126 34.9639 9.72125 35.0289 9.7296C34.9476 9.70456 34.842 9.76299 34.781 9.67117H34.7729Z" fill="#F7EFDA"/>
<path d="M12.9332 26.5579C13.0104 26.4828 12.9819 26.3784 12.9982 26.2866C13.0998 27.2841 13.2014 28.2816 13.307 29.2833C13.2867 29.3209 13.2826 29.371 13.2298 29.3876C13.0835 28.4486 12.9982 27.5053 12.9332 26.5579Z" fill="#F7EFDA"/>
<path d="M24.6962 32.3843C24.7205 32.3551 24.749 32.3301 24.7734 32.3009C24.8465 33.3443 24.9196 34.3919 24.9928 35.4353C24.9521 35.4353 24.9074 35.4395 24.8668 35.4437C24.8099 34.4253 24.753 33.4027 24.6962 32.3843Z" fill="#F7EFDA"/>
<path d="M29.5558 41.0072C28.7025 41.6374 27.9427 42.3636 27.2357 43.1441C27.1991 43.1316 27.1788 43.1065 27.1666 43.0732C27.1585 42.9939 27.195 42.9271 27.2438 42.8728C27.6379 42.4346 28.0036 41.9713 28.4831 41.6124C28.735 41.4538 28.9178 41.2117 29.1779 41.0656C29.2835 41.0072 29.3648 40.8945 29.5111 40.9571C29.5273 40.9696 29.5436 40.9863 29.5558 41.003L29.5558 41.0072Z" fill="#F7EFDA"/>
<path d="M5.79007 24.9009C5.74537 24.83 5.6763 24.7632 5.77381 24.6839C6.25327 24.8926 6.74492 25.0762 7.16749 25.3893C7.04966 25.431 6.87088 25.2724 6.814 25.4978C6.42393 25.3809 6.16388 25.0428 5.79007 24.9009Z" fill="#F7EFDA"/>
<path d="M25.8542 45.2977C25.4682 46.0615 25.1431 46.8503 24.8343 47.6517C24.8424 47.2927 25.005 46.9755 25.1269 46.65C25.3097 46.17 25.4438 45.665 25.7404 45.2309C25.7973 45.2226 25.8298 45.2435 25.8501 45.2935L25.8542 45.2977Z" fill="#F7EFDA"/>
<path d="M31.2623 8.83226C31.4086 8.77383 31.5792 8.87817 31.7174 8.77383C32.5381 8.82391 33.3305 8.98669 34.0781 9.33728C33.5336 9.20789 32.9932 9.06599 32.4406 8.97834C32.0465 8.91573 31.6442 8.96582 31.2623 8.83226Z" fill="#F7EFDA"/>
<path d="M22.6524 21.779C22.6524 21.779 22.6849 21.779 22.6889 21.779C22.7986 22.1463 23.0262 22.4886 22.9124 22.8976C22.7296 22.4635 22.4208 22.0879 22.3517 21.6079C22.4086 21.5745 22.4573 21.5787 22.4939 21.6371C22.4939 21.7456 22.563 21.7748 22.6524 21.7748V21.779Z" fill="#F7EFDA"/>
<path d="M12.8316 9.39988C12.7178 9.47501 12.7707 9.62526 12.6853 9.71708C12.5472 9.56265 12.535 9.35814 12.4578 9.17867C12.5675 9.05346 12.4862 8.94077 12.4375 8.82808C12.3481 8.60688 12.2749 8.3815 12.3278 8.13525C12.3643 8.12273 12.409 8.11021 12.4334 8.1436C12.6772 8.52758 12.8804 8.92825 12.8316 9.40405V9.39988Z" fill="#F7EFDA"/>
<path d="M21.3156 61.8672C21.3237 62.5643 21.2709 63.2571 21.3156 63.9541C21.1774 63.1611 21.0637 62.3723 21.2506 61.5709C21.3481 61.6544 21.2506 61.7754 21.3156 61.8672Z" fill="#F7EFDA"/>
<path d="M26.8456 42.5848C26.8659 42.6099 26.8822 42.6391 26.9025 42.6641C26.9959 42.7768 26.9106 42.877 26.8619 42.9688C26.5612 43.5615 26.2971 44.1708 26.0248 44.7802C25.9923 44.8303 25.9558 44.8678 25.8867 44.8595C25.8664 44.776 25.8623 44.6925 25.8989 44.6091C26.2036 43.9329 26.4637 43.2318 26.8456 42.589V42.5848Z" fill="#F7EFDA"/>
<path d="M14.4163 54.1501C14.3878 54.1209 14.3594 54.0958 14.3309 54.0666C14.4122 53.3321 14.4935 52.5933 14.5747 51.8588C14.6032 51.888 14.6316 51.913 14.66 51.9422C14.5788 52.681 14.4975 53.4155 14.4163 54.1543L14.4163 54.1501Z" fill="#F7EFDA"/>
<path d="M16.074 39.9012C16.0984 39.7801 16.0578 39.609 16.2853 39.6507C16.1959 40.2058 16.3544 40.7192 16.5697 41.2242C16.2244 41.0155 16.2488 40.6441 16.1553 40.3269C16.1147 40.1891 16.1878 40.0264 16.074 39.9012Z" fill="#F7EFDA"/>
<path d="M27.2357 43.1483C26.9187 43.6032 26.5977 44.0623 26.2808 44.5173C26.2483 44.4964 26.228 44.4713 26.2199 44.4338C26.4393 43.9162 26.6749 43.4154 27.1828 43.0982C27.1991 43.1149 27.2153 43.1316 27.2357 43.1441L27.2357 43.1483Z" fill="#F7EFDA"/>
<path d="M9.41038 28.7658C9.86952 29.0913 10.3246 29.4169 10.6212 29.9052C10.1865 29.5546 9.75576 29.204 9.41038 28.7658Z" fill="#F7EFDA"/>
<path d="M15.2533 48.7994C15.2817 48.8996 15.3102 49.004 15.3386 49.1041C15.3305 49.534 15.3183 49.9639 15.3102 50.398C15.237 50.423 15.2086 50.4063 15.2248 50.327C15.2289 49.8178 15.1679 49.3086 15.2533 48.7994Z" fill="#F7EFDA"/>
<path d="M15.2248 50.327C15.2533 50.3521 15.2817 50.3729 15.3102 50.398C15.2736 50.8779 15.233 51.3579 15.1964 51.8421C15.1111 51.3329 15.1232 50.832 15.2289 50.3312L15.2248 50.327Z" fill="#F7EFDA"/>
<path d="M11.9824 31.4787C12.0555 31.6206 12.1287 31.7625 12.2018 31.9044C11.9824 31.8626 11.958 31.654 11.8524 31.5204C11.633 31.2324 11.4298 30.9361 11.2226 30.6439C11.507 30.6731 11.5354 30.957 11.6939 31.1072C11.8077 31.2157 11.8889 31.3576 11.9865 31.4828L11.9824 31.4787Z" fill="#F7EFDA"/>
<path d="M13.2298 29.3835C13.2542 29.3501 13.2786 29.3125 13.307 29.2791C13.3558 29.7508 13.4086 30.2224 13.4573 30.6898C13.433 30.7232 13.4045 30.7566 13.3801 30.79C13.3111 30.3226 13.2298 29.8551 13.2339 29.3793L13.2298 29.3835Z" fill="#F7EFDA"/>
<path d="M22.3598 19.3249C22.181 18.8199 22.047 18.3065 22.0388 17.7639C22.2135 18.2731 22.3029 18.8032 22.4126 19.3291H22.3842L22.3558 19.3207L22.3598 19.3249Z" fill="#F7EFDA"/>
<path d="M25.3544 12.7973C25.2325 13.1061 24.9074 13.2146 24.7084 13.4484C24.5743 13.6028 24.4117 13.7322 24.2614 13.8741C24.5011 13.3899 24.9318 13.0978 25.3544 12.7973Z" fill="#F7EFDA"/>
<path d="M12.9047 33.24C12.8966 33.2984 12.9047 33.361 12.8357 33.3902C12.6609 32.9311 12.344 32.5304 12.2424 32.0421C12.5553 32.3927 12.6731 32.8476 12.9088 33.24H12.9047Z" fill="#F7EFDA"/>
<path d="M25.8867 44.8553C25.907 44.8303 25.9314 44.8011 25.9517 44.776C26.0655 44.6967 26.0451 44.488 26.2361 44.4797C26.2524 44.488 26.2686 44.5006 26.2767 44.5173C26.1345 44.776 25.9923 45.039 25.8501 45.2977C25.8135 45.2769 25.777 45.256 25.7404 45.2351C25.6144 45.0431 25.8989 45.0056 25.8826 44.8553H25.8867Z" fill="#F7EFDA"/>
<path d="M5.70068 21.7957C5.6763 21.7749 5.65192 21.7498 5.62754 21.7289C5.79819 21.3742 5.96885 21.0236 6.08668 20.6521C6.06637 21.0695 5.94041 21.4535 5.69661 21.7999L5.70068 21.7957Z" fill="#F7EFDA"/>
<path d="M21.7178 18.6321C21.7097 18.6696 21.7178 18.703 21.7585 18.7155C21.7625 18.7823 21.7707 18.8533 21.7747 18.9201C21.7503 18.9201 21.73 18.9284 21.7056 18.9326C21.5797 18.5194 21.4537 18.1104 21.3278 17.6972C21.3521 17.6888 21.3806 17.6805 21.405 17.6721C21.5065 17.9935 21.6122 18.3107 21.7138 18.6321H21.7178Z" fill="#F7EFDA"/>
<path d="M34.1756 36.8126C34.1756 36.7667 34.1837 36.7208 34.1837 36.6749C34.2528 36.5747 34.3585 36.5205 34.4722 36.4829C34.5494 36.4913 34.6307 36.4954 34.6469 36.5956C34.5616 36.8168 34.4682 37.0255 34.1594 36.917C34.1431 36.8794 34.1472 36.8418 34.1797 36.8126H34.1756Z" fill="#F7EFDA"/>
<path d="M15.3305 52.9105C15.3549 52.9648 15.3833 53.019 15.4077 53.0691C15.3589 53.3696 15.3142 53.6701 15.2655 53.9665C15.1923 53.9832 15.1517 53.9665 15.1761 53.883C15.172 53.5491 15.2573 53.2319 15.3264 52.9064L15.3305 52.9105Z" fill="#F7EFDA"/>
<path d="M21.3156 61.8672C21.2953 61.7671 21.2749 61.6711 21.2506 61.5709C21.2831 61.2788 21.2384 60.9741 21.3684 60.6944C21.3887 60.6944 21.409 60.6944 21.4293 60.6944C21.3928 61.0868 21.3521 61.4749 21.3156 61.8672Z" fill="#F7EFDA"/>
<path d="M23.6722 13.6696C23.8063 13.3482 23.9445 13.0226 24.0786 12.7013C24.046 13.0519 23.9201 13.3691 23.7494 13.6737C23.721 13.7071 23.6966 13.7071 23.6722 13.6737V13.6696Z" fill="#F7EFDA"/>
<path d="M22.4939 21.6413C22.4451 21.6329 22.3964 21.6204 22.3517 21.6121C22.3192 21.5411 22.2867 21.4702 22.2542 21.3992C22.1282 21.2573 21.9901 21.1196 22.0713 20.9026C22.0795 20.8441 22.1038 20.8066 22.1688 20.8107C22.2257 21.0361 22.3395 21.2323 22.4451 21.4368C22.4817 21.5036 22.5183 21.5662 22.4939 21.6455V21.6413Z" fill="#F7EFDA"/>
<path d="M17.2646 36.4787C17.2239 36.5288 17.1874 36.5747 17.1467 36.6248C17.1467 36.2993 17.037 35.9946 16.9395 35.6857C17.1264 35.9195 17.2483 36.1782 17.2646 36.4829V36.4787Z" fill="#F7EFDA"/>
<path d="M23.4 10.5518C23.3797 10.5268 23.3594 10.5059 23.339 10.4809C23.4203 10.2346 23.5747 10.0301 23.7251 9.81725C23.7657 9.78803 23.8023 9.79221 23.8388 9.82977C23.6925 10.0718 23.5503 10.3097 23.4041 10.5518L23.4 10.5518Z" fill="#F7EFDA"/>
<path d="M11.2307 10.5977C11.446 10.8315 11.6004 11.1069 11.6004 11.4408C11.4786 11.1612 11.3526 10.8815 11.2307 10.5977Z" fill="#F7EFDA"/>
<path d="M21.0108 16.5452C20.9011 16.2531 20.828 15.9526 20.8767 15.6312C20.9458 15.9108 21.0149 16.1946 21.084 16.4743C21.0718 16.5077 21.0474 16.5327 21.0149 16.5452H21.0108Z" fill="#F7EFDA"/>
<path d="M23.8348 9.82977C23.7982 9.82977 23.7616 9.82142 23.721 9.81725C23.8388 9.56683 24.046 9.39153 24.233 9.1912C24.1639 9.44162 23.977 9.62109 23.8348 9.82977Z" fill="#F7EFDA"/>
<path d="M15.5296 51.6876C15.684 52.0299 15.4727 52.3471 15.4442 52.6768C15.4442 52.6768 15.4239 52.6851 15.4117 52.6851C15.3995 52.6851 15.3914 52.6726 15.3792 52.6643C15.428 52.3387 15.4767 52.0132 15.5255 51.6876H15.5296Z" fill="#F7EFDA"/>
<path d="M15.1801 53.8872C15.2086 53.9164 15.237 53.9414 15.2695 53.9706C15.2248 54.2252 15.1801 54.4798 15.1354 54.7344C15.0664 54.701 15.0664 54.6301 15.046 54.5717C15.0623 54.3379 15.0948 54.1084 15.1842 53.8872H15.1801Z" fill="#F7EFDA"/>
<path d="M21.8885 16.7623C21.9169 17.0628 22.0266 17.2589 21.9494 17.4885C21.9169 17.2798 21.7707 17.0878 21.8885 16.7623Z" fill="#F7EFDA"/>
<path d="M22.1932 19.6004C22.372 19.7506 22.2135 19.9802 22.3192 20.1471C22.2907 20.1471 22.2664 20.1429 22.2379 20.1388C22.1567 20.1889 22.1892 20.289 22.1038 20.3516C22.1323 20.1012 22.1607 19.8508 22.1892 19.6004H22.1932Z" fill="#F7EFDA"/>
<path d="M21.1246 19.1955C21.2993 19.2832 21.3765 19.4251 21.3318 19.6296C21.2628 19.4835 21.1937 19.3416 21.1246 19.1955Z" fill="#F7EFDA"/>
<path d="M22.0713 20.9026C22.0632 21.0945 22.2135 21.2281 22.2542 21.3992C21.9779 21.2949 22.0104 21.0152 21.9047 20.8107C21.9047 20.7732 21.921 20.7606 21.9576 20.769C21.9941 20.8149 22.0348 20.8566 22.0713 20.9026Z" fill="#F7EFDA"/>
<path d="M21.9007 20.8107C21.7585 20.6313 21.7056 20.4184 21.6528 20.2055C21.791 20.3767 21.9129 20.552 21.9535 20.769C21.9372 20.7857 21.921 20.8024 21.9007 20.8107Z" fill="#F7EFDA"/>
<path d="M12.6122 18.9075C12.6325 18.7239 12.6488 18.5444 12.6691 18.3608C12.7544 18.5945 12.7707 18.8282 12.6935 19.0578C12.6691 19.0077 12.6406 18.9576 12.6163 18.9075H12.6122Z" fill="#F7EFDA"/>
<path d="M21.0108 16.5452C21.0352 16.5202 21.0596 16.4993 21.0799 16.4743C21.1327 16.6955 21.1896 16.9209 21.2424 17.1421C21.084 16.9668 21.0393 16.7581 21.0068 16.5411L21.0108 16.5452Z" fill="#F7EFDA"/>
<path d="M22.4451 21.4326C22.2542 21.2657 22.177 21.0528 22.1688 20.8066C22.2867 21.0027 22.4289 21.1905 22.4451 21.4326Z" fill="#F7EFDA"/>
<path d="M23.6722 13.6696C23.6966 13.6696 23.7251 13.6696 23.7494 13.6696C23.6885 13.8741 23.6275 14.0786 23.5625 14.2831C23.4731 14.0494 23.6357 13.8741 23.6722 13.6696Z" fill="#F7EFDA"/>
<path d="M7.0009 26.9836C7.24876 27.0045 7.37472 27.1923 7.51693 27.3551C7.2772 27.3258 7.14718 27.1464 7.0009 26.9836Z" fill="#F7EFDA"/>
<path d="M6.13544 26.0779C6.30609 26.2198 6.50519 26.3325 6.54989 26.5746C6.38736 26.4285 6.16388 26.3325 6.13544 26.0779Z" fill="#F7EFDA"/>
<path d="M8.85372 28.3275C9.06095 28.4194 9.2316 28.5571 9.36975 28.7324C9.13002 28.6781 8.94312 28.5613 8.85372 28.3275Z" fill="#F7EFDA"/>
<path d="M10.6131 29.901C10.8406 29.972 10.9381 30.1765 11.0641 30.3476C10.8122 30.2975 10.7065 30.1055 10.6131 29.901Z" fill="#F7EFDA"/>
<path d="M12.1856 12.8265C12.1856 12.8599 12.1856 12.8891 12.1856 12.9225C12.0352 12.7513 12.019 12.5427 12.0027 12.3298C12.1205 12.4759 12.1734 12.6428 12.1815 12.8265L12.1856 12.8265Z" fill="#F7EFDA"/>
<path d="M24.7368 21.7707C24.688 22.0378 24.6637 22.3133 24.4361 22.5094C24.2898 22.5553 24.3305 22.4134 24.2777 22.3675C24.2533 22.38 24.2411 22.3926 24.233 22.4176C24.1964 22.5345 24.2167 22.6638 24.1273 22.7598C24.0826 22.7974 24.0339 22.8183 23.9729 22.7932C23.851 22.5052 24.042 22.2507 24.0664 21.9794L24.1436 19.6212C24.1436 19.6212 24.1761 19.6212 24.1923 19.6212C24.2126 20.3516 24.233 21.0862 24.2533 21.8166C24.2614 21.8166 24.2655 21.8166 24.2736 21.8166C24.2939 21.5745 24.3183 21.3324 24.3386 21.0862C24.3589 21.0862 24.3752 21.0862 24.3955 21.0862L24.363 22.0503C24.4483 21.5536 24.4564 21.0486 24.623 20.5687C24.7937 20.7899 24.6677 21.0361 24.688 21.2698C24.7002 21.4034 24.6758 21.537 24.684 21.6705C24.6921 21.7039 24.7084 21.7331 24.7327 21.7623L24.7368 21.7707Z" fill="#F7EFDA"/>
<path d="M23.6844 23.5528C23.4488 23.34 23.4609 23.0311 23.3797 22.7598C23.2984 22.4927 23.2497 22.2173 23.1887 21.946C23.3187 21.9251 23.3756 22.0253 23.4447 22.1129C23.5463 21.8542 23.3634 21.6037 23.4528 21.274C23.5869 21.779 23.7047 22.2047 23.8185 22.6346C23.8713 22.956 24.0217 23.2732 23.8835 23.6113C23.7088 23.6196 23.7372 23.4694 23.7129 23.3775C23.6519 23.1229 23.591 22.8725 23.5463 22.5762C23.5747 22.9351 23.7413 23.2273 23.6844 23.557V23.5528Z" fill="#F7EFDA"/>
<path d="M25.2569 18.2439C25.4966 17.3716 25.8014 16.5285 26.293 15.7606C25.972 16.5828 25.5819 17.3758 25.391 18.2439C25.3788 18.269 25.3544 18.2857 25.326 18.2898C25.2975 18.2857 25.2731 18.2731 25.2569 18.2481V18.2439Z" fill="#F7EFDA"/>
<path d="M24.6921 21.7707C24.5336 21.5912 24.6637 21.3867 24.6433 21.1947C24.623 20.9902 24.6352 20.7857 24.6311 20.577C24.6393 19.9092 24.749 19.2539 24.8709 18.6028C24.944 18.5903 24.9765 18.6112 24.9481 18.6905C24.8993 19.1246 24.8506 19.5586 24.8018 19.9927C24.7287 20.5854 24.7693 21.1822 24.6921 21.7748V21.7707Z" fill="#F7EFDA"/>
<path d="M24.9481 18.6905C24.9237 18.6613 24.8953 18.6321 24.8709 18.6028C24.9603 17.9225 25.1756 17.2714 25.3788 16.6162C25.4072 16.5911 25.4357 16.5911 25.4641 16.6162C25.2935 17.309 25.1187 17.9977 24.9481 18.6905Z" fill="#F7EFDA"/>
<path d="M24.0704 21.9794C24.0582 22.2548 24.046 22.5261 24.0339 22.8016C24.2126 23.0353 24.1233 23.3149 24.172 23.5695C24.1842 23.6363 24.1517 23.7323 24.0704 23.7407C23.9485 23.7532 23.9729 23.628 23.9445 23.557C23.8429 23.1271 23.7779 22.7014 23.916 22.2673C24.0339 22.2047 23.9485 22.0378 24.0704 21.9794Z" fill="#F7EFDA"/>
<path d="M23.9201 22.2673C23.8673 22.6972 23.8957 23.1188 24.0095 23.5403C23.9973 23.5654 23.981 23.5904 23.9648 23.6113C23.9404 23.628 23.912 23.628 23.8876 23.6113C23.8591 23.2857 23.7088 22.9685 23.8185 22.6346C23.8266 22.3967 23.8348 22.1547 23.8429 21.9168C23.8632 21.9168 23.8795 21.9168 23.8998 21.9168C23.9079 22.0336 23.916 22.1547 23.9242 22.2715L23.9201 22.2673Z" fill="#F7EFDA"/>
<path d="M24.6921 21.7707C24.6921 21.1738 24.6637 20.577 24.8018 19.9885C24.8262 20.0177 24.8506 20.0428 24.8709 20.072C24.8262 20.6396 24.7815 21.2031 24.7368 21.7707L24.688 21.7707H24.6921Z" fill="#F7EFDA"/>
<path d="M25.2813 19.0453C25.1837 19.5169 25.0822 19.9885 24.9846 20.4601C24.9725 20.4601 24.9603 20.4601 24.9521 20.4601L24.9725 19.8508C25.0009 19.7339 25.0293 19.6171 25.0618 19.496C25.0578 19.3124 25.07 19.1371 25.1594 18.9701C25.2284 18.9493 25.2609 18.9868 25.2853 19.0453H25.2813Z" fill="#F7EFDA"/>
<path d="M25.2041 18.966C25.0781 19.1204 25.1634 19.3332 25.0537 19.496C24.8668 19.2915 25.0537 19.0995 25.0822 18.9034C25.1147 18.678 25.1959 18.4609 25.2528 18.2439C25.2813 18.2439 25.3056 18.2439 25.3341 18.2481C25.3991 18.5069 25.2813 18.7322 25.2 18.966H25.2041Z" fill="#F7EFDA"/>
<path d="M25.4641 16.6162C25.4357 16.6162 25.4072 16.6162 25.3788 16.6162C25.46 16.3449 25.5698 16.0861 25.7567 15.8649C25.6916 16.1279 25.6104 16.3866 25.4641 16.6162Z" fill="#F7EFDA"/>
<path d="M25.2041 18.966C25.2488 18.7281 25.2935 18.486 25.3381 18.2481C25.3544 18.2481 25.3747 18.2439 25.391 18.2397C25.4113 18.2648 25.4316 18.2857 25.4519 18.3107C25.395 18.5569 25.3381 18.799 25.2772 19.0453C25.2528 19.0202 25.2284 18.991 25.2041 18.966Z" fill="#F7EFDA"/>
<path d="M24.5336 23.6196C24.4402 23.9243 24.2736 24.1872 24.0623 24.4251C23.9607 24.471 23.8835 24.4251 23.8835 24.325C23.8876 24.1079 23.9201 23.8909 23.9404 23.6739C23.912 23.6572 23.9038 23.6405 23.916 23.628C23.9242 23.6113 23.9363 23.6071 23.9445 23.6071C23.9648 23.5862 23.9851 23.5612 24.0054 23.5403C24.0176 23.5862 24.0257 23.6321 24.0379 23.678C24.1029 23.3859 23.977 23.0937 24.0379 22.8016C24.0623 22.7765 24.0867 22.7557 24.1111 22.7306C24.2045 22.9643 24.2005 23.2106 24.2167 23.4568C24.2086 23.0687 24.0989 22.6722 24.2126 22.284C24.237 22.284 24.2573 22.2882 24.2817 22.2924C24.4239 22.6513 24.3508 23.0311 24.3914 23.3984C24.5011 23.436 24.4361 23.5821 24.5377 23.628L24.5336 23.6196Z" fill="#F7EFDA"/>
<path d="M23.9445 23.6071C23.9445 23.6321 23.9445 23.653 23.9445 23.678C23.8063 23.7448 23.7088 23.724 23.6885 23.557C23.66 23.2189 23.4853 22.9017 23.5544 22.547C23.7047 22.8934 23.6804 23.2857 23.8876 23.6113C23.9079 23.6113 23.9282 23.6113 23.9485 23.6113L23.9445 23.6071Z" fill="#F7EFDA"/>
<path d="M24.046 27.497C24.0257 27.3926 24.0014 27.2883 23.981 27.1839C24.2451 27.2632 24.3102 27.4886 24.3914 27.7015C24.2004 27.7599 24.1517 27.5763 24.046 27.497Z" fill="#F7EFDA"/>
<path d="M15.753 10.9608C15.2492 11.7622 14.5869 12.4634 14.2009 13.3398C14.144 13.465 14.0546 13.3983 13.9734 13.3983C13.9043 13.0685 14.2131 12.8098 14.1603 12.4842C14.1562 12.2129 14.209 11.9667 14.4731 11.8164C14.7454 11.6328 14.7901 11.3073 14.9688 11.061C15.0542 10.9441 15.107 10.6937 15.2655 10.7814C15.4483 10.8815 15.2655 11.0735 15.1923 11.2071C15.0786 11.4199 14.9648 11.6328 14.8348 11.8331C14.9892 11.5702 15.1558 11.3114 15.2898 11.036C15.4158 10.7814 15.5661 10.7647 15.753 10.965V10.9608Z" fill="#F7EFDA"/>
<path d="M14.5422 11.8415C14.2781 11.975 14.2781 12.263 14.1603 12.4801C14.014 12.2422 14.0668 11.9876 14.1034 11.7371C14.1156 11.6537 14.144 11.5827 14.014 11.6453C13.949 11.6161 13.9612 11.5618 13.9571 11.5076C13.9896 11.4116 13.9815 11.2989 14.0709 11.2238C14.1968 10.9567 14.1643 10.6436 14.335 10.3932C14.5138 10.3807 14.4569 10.5184 14.465 10.5977C14.4813 10.7855 14.4041 10.9608 14.3675 11.1361C14.4284 10.8231 14.595 10.5101 14.3391 10.2054C14.2903 9.95915 14.335 9.74212 14.4975 9.52509C14.6194 9.6503 14.6072 9.75047 14.5625 9.85899C14.5666 9.85899 14.5707 9.85899 14.595 9.85899C14.5991 9.51257 14.6316 9.16615 14.7291 8.83226C14.7535 8.75296 14.7698 8.6361 14.8835 8.64862C14.9932 8.66114 14.9892 8.77383 15.0014 8.86147C15.0095 8.9366 14.9932 9.01173 14.981 9.08685C14.8307 9.9049 14.7576 10.7396 14.4691 11.5285C14.5341 11.3031 14.6072 11.0777 14.6722 10.8523C14.6926 10.7814 14.7007 10.6854 14.8023 10.7021C14.8916 10.7188 14.9079 10.8148 14.8998 10.8857C14.8591 11.228 14.7616 11.5535 14.5463 11.8331L14.5422 11.8415Z" fill="#F7EFDA"/>
<path d="M13.372 8.53593C13.5386 9.37066 13.6686 10.2137 13.754 11.061C13.7661 11.1737 13.7499 11.2906 13.8149 11.3907C13.9246 11.6453 13.7255 11.879 13.7621 12.1378C13.7865 12.3006 13.6321 12.2213 13.5467 12.1837C13.3029 11.8832 13.4005 11.5243 13.4411 11.2113C13.5183 10.5602 13.4005 9.93828 13.2948 9.31223C13.2176 8.86147 13.0429 8.41489 13.1648 7.9057C13.4492 8.09352 13.3761 8.32307 13.3679 8.5401L13.372 8.53593Z" fill="#F7EFDA"/>
<path d="M13.3883 9.29136C13.5874 10.0635 13.6442 10.844 13.498 11.6328C13.4614 11.8248 13.4817 12.0043 13.5508 12.1837C13.5264 12.455 13.502 12.7263 13.4736 12.9976C13.4533 12.9976 13.4289 12.9976 13.4086 12.9976L13.372 11.8874C13.372 11.7872 13.3639 11.6871 13.3639 11.5911C13.3151 11.4784 13.3314 11.3657 13.3395 11.2488C13.307 10.7355 13.307 10.2263 13.2786 9.71291C13.2704 9.56683 13.2582 9.40823 13.3842 9.29136H13.3883Z" fill="#F7EFDA"/>
<path d="M14.0018 11.47C14.0018 11.5285 14.0099 11.5911 14.014 11.6495C14.0059 11.6996 13.9937 11.7455 13.9856 11.7956C13.9612 11.7956 13.9409 11.7956 13.9165 11.7956L13.8596 9.97167C13.8352 9.8882 13.8799 9.87151 13.953 9.87568C14.0221 9.92159 14.0628 9.98837 14.0912 10.0635C14.14 10.5351 14.1643 11.0067 14.0059 11.47H14.0018Z" fill="#F7EFDA"/>
<path d="M13.9368 9.8882C13.9124 9.91742 13.884 9.94663 13.8596 9.97585H13.8027C13.8027 9.87568 13.7986 9.77551 13.7946 9.67117C13.8393 9.22459 13.7702 8.78218 13.7824 8.33559C13.7824 8.24794 13.6686 8.06848 13.9084 8.07682C14.0465 8.67783 14.1237 9.27884 13.9368 9.88403V9.8882Z" fill="#F7EFDA"/>
<path d="M16.2813 49.3754C15.9521 49.2168 16.1797 49.6217 15.9887 49.6217C16.009 49.1375 16.074 48.6492 16.1756 48.1692C16.2163 48.2736 16.2528 48.3779 16.3178 48.5532C16.4113 48.2736 16.4804 48.0524 16.5657 47.8353C16.6023 47.7393 16.5535 47.5473 16.777 47.6183C16.6144 48.2026 16.4479 48.7911 16.2853 49.3754L16.2813 49.3754Z" fill="#F7EFDA"/>
<path d="M14.977 0.735315C14.8713 0.818788 14.7819 0.793746 14.6641 0.735315C13.9084 0.393073 13.1242 0.255341 12.2953 0.430636C12.088 0.476546 11.8849 0.413941 11.6817 0.384725C12.8235 0.125957 13.949 -0.0117746 14.977 0.735315Z" fill="#F7EFDA"/>
<path d="M12.088 7.75128C11.9336 7.30469 11.6086 6.94575 11.4542 6.495C11.7711 6.95828 12.1734 7.37982 12.2424 7.97248C12.1896 7.89735 12.1409 7.8264 12.088 7.75128Z" fill="#F7EFDA"/>
<path d="M24.3874 23.3901C24.3508 23.0228 24.3142 22.6555 24.2777 22.284C24.4605 22.2673 24.298 22.4927 24.4361 22.5094C24.4199 22.8016 24.4036 23.0979 24.3874 23.3901Z" fill="#F7EFDA"/>
<path d="M9.16659 8.76965C9.0325 8.61105 8.89842 8.45245 8.76433 8.29803C9.04063 8.52341 9.386 8.67783 9.51196 9.04094C9.386 8.96164 9.21941 8.94078 9.17065 8.77383L9.16659 8.76965Z" fill="#F7EFDA"/>
<path d="M28.5278 41.6791C28.3977 41.579 28.4587 41.508 28.5562 41.4287C28.9219 41.1366 29.2795 40.8277 29.7102 40.6232C29.893 40.8778 29.5436 40.8277 29.5151 40.9571C29.1494 41.1449 28.8772 41.4621 28.5318 41.675L28.5278 41.6791Z" fill="#F7EFDA"/>
<path d="M34.8664 9.76716C34.9111 9.87568 35.0289 9.80055 35.098 9.86316C34.9923 9.99254 34.8054 9.93829 34.6916 10.0385C34.5779 10.0301 34.4519 10.0802 34.3707 9.97167C34.3585 9.95498 34.4438 9.87151 34.4844 9.82142C34.6185 9.84229 34.7201 9.64195 34.8704 9.76716H34.8664Z" fill="#F7EFDA"/>
<path d="M34.8664 9.76716C34.7282 9.71291 34.6307 9.94246 34.4804 9.82142C34.5413 9.70039 34.6754 9.72125 34.7729 9.67117C34.8786 9.68369 34.9842 9.69621 35.098 9.70873C35.0289 9.8089 34.9395 9.75464 34.8623 9.76716H34.8664Z" fill="#F7EFDA"/>
<path d="M33.5661 37.3594C33.4442 37.1966 33.6393 37.2383 33.688 37.1883C33.814 37.0589 34.0253 37.0255 34.1065 36.8418C34.1309 36.8293 34.1512 36.821 34.1756 36.8085C34.1756 36.8544 34.1837 36.9044 34.1878 36.9504C34.009 37.1257 33.7774 37.2258 33.5661 37.3552V37.3594Z" fill="#F7EFDA"/>
<path d="M12.8804 13.5819L12.9088 14.4834C12.9088 14.4834 12.8763 14.4834 12.8641 14.4834C12.856 14.1829 12.8438 13.8824 12.8357 13.5777C12.8519 13.5777 12.8682 13.5777 12.8804 13.5777L12.8804 13.5819Z" fill="#F7EFDA"/>
<path d="M12.7381 13.3565C12.7381 13.5777 12.7381 13.8031 12.7381 14.0243C12.7219 14.0243 12.7056 14.0243 12.6894 14.0285C12.6772 13.9075 12.6691 13.7864 12.6569 13.6654C12.6609 13.5151 12.665 13.3607 12.6691 13.2105C12.6447 13.1645 12.7341 13.1854 12.7097 13.2188C12.6894 13.248 12.726 13.3064 12.7341 13.3524L12.7381 13.3565Z" fill="#F7EFDA"/>
<path d="M33.4158 32.593C33.5539 32.5429 33.5499 32.3426 33.7409 32.3134C33.7002 32.5179 33.4849 32.6556 33.5539 32.8852C33.4524 32.8017 33.4483 32.689 33.4199 32.5889L33.4158 32.593Z" fill="#F7EFDA"/>
<path d="M13.1201 10.5143C13.242 10.147 13.0429 9.80473 13.0226 9.44579C13.0144 9.29971 12.9535 9.15363 13.0144 8.95747C13.2582 9.74212 13.2339 10.5226 13.3761 11.2739C13.3761 11.3782 13.3679 11.4825 13.3639 11.5869C13.2501 11.2363 13.1242 10.8857 13.1201 10.5101V10.5143Z" fill="#F7EFDA"/>
<path d="M12.6853 14.0285C12.6853 14.0285 12.7178 14.0285 12.7341 14.0243C12.7788 14.2372 12.7178 14.4417 12.6488 14.642C12.6203 14.4375 12.5594 14.2288 12.6853 14.0285Z" fill="#F7EFDA"/>
<path d="M24.2086 22.2799C24.2248 22.7056 24.2411 23.1355 24.2533 23.5612C24.233 23.5612 24.2126 23.5612 24.1923 23.5654C24.1639 23.2857 24.1354 23.0061 24.107 22.7265C24.1395 22.5762 24.107 22.4134 24.2086 22.2799Z" fill="#F7EFDA"/>
<path d="M23.8023 26.7248C23.6804 26.537 23.591 26.3409 23.6519 26.0195C23.7169 26.32 23.7576 26.5203 23.8023 26.7248Z" fill="#F7EFDA"/>
<path d="M14.0059 10.0343C13.9815 9.17868 13.9612 8.32307 13.9368 7.46329C13.9246 7.37982 13.8108 7.26713 14.0018 7.24209C14.079 8.57767 14.144 9.91324 14.1318 11.2488C14.0871 11.3239 14.0424 11.3949 14.0018 11.47C14.0018 10.9901 14.0018 10.5143 14.0018 10.0343H14.0059Z" fill="#F7EFDA"/>
<path d="M14.3512 10.4141C14.3431 10.3515 14.3512 10.293 14.4081 10.2513C14.4203 10.3264 14.5707 10.2304 14.5503 10.3598C14.4975 10.6854 14.5219 11.0276 14.335 11.3156C14.2212 11.0151 14.6154 10.7188 14.3553 10.4099L14.3512 10.4141Z" fill="#F7EFDA"/>
<path d="M13.5467 7.24626C13.5142 7.00001 13.4777 6.75377 13.4451 6.51169C13.4655 6.50752 13.4898 6.50334 13.5102 6.49917C13.6321 7.02923 13.7499 7.55511 13.8718 8.08517C13.7458 8.46498 13.8596 8.85313 13.8271 9.23711C13.8149 9.38319 13.8799 9.53761 13.7905 9.67952C13.7255 8.92408 13.7905 8.1603 13.6158 7.41738C13.6036 7.35895 13.567 7.30469 13.5427 7.25043L13.5467 7.24626Z" fill="#F7EFDA"/>
<path d="M14.0018 7.24209C13.9815 7.31721 13.9571 7.38816 13.9368 7.46329C13.7783 6.9708 13.7946 6.44909 13.6971 5.94824C13.5752 5.32219 13.4777 4.69197 13.3151 4.07426C13.6849 5.10099 13.9205 6.15693 14.0059 7.24209H14.0018Z" fill="#F7EFDA"/>
<path d="M11.7427 4.46659C11.9865 4.69614 12.1612 4.95908 12.1815 5.29715C12.0352 5.02169 11.8889 4.74205 11.7427 4.46659Z" fill="#F7EFDA"/>
</svg>
