<svg xmlns="http://www.w3.org/2000/svg" fill="none" viewBox="0 0 396 561"><path stroke="#a39d79" stroke-linecap="round" stroke-width="3" d="M197.5 2.5v557"/><path fill="#a39d79" d="M110.494 70.221a2.2 2.2 0 0 1-.296-1.052 60 60 0 0 1 .084-4.961c.106-1.816.069-3.64.051-5.46-.048-5.002-.19-10-.066-15.002 0-.063-.033-.125-.055-.192-.318-.103-.468.177-.662.321-1.575 1.189-3.14 2.396-4.712 3.592-.34.258-.684.52-1.101.642-.186.056-.384.115-.574.111-.427-.007-.928-.026-1.122-.461-.176-.395.256-.639.504-.879a30.5 30.5 0 0 1 3.167-2.68c6.65-4.954 13.341-9.856 20.079-14.692a156 156 0 0 0 4.201-3.097c.435-.336.618-.698.614-1.251-.018-1.953.014-3.91.018-5.862 0-1.056.117-2.108.209-3.13-.308-.19-.49.018-.677.11a1.6 1.6 0 0 1-.954.166c-.26-.037-.552-.081-.636-.373-.077-.273.19-.395.362-.535.687-.561 1.4-1.093 2.04-1.717 1.791-1.753 3.133-3.813 4.182-6.087.315-.679.472-1.454 1.101-1.96.135-.107.113-.299.113-.465V3.166c-.515.074-.965.336-1.364-.063-.117-.118-.255-.214-.237-.402.014-.2.168-.27.325-.318.125-.037.256-.051.388-.074q.87-.14.939-1.077c.081-1.123.655-1.477 1.7-1.067.388.151.607.376.472.83-.047.155-.051.325-.069.491-.114.945-.11.934.819 1.263.285.1.793.125.694.52-.091.366-.548.23-.866.155-.128-.03-.256-.066-.384-.092-.26-.06-.457-.011-.483.31-.051.66-.106 1.322-.15 1.982-.011.163 0 .333.128.462.86.864 1.086 2.026 1.401 3.13a17.5 17.5 0 0 0 2.212 4.85c.362.554.702 1.123 1.202 1.562.103.089.212.196.18.329-.044.177-.205.24-.373.266-.337.051-.644-.041-.958-.163-.263-.103-.454-.398-.845-.328-.036.845-.069 1.694-.113 2.543-.088 1.82-.172 3.64-.282 5.456-.033.546.062.923.626 1.17.471.207.903.543 1.301.883 6.848 5.88 13.937 11.465 20.748 17.386.446.388.892.783 1.298 1.215.322.34.22.59-.241.672-.614.107-1.174-.045-1.674-.41-.958-.698-1.905-1.41-2.863-2.108-.234-.174-.439-.399-.728-.473-.179.041-.179.181-.183.307-.153 4.7-.449 9.395-.38 14.101.051 3.71.106 7.42.029 11.126 0 .166-.011.333-.003.499.018.395-.033.73-.523.793-.494.06-1.005-.17-1.133-.572-.081-.247-.106-.52-.121-.782-.154-2.91-.347-5.818-.413-8.734-.044-1.854-.146-3.707-.183-5.56-.011-.542-.223-.705-.709-.638a2.4 2.4 0 0 1-.49.01c-.395-.021-.519.193-.508.55.007.167 0 .333.007.5.08 2.58.172 5.164.241 7.744.015.498.033.915.669.974.172.015.337.196.483.322.121.106.238.243.208.424-.036.214-.23.21-.384.221-1.02.074-.91.23-.877 1.134.055 1.52.135 3.045.197 4.566.011.277.139.646-.314.698s-.644-.203-.673-.642c-.109-1.555-.241-3.105-.343-4.655-.07-1.03-.205-.838-.936-.753-.944.107-1.894.195-2.841.262-.446.03-.644.192-.618.668.08 1.653.146 3.307.186 4.965.015.542.348.535.724.557 1.869.107 3.733.229 5.601.336 3.243.188 6.472.535 9.678 1.06.611.1 1.243.17 1.766.564.157.118.318.24.442.392.147.17.329.358.176.612-.121.2-.337.189-.53.166-.651-.066-1.302-.147-1.956-.225-3.85-.45-7.718-.594-11.586-.723-6.889-.225-13.777-.277-20.668-.236-6.662.04-13.316.354-19.974.48-2.23.04-4.464.055-6.657-.47-.644-.15-1.269-.35-1.799-.763-.227-.178-.548-.37-.406-.706.128-.302.468-.15.706-.118 1.641.244 3.276-.014 4.91-.08.161-.008.329-.02.515-.219zm30.254-43.747c-.081.203-.121.262-.124.32-.11 2.913-.213 5.826-.333 8.735-.018.461.23.727.501 1.022a676 676 0 0 1 3.491 3.777c.179.192.355.391.505.609.175.258.069.461-.212.517-.607.122-1.145.022-1.631-.44-2.398-2.307-4.819-4.592-7.228-6.888-.537-.51-.559-.539-1.031.037-.706.864-1.682 1.484-2.226 2.492-1.211.642-2.084 1.702-3.094 2.587-1.641 1.444-3.374 2.732-5.297 3.762-.413.222-.819.417-1.305.336-.644-.107-.772-.402-.381-.941.41-.569.966-.99 1.503-1.422 2.058-1.646 4.109-3.296 6.175-4.928.388-.306.596-.616.581-1.155-.058-2.02-.054-4.038-.084-6.058-.003-.284.099-.598-.153-.86-.088.03-.194.04-.263.096-1.887 1.595-4.008 2.876-5.868 4.511-1.287 1.13-2.655 2.163-4.015 3.2a470 470 0 0 1-6.723 5.025c-.476.347-.695.697-.626 1.306.117 1.02.095 2.05.066 3.076-.142 5.264-.27 10.528-.402 15.792-.004.199 0 .398-.011.594-.018.332.117.487.464.461.49-.04.984-.077 1.474-.085.453-.007.526-.247.504-.646-.146-2.676-.303-5.356-.405-8.036-.07-1.879-.337-3.75-.136-5.637.081-.73.234-1.436.483-2.122.146-.406.431-.554.844-.495.414.06.512.35.534.709.044.727.103 1.454.139 2.181.048.956-.168 1.064 1.02 1.049.786-.011 1.576.026 2.362.026.417 0 .775.11 1.053.435.106.122.227.251.157.436-.073.196-.263.173-.417.184-1.144.074-2.292.133-3.436.21-.684.045-.713.056-.699.769.066 3.31.147 6.622.227 9.933 0 .1.018.2.018.3 0 .369.168.53.549.501.588-.048 1.177-.066 1.769-.103.786-.048.801-.048.768-.86-.077-1.986-.179-3.968-.249-5.954-.018-.528.015-1.06.074-1.584.036-.35.201-.631.628-.613.395.019.607.248.658.61.077.524.161 1.051.172 1.58.077 3.905.081 7.814.421 11.712.018.218.098.487-.209.587-.259.081-.522.063-.753-.1-.179-.125-.194-.335-.215-.531-.117-1.052-.256-2.104-.34-3.156-.037-.462-.18-.672-.659-.602a34 34 0 0 1-1.952.244c-.472.04-.6.295-.574.727.051.893.077 1.787.117 2.68.04.926.091 1.853.132 2.78.011.225.04.468-.245.583-.494.2-1.09-.11-1.185-.654-.08-.454-.128-.919-.172-1.38-.12-1.285-.237-2.573-.34-3.858-.029-.376-.183-.56-.555-.472-.691.159-1.339-.022-2.03-.307-.08 2.163.03 4.245.103 6.328.029.808.044.815.833.756 2.351-.177 4.702-.387 7.064-.461 2.296-.074 4.592-.103 6.888-.1.771 0 .812-.022.75-.779-.213-2.61-.092-5.23-.271-7.844-.128-1.85-.19-3.703-.274-5.556-.026-.565.062-1.11.204-1.665.107-.424.322-.535.684-.535.263 0 .527.011.786.011 1.411.011 2.826.07 4.23-.077 2.22-.233 4.432-.506 6.658-.628 1.667-.092 2.08.251 2 1.93-.241 4.929-.197 9.868-.706 14.781-.051.495.114.643.578.654 1.868.048 3.737.125 5.605.177.625.018.651-.026.603-.683-.106-1.421-.227-2.839-.314-4.26-.041-.627.011-1.251-.673-1.62-.238-.13-.347-.547-.037-.646.651-.207.516-.669.498-1.115-.128-2.846-.414-5.681-.454-8.531-.003-.403-.08-.694-.519-.83-.274-.086-.53-.278-.541-.669.099-.055.212-.17.322-.166.687.011.786-.41.775-.971a5.4 5.4 0 0 1 .194-1.473c.102-.406.307-.653.745-.635.472.019.717.277.754.746.032.395.065.79.08 1.189.033 1.11-.07 1.044 1.111 1.055.461.004.918.011 1.379.022 1.382.03 1.374.03 1.327-1.406-.018-.561-.037-1.126-.004-1.687.055-.956.084-1.92.274-2.865.077-.383.198-.701.677-.69.515.011.673.34.709.775.033.395.055.794.051 1.189-.014 1.358-.047 2.713-.066 4.072 0 .254-.087.601.242.675.409.096.866.137 1.247-.088.299-.178.153-.543.164-.827.029-.628.011-1.26.04-1.887.128-2.547.099-5.101.41-7.634.084-.694-.073-1.055-.589-1.483-4.621-3.814-9.334-7.52-13.707-11.632-.522-.491-1.056-.971-1.648-1.507zm-.684 35.176c-.007-2.252.183-4.493.289-6.737.077-1.672.099-1.661-1.55-1.429-2.629.373-5.269.642-7.93.561-.326-.01-.655.008-.984 0-.329-.007-.475.152-.46.48.011.233 0 .462.007.694.062 4.563.274 9.122.018 13.684-.036.68-.007.69.717.717.852.03 1.704.036 2.555.048 2.26.036 4.519.077 6.779.107.724.01.727-.008.68-.69-.179-2.478-.121-4.958-.121-7.439zm-1.78-27.764c.033-.258.058-.384.058-.51q.025-5.807.051-11.616v-.3c.011-.35-.161-.468-.49-.413-1.396.24-2.807.233-4.215.222-.377 0-.541.136-.548.51 0 .232-.041.46-.048.693-.15 3.57-.303 7.14-.45 10.713-.003.118-.044.27.26.398.578-.915 1.44-1.44 2.603-1.469 1.283-.033 1.795 1.086 2.775 1.772zm15.085 23.7c-.084-1.455-.179-2.906-.249-4.36-.018-.399-.139-.61-.574-.598-.951.026-1.901.026-2.852.026-.373 0-.519.173-.523.542-.025 2.913-.043 5.825.114 8.734.025.484.212.62.669.584 1.013-.074 2.029-.108 3.045-.163.637-.037.651-.048.615-.705q-.117-2.034-.245-4.06M137.092 8.602c-.6 1.023-1.086 1.839-1.565 2.658-.468.805-1.199 1.433-1.66 2.3 2.19.24 4.614.055 5.386-.41-.904-1.343-1.686-2.746-2.165-4.544zm-3.675 7.32c.044 0 .088.008.11-.01q.147-.123.289-.255c.855-.775 1.865-.934 2.925-.617 1.247.373 1.89 1.82 1.429 3.042-.501 1.325-1.725 1.86-3.034 1.333-.71-.285-1.251-.794-1.788-1.388-.099.701-.113 1.38-.132 2.056-.007.24.121.387.348.387 1.44.019 2.884.07 4.31-.225.417-.088.603-.317.607-.756.011-1.521.015-3.046.252-4.556.063-.402-.106-.524-.49-.494-1.371.107-2.745.236-4.124.203-.252-.008-.526-.082-.764.114-.014.388-.058.779.07 1.163zm2.293 1.307c.365-.03.76-.048 1.148-.096.234-.026.358-.184.263-.417-.205-.494-.468-1.044-1.013-1.122-.512-.074-1.027.18-1.334.672-.157.247-.34.554-.198.834.139.273.472.1.717.126.128.014.263 0 .42 0zm-1.112.65c.106.487.373.727.604.997.698.812 1.861.195 2.087-.61.121-.431-.003-.608-.468-.579-.713.044-1.422.122-2.223.192M134.792 75.467c3.609-.04 7.21.13 10.807.376.472.034.911.1 1.258.458.095.096.157.214.124.355-.036.155-.168.184-.303.184q-.393 0-.786-.018c-6.819-.355-13.63-.185-20.43.38-3.006.247-6.011.469-9.009.812-.19.022-.398.026-.581-.026-.216-.063-.464-.18-.457-.443.007-.225.256-.277.439-.343 1.334-.48 2.72-.757 4.12-.904 4.925-.517 9.864-.787 14.818-.827zM139.889 79.686c-2.154.081-4.578.177-7.002.266q-1.03.04-2.065.048c-.461 0-.922-.052-1.342-.255-.263-.125-.592-.288-.545-.627.044-.314.406-.288.651-.332.322-.063.647-.108.972-.126 6.157-.303 12.318-.34 18.478-.03.483.026.9.152 1.236.506.088.093.161.207.124.355-.044.17-.19.17-.31.177-.326.014-.655.014-.984.014h-9.217z"/><path fill="#a39d79" d="M135.395 39.457c2.256.033 3.609 1.18 3.942 3.348.307 1.982-.885 3.88-2.812 4.577-1.982.72-4.281-.476-5.206-1.657-.848-1.086-.552-3.692.45-4.722.778-.797 2.526-1.565 3.626-1.55zm.209 7.157c1.257-.535 1.948-1.34 2.113-2.377.029-.192.088-.399-.059-.561-.201-.229-1.893-.03-2.021.233a.4.4 0 0 0-.041.191c.008.809-.128 1.621.004 2.514zm-.907.104c.106-.384.037-.772.029-1.156-.044-2.07.253-1.76-1.799-1.317-.314.066-.329.247-.292.498.146.938.973 1.742 2.062 1.971zm1.086-4.807q-.117 1.348 1.236 1.27c.128-.007.259-.003.387-.018.252-.03.326-.185.252-.414-.248-.753-.614-1.44-1.177-2.004-.139-.137-.303-.277-.512-.21-.252.077-.171.317-.179.494-.014.295-.003.587-.003.882zm-3.071 1.628c.581-.048 1.027-.073 1.473-.121.241-.026.465-.122.454-.41-.026-.69.04-1.396-.18-2.093-1.14.498-1.557 1.399-1.747 2.624M145.424 52.565c.018 2.669-.055 4.99.124 7.306.011.166.011.332.015.494.007.244-.011.498-.304.54-.31.043-.603-.034-.683-.403a4.4 4.4 0 0 1-.088-.687c-.263-4.467-.278-8.933-.168-13.404.011-.428.062-.86.121-1.284.051-.366.252-.632.654-.584.347.041.49.296.497.635.007.462.029.927.015 1.388-.059 2.12-.128 4.238-.183 6.003zM123.78 55.12v6.352c0 .222.055.492-.194.62-.216.111-.45.07-.654-.066-.231-.155-.19-.402-.201-.627-.03-.694-.066-1.388-.073-2.082q-.062-5.061-.099-10.122.002-.594.069-1.189c.044-.365.223-.62.64-.598.358.018.523.236.552.576.037.428.088.856.092 1.285.011 1.952.003 3.901.003 5.854h-.131zM137.969 63.219c-.702.007-1.1-.395-1.093-1.104.004-.465.238-.672.764-.676.666-.007 1.064.266 1.075.739.018.675-.241 1.037-.746 1.04M229.335 110.154c1.566 4.707 3.934 8.859 7.793 12.023.851.696 1.657 1.48 2.838 1.568.095.008.199.091.273.166.041.042.037.134.066.251-.739.3-1.417.041-2.078-.255-.843-.379-1.574-.946-2.297-1.517-4.843-3.84-7.884-8.893-9.748-14.738-.248-.775-.372-1.584-.425-2.401-.025-.392.049-.675.487-.863a56 56 0 0 0 3.492-1.626c2.206-1.113 4.528-1.913 6.892-2.606.281-.083.566-.179.855-.191.781-.038 1.24.262 1.517 1.017.289.796.561 1.605.768 2.426.773 3.044 1.785 6.029 2.157 9.168.058.488.235.834.748.955.198.045.434.1.479.325-.041.179-.149.233-.252.208-.678-.15-.715.225-.636.746.293 1.902.516 3.811.71 5.729.145 1.442.162 2.88.157 4.327 0 .375-.033.717.364.951.231.137.227.446.306.692 1.384 4.215 2.512 8.509 3.785 12.761.88 2.939 1.801 5.87 2.446 8.876.037.179.103.358.12.542.02.237.19.562-.149.675-.376.121-.736.025-.909-.396-.054-.138-.079-.283-.116-.429-1.244-5.032-2.979-9.914-4.417-14.888a354 354 0 0 1-1.545-5.44c-.157-.567-.281-1.159-.306-1.743-.021-.509-.021-.905-.628-1.08-.488-.137-.409-.658-.426-1.046a49 49 0 0 0-.512-5.191c-.248-1.684-.541-3.36-.789-5.044-.079-.534-.289-.817-.843-.984-3.235-.967-6.45-1.989-9.673-2.989-.14-.042-.277-.096-.508.025zm10.619 2.384c.095-.312 0-.521-.033-.738-.488-2.768-1.413-5.432-1.851-8.212-.103-.651-.409-1.264-.591-1.901-.132-.484-.372-.513-.814-.376-1.19.38-2.359.801-3.475 1.368-1.603.813-3.215 1.613-4.946 2.13-.421.125-.615.284-.45.776.281.837.529 1.692.739 2.551.166.684.55 1.034 1.219 1.246 3.112.976 6.211 1.997 9.314 3.002.272.088.549.2.888.15zM281.546 112.33c-2.298 1.159-4.558 2.301-6.818 3.439-1.347.676-2.702 1.343-4.148 1.764-.401.117-.529.3-.554.679-.153 2.327-.339 4.649.058 6.975.244 1.418.281 2.873.727 4.257.124.392-.132.437-.421.412-.319-.025-.558-.191-.674-.492-.169-.45-.351-.896-.475-1.359-.909-3.468-1.19-6.983-.888-10.56.243-2.918.466-5.828 1.45-8.617.182-.521.372-1.046.607-1.547.343-.733.657-.925 1.145-.763.657.221.479.759.396 1.209-.14.763-.33 1.518-.528 2.268a46 46 0 0 0-1.128 5.766c-.034.254-.1.509 0 .755.206.054.376-.021.541-.092 3.59-1.597 7.14-3.285 10.602-5.153.666-.359 1.219-.805 1.467-1.568.099-.3.091-.475-.231-.6-.48-.183-.93-.438-1.418-.6-2.016-.68-4.065-1.251-6.119-1.801-1.239-.33-2.471-.713-3.557-1.439-.236-.158-.521-.279-.645-.671.314-.258.665-.154.983-.033 2.988 1.134 6.116 1.822 9.091 2.993.479.188.966.35 1.437.559.467.204.881.471 1.451.354.413-.083.694.205.665.671-.025.367-.05.738-.124 1.101-.24 1.159-.566 2.301-1.025 3.389-1.673 3.944-3.367 7.876-5.495 11.611-.996 1.747-2.463 3.01-3.735 4.478-.269.312-.595.412-.988.258-.397-.154-.463-.383-.173-.738a103 103 0 0 0 2.169-2.793c1.103-1.455 1.946-3.043 2.698-4.694 1.318-2.889 2.479-5.849 3.607-8.822.062-.162.19-.321.05-.604z"/><path fill="#a39d79" d="M247.222 152.069c-1.57.996-2.958 1.93-3.901 3.402-.371.583-.533 1.217-.421 1.905.103.654.393.909 1.045.867.364-.021.723-.113 1.075-.213 3.173-.904 6.053-2.443 8.78-4.277a5.8 5.8 0 0 0 1.5-1.459c.285-.4.463-.834.434-1.343-.058-1.013-.488-1.35-1.484-1.163-1.165.225-2.231.713-3.309 1.188-.794.351-.864.334-1.678-.179 1.384-1.005 2.855-1.659 4.492-1.98a3.7 3.7 0 0 1 1.842.108c1.773.551 2.356 2.214 1.323 3.773-.352.53-.814.959-1.327 1.318-3.103 2.159-6.446 3.827-10.098 4.811-.897.241-1.818.241-2.711-.071-1.417-.5-1.983-1.643-1.52-3.077.268-.838.81-1.488 1.446-2.064 1.074-.971 2.281-1.755 3.648-2.23.558-.196.657-.463.5-.976-.512-1.659-.971-3.339-1.512-4.986-1.578-4.815-2.648-9.78-4.239-14.591a51 51 0 0 1-1.347-4.803c-.066-.3-.294-.654.107-.892.327-.196.86.021 1.091.479.463.926.789 1.91 1.095 2.902 1.438 4.665 2.653 9.393 3.929 14.104.839 3.106 1.942 6.137 2.513 9.313.086.476.177.947.243 1.422.038.263.261.625-.169.746-.388.109-.727-.041-.901-.442-.07-.166-.103-.354-.153-.529-.078-.284-.153-.563-.293-1.063M264.171 146.87c-1.004-.154-1.81.158-2.429.951-.455.583-.476 1.129-.05 1.734.343.488.777.884 1.306 1.171 1.268.688 2.59 1.226 4.016 1.468 1.037.175 2.045.046 3.024-.346.525-.209 1.066-.438 1.128-1.084.075-.742-.173-1.422-.822-1.826-.624-.384-1.306-.676-1.967-.992-1.206-.58-1.359-.997-.975-2.247 1.17-3.819 2.306-7.646 3.467-11.465.215-.705.487-1.393.752-2.085.078-.204.198-.396.314-.583.165-.259.401-.301.669-.184.252.113.265.338.215.563-.124.542-.235 1.088-.405 1.613-1.347 4.19-2.702 8.372-4.066 12.557-.281.859-.305.868.529 1.151s1.661.588 2.434 1.017c.566.313 1 .755 1.215 1.38.339.992-.058 1.989-1.041 2.522-1.372.743-2.843.955-4.376.734-1.864-.271-3.644-.838-5.363-1.592-.852-.371-1.599-.905-2.165-1.668-.856-1.155-.752-2.189.334-3.127.992-.85 2.157-1.084 3.409-.838 1.545.309 1.269.213 1.607-1.017.913-3.277 1.785-6.562 2.67-9.847.318-1.18.698-2.339 1.177-3.46.26-.609.612-.73 1.116-.471.376.191.392.512.33.85-.124.655-.231 1.313-.421 1.951-1.322 4.428-2.616 8.863-4.116 13.237-.19.558-.442 1.096-.665 1.642-.21.517-.607.463-1.008.309-.475-.184-.264-.521-.157-.83.128-.375.372-.721.318-1.188zM229.558 99.81c-.145-.045-.364-.083-.558-.179-.301-.15-.826-.233-.628-.704.17-.405.632-.213.975-.13.174.042.347.121.496.221.203.134.48.267.351.584-.099.25-.359.196-.64.209zM234.157 113.96c-.136.288-.103.746-.612.73-.243-.009-.384-.142-.392-.409-.017-.471.202-.755.578-.721.223.021.422.096.426.396zM239.921 116.837c-.099.442-.265.637-.628.592-.364-.046-.641-.238-.624-.617.021-.409.368-.371.657-.342.293.029.541.129.591.367zM226.571 100.165c-.558.271-1.033.287-1.446-.125-.186-.184-.182-.434.136-.476.521-.066 1.008-.004 1.314.601zM274.096 122.21c.314.009.636.075.81.413.078.15.016.313-.128.367-.339.125-.649 0-.918-.208-.115-.092-.21-.226-.152-.384s.21-.175.388-.183zM276.91 103.162c.314.03.632.08.785.426.02.045-.008.158-.05.187-.31.217-.62.084-.913-.042-.12-.05-.264-.145-.244-.308.033-.229.228-.242.418-.263zM226.587 96c.314.02.604.07.773.354.025.042 0 .15-.041.188-.248.225-.533.192-.81.08-.166-.067-.347-.16-.314-.384.033-.246.244-.217.401-.238zM284.996 102.537c-.566.425-.93.271-1.236-.121-.028-.037-.016-.175.021-.196.475-.288.81-.025 1.219.313zM235.93 118.488c.045-.096.057-.188.099-.205.347-.129.702-.254 1.012.067.037.037-.012.225-.074.275-.393.313-.728.163-1.037-.137M276.344 117.941c-.058.251-.207.28-.347.267-.248-.021-.533-.037-.562-.367-.017-.179.169-.208.318-.204a.77.77 0 0 1 .591.3zM235.268 116.649c.083-.058.108-.088.141-.1.302-.1.558-.033.744.229.066.096.008.221-.087.263-.36.162-.591-.008-.798-.396zM279.029 101.899c.513-.208.814-.142 1.145.225-.45.259-.748.167-1.145-.225M272.683 120.53c-.174-.041-.389-.033-.413-.25-.029-.262.21-.233.367-.246.178-.012.376.021.401.242.029.267-.202.221-.355.254M144.897 240.996c-4.454-.06-8.177-1.232-11.544-3.553-3.57-2.461-5.495-5.885-5.81-10.227-.299-4.119.588-7.986 2.708-11.506 3.416-5.665 8.428-9.089 14.822-10.466.738-.159 1.487-.151 2.24-.11.359.019.775.023 1.026.247.607.534 1.356.595 2.071.785 6.345 1.664 11.128 7.326 11.788 13.917.265 2.677.277 5.328-.379 7.959-.678 2.731-1.962 5.101-3.936 7.08-2.941 2.939-6.353 4.987-10.492 5.658-.955.156-1.914.182-2.491.22zm15.016-17.55c-.015-1.046-.116-2.085-.199-3.128-.528-6.545-6.491-12.95-12.634-13.318-1.543-.091-2.951-.049-4.337.667-6.809 3.516-10.915 9.003-11.866 16.743-.326 2.65-.019 5.282 1.086 7.732 2.24 4.971 8.267 8.145 13.612 7.364 4.086-.595 7.453-2.537 10.405-5.339 1.963-1.866 3.146-4.168 3.626-6.841.228-1.282.348-2.575.307-3.88M116.973 206.097c.034-.678.053-1.357.105-2.036.03-.428.064-.868.173-1.285.191-.744.554-1.036 1.176-1.043.678-.004 1.153.311 1.393.967.243.675.277 1.395.393 2.104.315-.075.281-.337.367-.523.341-.728.663-.925 1.42-.872.674.045 1.161.349 1.345 1.031.108.417.183.846.236 1.274.123 1.04.183 2.09.344 3.121.221 1.403-.078 2.674-.906 3.789-.731.982-.959 2.047-.933 3.25.071 3.249-.052 6.499-.21 9.745-.164 3.39-.164 6.788-.179 10.182-.004 1.119-.023 2.237-.24 3.345-.255 1.297-.622 1.733-1.611 1.827-1.24.118-2.206-.398-2.625-1.429-.191-.47-.274-.971-.3-1.479-.135-2.416-.206-4.835-.105-7.254.217-5.233.554-10.459.554-15.7 0-1.096 0-1.179-1.06-1.551-1.307-.459-1.947-1.327-1.981-2.745-.034-1.297-.191-2.594-.3-3.887a6.8 6.8 0 0 1 .057-1.725c.086-.493.243-.922.797-1.021.532-.094.989.073 1.338.493.329.399.415.907.752 1.422m2.446 33.743c.379-.3.438-.702.491-1.077.105-.751.198-1.506.243-2.26.143-2.42-.011-4.835-.176-7.247-.326-4.725-.082-9.454-.052-14.183.007-1.039.408-1.907 1.146-2.593 1.468-1.369 1.367-2.985.835-4.79-.344.395-.228.827-.352 1.187-.12.349-.232.679-.625.812-.858.295-1.888-.3-2.038-1.221-.067-.425-.049-.865-.056-1.297a13.2 13.2 0 0 0-.311-2.659 3.2 3.2 0 0 0-.15.861c-.056 1.119-.093 2.238-.161 3.352-.049.827-.513 1.13-1.296.88-.655-.208-.989-.701-1.052-1.361-.053-.535-.086-1.07-.386-1.619.142 1.649.24 3.234.427 4.808.15 1.244.805 1.752 2.019 1.714.753-.023.872.046.944.815.093 1.005.161 2.018.176 3.026.056 4.191-.158 8.373-.3 12.56-.094 2.779-.202 5.559.094 8.331.071.671.123 1.35.58 1.961M173.97 224.474c.037 2.34.09 5.627-.191 8.908-.165 1.941-.33 3.887-.813 5.783-.026.106-.037.212-.064.318-.299 1.123-.775 1.563-1.644 1.506-.97-.061-1.805-.751-1.951-1.703a14 14 0 0 1-.161-2.048c-.034-4.44-.045-8.885-.068-13.325 0-.433-.034-.865-.082-1.293-.041-.376-.184-.679-.622-.759-.906-.17-1.154-.849-1.221-1.672-.135-1.657-.277-3.314-.214-4.975.132-3.394 0-6.792.203-10.182.093-1.551.775-2.734 2.045-3.584 1.464-.978 3.214-.292 3.558 1.441.184.918.289 1.858.341 2.791.333 5.946.809 11.889.884 18.794m-3.266-22.172c-.292-.05-.409.11-.498.254-.903 1.498-1.607 3.075-1.521 4.876.082 1.695.161 3.39.112 5.086a557 557 0 0 0-.138 5.631q-.02 1.244.161 2.484c.056.402.187.667.644.705.644.053.873.538 1.011 1.1.131.531.116 1.073.135 1.615.127 3.97-.052 7.941-.049 11.911 0 .865-.003 1.733.027 2.598.018.515.097 1.031.517 1.41.359-.276.37-.629.453-.929.191-.697.236-1.422.296-2.142.449-5.559.123-11.115-.094-16.667-.086-2.165-.165-4.33-.348-6.488-.131-1.547-.281-3.094-.251-4.645.033-1.843-.09-3.682-.165-5.521-.019-.463-.068-.914-.292-1.282z"/><path fill="#a39d79" d="M155.055 220.568c-.124 3.277-.615 5.867-1.768 8.331-1.573 3.356-4.18 4.942-7.802 4.722-4.027-.243-7.091-2.223-9.207-5.658-1.067-1.733-1.285-3.648-.771-5.635 1.089-4.217 3.374-7.391 7.641-8.722 2.502-.781 5.007-.603 7.423.436 2.484 1.069 4.667 3.561 4.484 6.526m-1.985 1.593c.03-3.538-.705-5.283-2.772-6.743-1.45-1.023-3.102-1.577-4.847-1.001a9.47 9.47 0 0 0-4.51 3.167c-1.243 1.577-2.067 3.367-2.543 5.316-1.06 4.342 1.004 8.07 5.465 9.458 1.693.527 3.386.296 4.948-.637 1.337-.8 2.262-1.961 2.914-3.364.992-2.135 1.262-4.418 1.341-6.196zM245.902 314.57c.331-6.848.904-13.696 1.747-20.497-.532-.205-.829.069-1.153.213-2.942 1.294-5.869 2.602-8.81 3.896-1.533.671-3.107 1.274-4.737 1.664-.601.144-.821.384-.849 1.014-.18 4.342-.387 8.684-.732 13.019-.283 3.506-.994 6.957-1.367 10.45-.055.5-.186.897-.739 1.041-.573.144-.787.664-1.001 1.096-1.581 3.28-7.167 2.404-8.782-.26-.601-.993-.642-2.007-.09-3.034 1.167-2.171 3.397-3.246 5.862-2.883.683.102 1.318.438 2.016.41.186-.486.131-.951.103-1.41-.221-3.294.111-6.561.422-9.828.207-2.205.483-4.41.731-6.615q.03-.28.069-.548c.546-3.116.56-3.082 3.453-4.349 4.895-2.157 9.79-4.321 14.741-6.362 1.063-.438 2.119-.698 3.258-.541 1.63.219 2.203.856 2.155 2.479-.09 2.774-.449 5.527-.808 8.28-.642 4.951-1.298 9.903-1.954 14.847-.021.185-.111.377-.069.548.393 1.582-.435 2.506-1.699 3.239-.517.302-.987.699-1.436 1.089-1.774 1.548-5.102 1.13-6.642-.171-1.098-.938-1.457-2.109-1.022-3.486.822-2.595 2.845-3.849 5.6-3.465.538.075 1.056.342 1.733.171zm-4.074 4.965c0 .918.608 1.808 1.278 1.692 1.194-.206 2.057-1.034 2.927-1.794.594-.514-.131-1.021-.062-1.541.021-.178-.035-.37-.028-.555.049-.788-.531-1.007-1.104-1.219-.601-.226-1.188-.267-1.658.281-.773.904-1.242 1.945-1.353 3.129zm-18.994 5.609c0 .829.49 1.678 1.022 1.856.656.219 1.036-.253 1.409-.651a20 20 0 0 0 1.16-1.376c.938-1.185.925-1.315-.242-2.329a7 7 0 0 0-.663-.5c-.207-.136-.456-.171-.656-.013-1.049.822-1.823 1.821-2.037 3.006zM272.7 332.985c.332-6.848.905-13.696 1.747-20.497-.531-.205-.828.069-1.153.213-2.941 1.294-5.869 2.602-8.81 3.896-1.533.671-3.107 1.274-4.736 1.664-.601.144-.822.384-.85 1.014-.179 4.342-.386 8.684-.731 13.019-.283 3.506-.995 6.958-1.367 10.45-.056.5-.187.897-.739 1.041-.573.144-.787.664-1.001 1.096-1.581 3.28-7.167 2.404-8.776-.26-.601-.993-.642-2.007-.09-3.034 1.167-2.171 3.397-3.246 5.862-2.883.684.102 1.319.438 2.016.411.187-.487.131-.952.104-1.411-.221-3.294.11-6.561.421-9.827.207-2.206.483-4.411.732-6.616.021-.185.041-.37.069-.548.545-3.116.559-3.082 3.445-4.349 4.895-2.157 9.791-4.321 14.741-6.362 1.063-.438 2.12-.698 3.259-.541 1.629.22 2.203.856 2.154 2.479-.09 2.774-.449 5.527-.808 8.28-.642 4.951-1.298 9.903-1.954 14.847-.02.185-.11.377-.069.548.394 1.582-.435 2.507-1.698 3.239-.518.302-.987.699-1.436 1.089-1.775 1.548-5.103 1.13-6.642-.171-1.098-.938-1.457-2.109-1.022-3.486.822-2.595 2.845-3.849 5.599-3.465.539.075 1.057.342 1.733.171zm-4.073 4.959c0 .917.607 1.807 1.277 1.691 1.195-.205 2.058-1.034 2.928-1.794.593-.514-.132-1.021-.063-1.541.021-.178-.041-.37-.027-.555.048-.787-.532-1.006-1.105-1.219-.601-.226-1.187-.267-1.657.281-.773.904-1.243 1.945-1.353 3.13zm-18.994 5.615c0 .829.49 1.678 1.022 1.856.656.219 1.035-.253 1.408-.651a20 20 0 0 0 1.16-1.376c.939-1.185.925-1.315-.242-2.328a7 7 0 0 0-.662-.5c-.208-.137-.456-.172-.656-.014-1.05.822-1.823 1.822-2.037 3.006zM119.786 421.848c.004.736.041 1.438-.112 2.129-.063.292-.06.639-.488.632-.35-.008-.522-.232-.607-.561-.324-1.199-.548-2.417-.738-3.643-.41-2.589-.451-5.204-.548-7.815-.041-1.054.228-1.349 1.271-1.581.983-.22 1.986-.254 2.992-.257 1.166 0 2.328-.012 3.602-.015-.149-1.383-.305-2.698-.424-4.017-.138-1.531-.425-3.056-.325-4.606.019-.303.034-.605.079-.901.119-.754.253-.915 1.009-1.001 1.297-.146 2.601-.175 3.905-.19.425-.004.86.048 1.267-.12-.57-2.458-1.073-4.875-1.331-7.338-.175-1.666.097-1.991 1.774-2.189.734-.086 1.468-.06 2.202-.056h1.654c-.92-2.38-.797-4.801-1.025-7.173-.011-.131 0-.269.008-.404.074-.963.231-1.191 1.185-1.285a58 58 0 0 1 4.001-.273c2.604-.078 5.212-.089 7.82-.164 2.142-.063 4.277.034 6.416.15.235.011.469.026.697.071 1.229.254 1.576.687 1.516 1.935-.101 2.208-.194 4.42-.332 6.628-.033.552.134.769.682.829.563.06 1.125.134 1.673.314 1.229.407 1.643.881 1.677 2.178.029 1.173.022 2.35-.157 3.512-.197 1.296-.238 2.604-.339 3.904-.052.695-.022.706.693.799.861.113 1.725.217 2.586.329.164.023.331.041.495.079 1.435.336 1.829.885 1.662 2.361-.265 2.298-.492 4.599-.947 6.867-.13.654-.104.676.544.754.895.105 1.804.124 2.675.389.258.078.515.142.768.228 1.684.583 2.343 1.528 2.332 3.317-.011 1.749-.298 3.471-.48 5.205-.123 1.199-.302 2.395-.447 3.59-.116.934-.112.934.838.908 1.036-.026 1.471.388 1.49 1.427.019 1.013-.242 1.319-1.274 1.382-1.867.113-3.737.187-5.611.116-4.042-.153-8.081-.429-12.131-.287-2.105.074-4.21.115-6.315.186-.827.03-.853.053-.745.871.156 1.195.354 2.383.537 3.575.286 1.88 1.344 3.251 2.838 4.327 1.681 1.214 3.573 1.939 5.582 2.394 1.106.251 2.216.505 3.315.789.615.157 1.222.355 1.737.754.216.169.435.359.357.662-.078.299-.357.388-.629.411-1.04.086-2.068-.053-3.093-.213-3.304-.516-6.617-.942-9.955-1.147-2.41-.15-4.81.052-7.213.168q-3.654.18-7.313.31c-.637.022-1.267-.09-1.833-.426-.146-.086-.276-.202-.25-.4.026-.201.194-.272.354-.302a106 106 0 0 1 2.172-.378c1.33-.216 2.582-.653 3.8-1.233 1.804-.863 2.944-2.271 3.506-4.165.44-1.48.693-3 1.029-4.506.081-.359.152-.717.227-1.068-.213-.281-.503-.187-.749-.169-4.75.322-9.489-.033-14.232-.171-1.636-.049-3.275.033-4.911.067-.67.015-1.333-.015-1.989-.172-1.353-.325-2.329-1.678-2.198-3.049.037-.384.272-.44.547-.414.399.033.794.108 1.189.186 2.708.538 5.451.531 8.193.494 1.836-.023 3.677-.079 5.514-.142.592-.023 1.207.086 1.766-.239a.5.5 0 0 1 .383-.042c1.308.494 2.657.184 3.972.131 1.598-.063 3.197-.052 4.795-.101 6.952-.224 13.9.056 20.853.258.834.026 1.672.03 2.507.079.495.026.734-.116.741-.658.015-1.057.082-2.111.131-3.213-3.204 1.872-6.487 1.681-9.803 1.031-1.352-.265-2.634-.766-3.748-1.614-.35-.269-.581-.276-.946.019-1.993 1.614-4.288 2.253-6.833 2.04-1.68-.138-3.189-.688-4.471-1.816-.123-.108-.26-.198-.432-.329-1.226 1.173-2.679 1.887-4.266 2.376-2.69.83-5.074.198-7.257-1.445-.708-.535-.701-.565-1.498-.068-2.232 1.394-4.527 1.45-6.885.363-.175-.082-.332-.239-.671-.165zm-.276-6.258c.011 1.375.011 2.749.119 4.121.03.377.071.724.373 1.001.834.766 1.766 1.307 2.928 1.382 1.576.101 2.832-.631 4.046-1.502.395-.284.481-.553.246-1.001a3.7 3.7 0 0 1-.432-1.939c.049-.803.447-1.427 1.051-1.554.726-.153 1.419-.011 1.948.53.511.52.615 1.162.399 1.865a3.8 3.8 0 0 1-.723 1.311c-.242.299-.313.557-.067.893 1.036 1.412 2.411 2.331 4.165 2.197 2.187-.168 4.11-1.102 5.712-2.653.339-.329.402-.628.175-1.053a2.45 2.45 0 0 1-.265-1.465c.12-1.031.686-1.592 1.517-1.483.931.123 1.386.792 1.218 1.827-.041.261-.067.571-.216.766-.607.792-.164 1.356.347 1.924.599.668 1.337 1.12 2.213 1.296 2.514.504 4.679-.247 6.59-1.883.544-.463.798-.945.373-1.636-.175-.28-.201-.635-.149-.979.089-.583.469-.99 1.024-1.091 1.338-.243 2.236.785 1.804 2.073-.064.191-.127.396-.246.546-.339.415-.168.732.141 1.046a5.6 5.6 0 0 0 2.385 1.423c2.153.662 4.344.651 6.553.389 1.681-.198 2.716-1.326 3.745-2.488.141-.161.186-.351.193-.557.045-1.308.142-2.615.116-3.919-.034-1.554-.209-1.696-1.721-1.857a17 17 0 0 0-1.301-.082c-1.538-.034-3.073-.052-4.612-.078-8.29-.135-16.579-.307-24.869-.606-3.577-.127-7.15-.243-10.726-.358a18 18 0 0 0-3.003.142c-.898.119-1.025.246-1.051 1.132-.019.769 0 1.543 0 2.312zm25.45-9.471c.339.015.608.033.872.037 4.177.064 8.353.221 12.518.531.835.063 1.669.097 2.5.16.44.034.686-.097.734-.582.09-.934.239-1.861.321-2.795.067-.725.041-.732-.652-.807-.663-.071-1.33-.131-1.997-.198-.198-.022-.403-.086-.585.045-.488.347-.961.205-1.409-.06a1.9 1.9 0 0 0-.849-.258c-2.597-.235-5.19-.497-7.787-.71-5.599-.463-11.214-.564-16.829-.504-1.669.019-3.342.064-5.011.075-.395 0-.622.041-.573.538.111 1.165.182 2.339.246 3.508.018.332.16.478.48.508.663.064 1.326.168 1.993.213 3.037.205 6.081-.093 9.117.041.082.004.127-.041.134-.157-.156-.329-.369-.672-.48-1.046-.243-.826.287-1.408 1.125-1.274.689.112 1.233.486 1.688 1.005.208.239.331.575.659.706.264-.22.477-.441.726-.601.958-.617 2.005-.957 3.141-.684.969.232 1.133.874.488 1.621-.171.198-.439.303-.573.684zm-5.178.721c-.205-.228-.451-.176-.675-.209-2.895-.441-5.804-.187-8.71-.217a30 30 0 0 1-3.298-.198c-.335-.041-.603-.019-.581.437q.084 1.856.134 3.717c.011.359.201.46.507.464.268.003.533.018.801.022 3.04.075 6.08.153 9.12.224 7.716.18 15.436.355 23.152.531.168.004.335-.004.503.007.439.034.574-.187.585-.601a67 67 0 0 1 .134-3.011c.03-.482-.164-.654-.626-.673-2.47-.105-4.937-.321-7.41-.344-3.309-.033-6.617-.078-9.922-.115-.287 0-.585-.064-.842.104 0 .452.209.773.458 1.028.824.848 1.971.93 3.19 1.158-.891.343-1.137.265-2.78-.292-.92-.314-1.52-.99-2.142-1.711-.831 1.741-2.306 2.208-3.905 2.391-.54.064-1.162-.015-1.583-.818.928.348 1.643.191 2.332-.194.716-.4 1.327-.882 1.561-1.7zm8.14-15.609c-4.944-.086-9.88.224-14.824.16-.399-.003-.798.056-1.2.083-.447.029-.615.28-.678.709-.298 2.081 1.211 3.594 2.545 3.957a6.16 6.16 0 0 0 3.271.011c.868-.239.864-.243.555-1.132a3 3 0 0 1-.16-.579c-.146-1.024.409-1.618 1.438-1.521.294.027.596.105.864.232.693.329.876.874.552 1.577-.097.209-.261.388-.369.594-.146.272-.637.358-.462.792.126.314.372.553.633.766.317.257.674.422 1.081.497 1.385.257 2.645-.086 3.833-.793.268-.16.373-.332.19-.646a2.13 2.13 0 0 1-.164-1.838c.246-.702.831-1.001 1.595-.822.771.183 1.118.695.987 1.48-.063.369-.197.721-.439 1.001-.321.377-.213.624.134.911 1.225 1.013 3.092 1.076 4.389.142.301-.216.413-.407.108-.709a3.2 3.2 0 0 1-.716-1.084c-.383-.96.172-1.692 1.196-1.606 1.498.127 2.195 1.274 1.617 2.667-.208.501-.082.691.444.594.73-.138 1.389-.467 1.997-.893.249-.175.279-.426.294-.706.048-.803.115-1.603.171-2.402.064-.878.064-.889-.786-1.005-2.686-.366-5.395-.348-8.1-.437zm8.599 5.645c-1.051.489-2.146.65-3.271.265-.268-.093-.44.082-.633.206-1.983 1.281-3.987 1.188-5.947 0-.529-.322-.879-.314-1.423-.041-2.217 1.12-4.381.997-6.404-.505-.302-.224-.541-.295-.898-.172-1.36.475-2.742.486-4.151.202-.681-.138-1.3-.441-2.064-.728.239 1.229.455 2.335.664 3.44.078.408.368.426.685.404 1.803-.131 3.61 0 5.413-.019 4.281-.033 8.555.172 12.813.602 1.561.157 3.13.291 4.694.426.746.063.749.048.734-.65-.014-.804-.018-1.607-.044-2.414-.011-.325.078-.672-.172-1.016zm-20.659-10.226c-.015 1.136.183 2.182.391 3.225.064.31.239.448.559.444.701-.011 1.401.008 2.101-.015 3.234-.104 6.472-.213 9.71-.131 1.367.034 2.734.116 4.102.172.797.034.808.03.771-.721a133 133 0 0 0-.205-3.205c-.052-.68-.067-.706-.701-.609-2.246.336-4.515.426-6.769.676-.596.063-1.189.161-1.777.258-.302.048-.388.254-.246.515.238.43.499.845.779 1.312-.567.246-.924-.056-1.282-.352q-.611-.5-1.285-.044c-.194.13-.369.291-.619.306-.168.007-.354 0-.443-.161-.112-.19.067-.291.182-.403.306-.307.783-.467.928-1.046-2.116.108-4.132-.209-6.2-.217zm9.817-.818c.615-.045 1.148-.078 1.677-.123 1.695-.142 3.394-.273 5.085-.437.82-.079.82-.105.876-.889.034-.501.071-1.002.097-1.502.041-.785.037-.8-.704-.86-.6-.048-1.2-.078-1.8-.078-3.506 0-7.008.075-10.506.299-1.233.078-2.467.131-3.7.209-.808.049-.905.135-.946.96-.026.568.037 1.14.007 1.704-.022.519.183.698.69.717 1.266.041 2.533.135 3.8.194.205.012.458.142.618-.115-.566-1.2-.559-1.633.041-2.059.313-.22.667-.306 1.043-.288.652.034 1.088.423 1.401.942.332-.165.585-.336.868-.426.622-.198 1.2-.06 1.662.4.488.482-.101.837-.212 1.352zm-4.232 42.587c0 2.063-.361 4.002-.961 5.888-.66 2.07-1.945 3.635-3.909 4.611-.316.156-.685.246-1.046.661 5.182-.4 10.204-.426 15.249.19-.295-.347-.701-.418-1.055-.571-1.918-.837-3.688-1.876-5.07-3.493-.894-1.047-1.468-2.231-1.572-3.617-.068-.9-.135-1.801-.164-2.705-.038-1.083-.019-1.087-1.129-1.023-.097.003-.194.037-.336.063zm-12.835-.908c.026.019.071.086.119.09 2.362.15 4.728.161 7.09.079.246-.008.47-.064.622-.266.295-.388.604-.773.816-1.266-.771-.034-1.456-.038-2.138-.101-.954-.09-1.804-.023-2.206 1.039-.022.059-.082.104-.127.153-.339.381-.67.385-.991-.019.071-.389.541-.605.455-1.068-1.457-.142-2.921-.389-3.644 1.359zm-.306-1.311c-1.192-.127-2.283.045-3.375.011-1.084-.033-1.181.064-1.569 1.315l4.479.045q-.034-.53.469-1.371zm13.875 1.057c.279.206.581.225.738-.003.368-.546.804-.318 1.237-.176 1.639.531 2.09.277 2.85-1.233-.887.008-1.751.097-2.59 0-1.188-.142-1.74.531-2.231 1.42zm-4.616.296c1.036.097 1.93-.071 2.831-.06.213 0 .414-.049.526-.232.246-.415.64-.747.752-1.3-.927-.09-1.792.034-2.656.037a.73.73 0 0 0-.604.299c-.283.363-.611.695-.845 1.252zm18.837-1.543c-1.006-.045-1.93-.098-2.85-.124-.883-.026-1.286.299-1.591 1.256.872 0 1.74-.064 2.593.015.868.078 1.472-.169 1.852-1.147zm4.955 1.382c.879.037 1.669.078 2.459.108 1.017.038 1.237-.138 1.542-1.236-.726-.034-1.449-.023-2.164-.105-.894-.105-1.45.269-1.833 1.237zm-14.128-.165c.853-.014 1.569-.07 2.28-.026.924.056 1.375-.422 1.677-1.27-.619-.026-1.185 0-1.733-.086-1.065-.16-1.635.437-2.224 1.386zm-24.41-1.075c-.552-.027-1.018-.042-1.483-.068-1.14-.063-1.45.172-1.751 1.356.063.023.123.064.186.064.469.004.935 0 1.404 0q1.17-.004 1.644-1.352m37.778.003c-.812-.037-1.539-.078-2.265-.097-.805-.019-1.144.254-1.461 1.158.742.034 1.472.068 2.202.097q1.032.042 1.524-1.158m-18.647-19.991c1.267-.023 2.016-.579 2.533-1.506-1.047.079-1.829.579-2.533 1.506m-22.779 19.719c-.633-.098-1.118-.269-1.684-.161.164.609.235 1.192.745 1.647.403-.418.652-.866.939-1.486m50.088.657c.008-.161-.074-.261-.227-.261-.291-.004-.723.481-.756.836-.019.195.052.314.264.333.399.03.704-.351.715-.904zm-27.115-40.667q.105-.041.212-.082c-.041-.389-.086-.777-.127-1.162-.015-.146-.111-.28-.238-.261-.104.015-.242.142-.276.25-.179.545.082.923.432 1.255zm2.82-1.154c-.618.183-1.073.527-1.356 1.292.663-.381 1.162-.672 1.356-1.292m-4.609 21.441c-.391-1.013-.432-1.065-1.155-1.513.168.62.537 1.024 1.155 1.513m-1.367-11.518q.269-.363.119-.766c-.223.231-.309.471-.119.766m27.332 32.335c-.168.067-.269.198-.254.366.008.097.146.105.239.071.126-.048.223-.134.208-.284-.011-.104-.078-.164-.193-.153M273.992 504.611c0 5.413-1.382 10.499-3.663 15.37a14.4 14.4 0 0 1-1.366 2.323c-3.993 5.502-8.877 9.925-15.216 12.664-4.266 1.845-8.684 2.427-13.248 1.773-4.137-.591-8.218-1.477-12.098-3.098-.868-.36-1.712-.775-2.555-1.19-3.037-1.509-4.997-4.008-6.507-6.931-.209-.407-.354-.838-.338-1.293.04-1.054.514-1.996 1.735-1.805.442.072.9.08 1.35.136.482.056.956.136 1.438-.088.305-.144.667-.12 1.004-.08 2.828.32 5.576-.135 8.179-1.189 5.093-2.06 9.753-4.831 13.649-8.776 2.065-2.091 3.679-4.439 4.732-7.17 1.607-4.136 2.852-8.376 3.053-12.823.313-6.715-1.406-12.815-5.945-17.965-.394-.448-.796-.903-1.141-1.39-.386-.535-.281-.798.353-.934 1.165-.247 2.338-.152 3.479.088 5.342 1.134 9.881 3.737 13.657 7.641a25.5 25.5 0 0 1 4.234 5.797c2.025 3.817 3.784 7.737 4.571 12.017.418 2.283.643 4.591.651 6.915zM222.6 523.83c.539.846 1.069 1.604 1.519 2.411 1.47 2.627 3.631 4.423 6.395 5.605 2.956 1.262 6.049 2.02 9.166 2.755 3.695.87 7.238.479 10.725-.926 5.961-2.404 10.693-6.34 14.461-11.466.803-1.094 1.494-2.26 2.008-3.506 1.864-4.487 2.812-9.158 2.643-14.013-.233-6.89-2.105-13.342-5.535-19.346-2.683-4.687-6.395-8.288-11.352-10.556-.361-.168-.723-.375-1.213-.399.097.159.137.271.209.335 2.965 2.819 4.587 6.38 5.487 10.26 1.334 5.733 1.02 11.41-.651 17.071-2.008 6.827-5.961 12.193-11.817 16.201a39.6 39.6 0 0 1-9.882 4.871c-3.944 1.309-7.969 1.812-12.171.687z"/><circle cx="197" cy="40" r="5" fill="#a39d79"/><circle cx="197" cy="133" r="5" fill="#a39d79"/><circle cx="197" cy="226" r="5" fill="#a39d79"/><circle cx="197" cy="319" r="5" fill="#a39d79"/><circle cx="197" cy="412" r="5" fill="#a39d79"/><circle cx="197" cy="505" r="5" fill="#a39d79"/><path fill="#60593c" d="M311.726 37h-.418c-.088-.308-.176-.616-.264-.77-.572.594-1.518 1.056-2.376 1.056-2.31 0-4.18-1.782-4.18-3.96 0-2.156 1.87-3.938 4.18-3.938.858 0 1.804.418 2.354 1.034.11-.176.198-.484.286-.748h.418v3.014h-.44c-.352-1.628-1.276-2.618-2.618-2.618-1.98 0-2.508 1.848-2.508 3.256s.528 3.256 2.508 3.256c1.342 0 2.266-.99 2.618-2.618h.44zm8.743-7.326.154 2.068h-.352l-.11-.418c-.198-.726-.44-.99-2.002-.99h-1.21v2.464c1.716 0 1.848-.154 1.848-1.298h.418v3.278h-.418c0-1.144-.132-1.298-1.848-1.298v1.012c0 1.562.198 1.826 1.342 1.826h.308c1.562 0 1.804-.264 2.002-.99l.11-.396h.33L320.909 37h-6.908v-.418c1.232 0 1.43-.286 1.43-1.848v-2.816c0-1.562-.198-1.826-1.43-1.826v-.418zm7.792 2.134c0-.792-.44-1.474-1.43-1.474h-.902v2.926h.902c.99 0 1.43-.682 1.43-1.452m-1.958 2.134h-.374v.792c0 1.562.198 1.848 1.43 1.848V37h-4.378v-.418c1.232 0 1.43-.286 1.43-1.848v-2.816c0-1.562-.198-1.826-1.43-1.826v-.418h3.872c1.936 0 2.97.924 2.97 2.134 0 .968-.726 1.826-2.09 2.068l1.012 1.1c.88.968 1.518 1.474 2.464 1.606V37h-2.464zm12.363-4.268.154 2.068h-.352l-.11-.418c-.198-.726-.44-.99-2.002-.99h-1.21v2.464c1.716 0 1.848-.154 1.848-1.298h.418v3.278h-.418c0-1.144-.132-1.298-1.848-1.298v1.012c0 1.562.198 1.826 1.342 1.826h.308c1.562 0 1.804-.264 2.002-.99l.11-.396h.33L339.106 37h-6.908v-.418c1.232 0 1.43-.286 1.43-1.848v-2.816c0-1.562-.198-1.826-1.43-1.826v-.418zM351.804 37h-4.202v-.418c1.232 0 1.43-.286 1.43-1.848v-3.212l-2.684 5.764h-.374l-2.662-5.72v3.168c0 1.562.198 1.848 1.43 1.848V37H341.2v-.418c1.232 0 1.43-.286 1.43-1.848v-2.816c0-1.562-.198-1.826-1.43-1.826v-.418h2.706l2.618 5.61 2.618-5.61h2.662v.418c-1.232 0-1.43.264-1.43 1.826v2.816c0 1.562.198 1.848 1.43 1.848zm10.853-3.674c0 2.178-1.98 3.96-4.4 3.96s-4.4-1.782-4.4-3.96c0-2.156 1.98-3.938 4.4-3.938s4.4 1.782 4.4 3.938m-1.65 0c0-1.43-.704-3.256-2.75-3.256-2.024 0-2.728 1.826-2.728 3.256 0 1.452.704 3.256 2.728 3.256 2.046 0 2.75-1.804 2.75-3.256m12.827-3.234c-1.232 0-1.43.264-1.43 1.826v5.346h-.462l-5.126-5.456v2.926c0 1.562.198 1.848 1.43 1.848V37h-3.542v-.418c1.232 0 1.43-.286 1.43-1.848v-2.816c0-1.562-.198-1.826-1.43-1.826v-.418h2.178l4.84 5.126v-2.882c0-1.562-.198-1.826-1.43-1.826v-.418h3.542zM379.953 37h-4.378v-.418c1.232 0 1.43-.286 1.43-1.848v-2.816c0-1.562-.198-1.826-1.43-1.826v-.418h4.378v.418c-1.232 0-1.43.264-1.43 1.826v2.816c0 1.562.198 1.848 1.43 1.848zm4.051-2.376-.33.726c-.418.88-.418 1.232.946 1.232V37h-3.498v-.418c1.1 0 1.298-.286 1.848-1.496l2.684-5.698h.396l2.662 5.698c.55 1.188.77 1.496 1.76 1.496V37h-4.246v-.418c1.254 0 1.386-.352.968-1.232l-.33-.726zm2.53-.66-1.1-2.354-1.1 2.354zm-72.463 10.844c0-.792-.44-1.474-1.43-1.474h-.902v2.926h.902c.99 0 1.43-.682 1.43-1.452m-1.958 2.134h-.374v.792c0 1.562.198 1.848 1.43 1.848V50h-4.378v-.418c1.232 0 1.43-.286 1.43-1.848v-2.816c0-1.562-.198-1.826-1.43-1.826v-.418h3.872c1.936 0 2.97.924 2.97 2.134 0 .968-.726 1.826-2.09 2.068l1.012 1.1c.88.968 1.518 1.474 2.464 1.606V50h-2.464zm12.363-4.268.154 2.068h-.352l-.11-.418c-.198-.726-.44-.99-2.002-.99h-1.21v2.464c1.716 0 1.848-.154 1.848-1.298h.418v3.278h-.418c0-1.144-.132-1.298-1.848-1.298v1.012c0 1.562.198 1.826 1.342 1.826h.308c1.562 0 1.804-.264 2.002-.99l.11-.396h.33L324.916 50h-6.908v-.418c1.232 0 1.43-.286 1.43-1.848v-2.816c0-1.562-.198-1.826-1.43-1.826v-.418zm5.46 4.818c0 1.562.198 1.826 1.342 1.826h.77c1.584 0 1.826-.264 2.002-.99l.11-.396h.352L334.358 50h-7.37v-.418c1.232 0 1.43-.286 1.43-1.848v-2.816c0-1.562-.198-1.826-1.43-1.826v-.418h4.378v.418c-1.232 0-1.43.264-1.43 1.826zM339.809 50h-4.378v-.418c1.232 0 1.43-.286 1.43-1.848v-2.816c0-1.562-.198-1.826-1.43-1.826v-.418h4.378v.418c-1.232 0-1.43.264-1.43 1.826v2.816c0 1.562.198 1.848 1.43 1.848zm6.317.286c-2.31 0-4.18-1.782-4.18-3.96 0-2.156 1.87-3.938 4.18-3.938.858 0 1.804.418 2.354 1.034.11-.176.198-.484.286-.748h.418v3.014h-.44c-.352-1.628-1.276-2.618-2.618-2.618-1.98 0-2.508 1.848-2.508 3.256s.528 3.256 2.508 3.256c1.122 0 2.046-.396 2.046-1.408 0-.748-.33-1.034-1.386-1.034v-.418h4.158v.418c-1.232 0-1.43.264-1.43 1.826v.66c-.946 0-2.464.66-3.388.66M356.632 50h-4.378v-.418c1.232 0 1.43-.286 1.43-1.848v-2.816c0-1.562-.198-1.826-1.43-1.826v-.418h4.378v.418c-1.232 0-1.43.264-1.43 1.826v2.816c0 1.562.198 1.848 1.43 1.848zm10.849-3.674c0 2.178-1.98 3.96-4.4 3.96s-4.4-1.782-4.4-3.96c0-2.156 1.98-3.938 4.4-3.938s4.4 1.782 4.4 3.938m-1.65 0c0-1.43-.704-3.256-2.75-3.256-2.024 0-2.728 1.826-2.728 3.256 0 1.452.704 3.256 2.728 3.256 2.046 0 2.75-1.804 2.75-3.256m9.527 1.606c0 1.386-1.21 2.354-2.662 2.354-.88 0-1.672-.462-2.002-.748-.11.11-.308.44-.352.748h-.418V47.25h.462c.154 1.452 1.166 2.31 2.464 2.31.704 0 1.276-.396 1.276-1.056 0-.572-.506-1.012-1.408-1.43l-1.232-.594c-.902-.418-1.54-1.144-1.54-2.112 0-1.056.99-1.958 2.332-1.958.726 0 1.342.264 1.738.572.088-.088.22-.33.264-.594h.418v2.596h-.462c-.154-1.034-.726-1.892-1.87-1.892-.638 0-1.21.352-1.21.902 0 .572.462.88 1.518 1.364l1.232.594c1.056.506 1.452 1.32 1.452 1.98m4.123-.308-.33.726c-.418.88-.418 1.232.946 1.232V50h-3.498v-.418c1.1 0 1.298-.286 1.848-1.496l2.684-5.698h.396l2.662 5.698c.55 1.188.77 1.496 1.76 1.496V50h-4.246v-.418c1.254 0 1.386-.352.968-1.232l-.33-.726zm2.53-.66-1.1-2.354-1.1 2.354zM310.404 228h-.418c-.088-.308-.176-.616-.264-.77-.572.594-1.518 1.056-2.376 1.056-2.31 0-4.18-1.782-4.18-3.96 0-2.156 1.87-3.938 4.18-3.938.858 0 1.804.418 2.354 1.034.11-.176.198-.484.286-.748h.418v3.014h-.44c-.352-1.628-1.276-2.618-2.618-2.618-1.98 0-2.508 1.848-2.508 3.256s.528 3.256 2.508 3.256c1.342 0 2.266-.99 2.618-2.618h.44zm8.742-7.326.154 2.068h-.352l-.11-.418c-.198-.726-.44-.99-2.002-.99h-1.21v2.464c1.716 0 1.848-.154 1.848-1.298h.418v3.278h-.418c0-1.144-.132-1.298-1.848-1.298v1.012c0 1.562.198 1.826 1.342 1.826h.308c1.562 0 1.804-.264 2.002-.99l.11-.396h.33l-.132 2.068h-6.908v-.418c1.232 0 1.43-.286 1.43-1.848v-2.816c0-1.562-.198-1.826-1.43-1.826v-.418zm11.665.418c-1.232 0-1.43.264-1.43 1.826v5.346h-.462l-5.126-5.456v2.926c0 1.562.198 1.848 1.43 1.848V228h-3.542v-.418c1.232 0 1.43-.286 1.43-1.848v-2.816c0-1.562-.198-1.826-1.43-1.826v-.418h2.178l4.84 5.126v-2.882c0-1.562-.198-1.826-1.43-1.826v-.418h3.542zm3.531 4.532-.33.726c-.418.88-.418 1.232.946 1.232V228h-3.498v-.418c1.1 0 1.298-.286 1.848-1.496l2.684-5.698h.396l2.662 5.698c.55 1.188.77 1.496 1.76 1.496V228h-4.246v-.418c1.254 0 1.386-.352.968-1.232l-.33-.726zm2.53-.66-1.1-2.354-1.1 2.354zM337.896 409h-.418c-.088-.308-.176-.616-.264-.77-.572.594-1.518 1.056-2.376 1.056-2.31 0-4.18-1.782-4.18-3.96 0-2.156 1.87-3.938 4.18-3.938.858 0 1.804.418 2.354 1.034.11-.176.198-.484.286-.748h.418v3.014h-.44c-.352-1.628-1.276-2.618-2.618-2.618-1.98 0-2.508 1.848-2.508 3.256s.528 3.256 2.508 3.256c1.342 0 2.266-.99 2.618-2.618h.44zm8.743-7.326.154 2.068h-.352l-.11-.418c-.198-.726-.44-.99-2.002-.99h-1.21v2.464c1.716 0 1.848-.154 1.848-1.298h.418v3.278h-.418c0-1.144-.132-1.298-1.848-1.298v1.012c0 1.562.198 1.826 1.342 1.826h.308c1.562 0 1.804-.264 2.002-.99l.11-.396h.33l-.132 2.068h-6.908v-.418c1.232 0 1.43-.286 1.43-1.848v-2.816c0-1.562-.198-1.826-1.43-1.826v-.418zm11.664.418c-1.232 0-1.43.264-1.43 1.826v5.346h-.462l-5.126-5.456v2.926c0 1.562.198 1.848 1.43 1.848V409h-3.542v-.418c1.232 0 1.43-.286 1.43-1.848v-2.816c0-1.562-.198-1.826-1.43-1.826v-.418h2.178l4.84 5.126v-2.882c0-1.562-.198-1.826-1.43-1.826v-.418h3.542zm3.531 4.532-.33.726c-.418.88-.418 1.232.946 1.232V409h-3.498v-.418c1.1 0 1.298-.286 1.848-1.496l2.684-5.698h.396l2.662 5.698c.55 1.188.77 1.496 1.76 1.496V409h-4.246v-.418c1.254 0 1.386-.352.968-1.232l-.33-.726zm2.53-.66-1.1-2.354-1.1 2.354zm-54.179 12.34c0-1.298-.418-2.97-2.706-2.97h-1.056v4.774c0 1.012.11 1.21.902 1.21h.154c2.288 0 2.706-1.672 2.706-3.014m-6.71 3.696v-.418c1.232 0 1.43-.286 1.43-1.848v-2.816c0-1.562-.198-1.826-1.43-1.826v-.418h3.938c3.146 0 4.51 1.65 4.51 3.652s-1.364 3.674-4.51 3.674zm16.996-7.326.154 2.068h-.352l-.11-.418c-.198-.726-.44-.99-2.002-.99h-1.21v2.464c1.716 0 1.848-.154 1.848-1.298h.418v3.278h-.418c0-1.144-.132-1.298-1.848-1.298v1.012c0 1.562.198 1.826 1.342 1.826h.308c1.562 0 1.804-.264 2.002-.99l.11-.396h.33l-.132 2.068h-6.908v-.418c1.232 0 1.43-.286 1.43-1.848v-2.816c0-1.562-.198-1.826-1.43-1.826v-.418zm8.364 5.258c0 1.386-1.21 2.354-2.662 2.354-.88 0-1.672-.462-2.002-.748-.11.11-.308.44-.352.748h-.418v-3.036h.462c.154 1.452 1.166 2.31 2.464 2.31.704 0 1.276-.396 1.276-1.056 0-.572-.506-1.012-1.408-1.43l-1.232-.594c-.902-.418-1.54-1.144-1.54-2.112 0-1.056.99-1.958 2.332-1.958.726 0 1.342.264 1.738.572.088-.088.22-.33.264-.594h.418v2.596h-.462c-.154-1.034-.726-1.892-1.87-1.892-.638 0-1.21.352-1.21.902 0 .572.462.88 1.518 1.364l1.232.594c1.056.506 1.452 1.32 1.452 1.98m10.264-4.84c-1.1 0-1.276.264-1.848 1.474l-2.684 5.72h-.374l-2.684-5.72c-.572-1.188-.77-1.474-1.76-1.474v-.418h4.268v.418c-1.276 0-1.408.352-.99 1.232l1.76 3.74 1.76-3.74c.44-.902.44-1.232-.946-1.232v-.418h3.498zm7.282-.418.154 2.068h-.352l-.11-.418c-.198-.726-.44-.99-2.002-.99h-1.21v2.464c1.716 0 1.848-.154 1.848-1.298h.418v3.278h-.418c0-1.144-.132-1.298-1.848-1.298v1.012c0 1.562.198 1.826 1.342 1.826h.308c1.562 0 1.804-.264 2.002-.99l.11-.396h.33l-.132 2.068h-6.908v-.418c1.232 0 1.43-.286 1.43-1.848v-2.816c0-1.562-.198-1.826-1.43-1.826v-.418zm5.46 4.818c0 1.562.198 1.826 1.342 1.826h.77c1.584 0 1.826-.264 2.002-.99l.11-.396h.352l-.154 2.068h-7.37v-.418c1.232 0 1.43-.286 1.43-1.848v-2.816c0-1.562-.198-1.826-1.43-1.826v-.418h4.378v.418c-1.232 0-1.43.264-1.43 1.826zm7.63.132-.33.726c-.418.88-.418 1.232.946 1.232V422h-3.498v-.418c1.1 0 1.298-.286 1.848-1.496l2.684-5.698h.396l2.662 5.698c.55 1.188.77 1.496 1.76 1.496V422h-4.246v-.418c1.254 0 1.386-.352.968-1.232l-.33-.726zm2.53-.66-1.1-2.354-1.1 2.354zm11.8-.66c0-1.298-.418-2.97-2.706-2.97h-1.056v4.774c0 1.012.11 1.21.902 1.21h.154c2.288 0 2.706-1.672 2.706-3.014m-6.71 3.696v-.418c1.232 0 1.43-.286 1.43-1.848v-2.816c0-1.562-.198-1.826-1.43-1.826v-.418h3.938c3.146 0 4.51 1.65 4.51 3.652s-1.364 3.674-4.51 3.674zm19.459-3.674c0 2.178-1.98 3.96-4.4 3.96s-4.4-1.782-4.4-3.96c0-2.156 1.98-3.938 4.4-3.938s4.4 1.782 4.4 3.938m-1.65 0c0-1.43-.704-3.256-2.75-3.256-2.024 0-2.728 1.826-2.728 3.256 0 1.452.704 3.256 2.728 3.256 2.046 0 2.75-1.804 2.75-3.256m9.527 1.606c0 1.386-1.21 2.354-2.662 2.354-.88 0-1.672-.462-2.002-.748-.11.11-.308.44-.352.748h-.418v-3.036h.462c.154 1.452 1.166 2.31 2.464 2.31.704 0 1.276-.396 1.276-1.056 0-.572-.506-1.012-1.408-1.43l-1.232-.594c-.902-.418-1.54-1.144-1.54-2.112 0-1.056.99-1.958 2.332-1.958.726 0 1.342.264 1.738.572.088-.088.22-.33.264-.594h.418v2.596h-.462c-.154-1.034-.726-1.892-1.87-1.892-.638 0-1.21.352-1.21.902 0 .572.462.88 1.518 1.364l1.232.594c1.056.506 1.452 1.32 1.452 1.98"/><rect width="65" height="25" x="216.5" y="27.5" stroke="#312e25" rx="3.5"/><path fill="#312e25" d="M229.34 47.32q-.639 0-1.44-.44a5.3 5.3 0 0 1-1.42-1.14l.56-2.22q.16 1.9.84 3.04.78.44 1.46.44.9 0 1.3-1.24.42-1.26.42-3.2 0-3-1.28-3.7-.36-.2-.78-.2-1.16 0-2.8 1.54l.02-.32q.86-5.48 1.12-6.88h5.36l-.28 1.4h-5.02l-.82 5.18q1.88-1.48 3.28-1.48 1.14 0 1.86 1.04.74 1.02.74 3.28 0 2.12-.88 3.52-.88 1.38-2.24 1.38m6.018-.22a.68.68 0 0 1-.7-.7q0-.28.2-.48.2-.22.5-.22.28 0 .48.22.22.2.22.48 0 .3-.22.5a.65.65 0 0 1-.48.2m0-3.2a.68.68 0 0 1-.7-.7q0-.28.2-.48.2-.22.5-.22.28 0 .48.22.22.2.22.48 0 .3-.22.5a.65.65 0 0 1-.48.2m5.479 3.42q-1.22 0-2.02-2.06-.8-2.08-.8-5.26t.8-5.24q.8-2.08 2.02-2.08t2 2.08q.78 2.06.78 5.24t-.78 5.26q-.78 2.06-2 2.06m0-.32q.6 0 .98-1.98.4-1.98.4-5.02t-.4-5.02q-.38-1.98-.98-1.98-.621 0-1.02 1.98-.4 1.98-.4 5.02t.4 5.02q.399 1.98 1.02 1.98m6.718.32q-1.22 0-2.02-2.06-.8-2.08-.8-5.26t.8-5.24q.8-2.08 2.02-2.08t2 2.08q.78 2.06.78 5.24t-.78 5.26q-.78 2.06-2 2.06m0-.32q.6 0 .98-1.98.4-1.98.4-5.02t-.4-5.02q-.38-1.98-.98-1.98-.62 0-1.02 1.98t-.4 5.02.4 5.02 1.02 1.98m10.504 0h-1.8l.2-.78V33.78l-.2-.78h2.88q1.28 0 2.1 1.2t.82 3.04q0 1.94-.82 3.2t-2.1 1.26h-1.28v4.52zm1.08-5.62q.64 0 1.06-1.14.44-1.14.46-2.96 0-1.72-.44-2.84-.42-1.12-1.08-1.12h-1.28v8.06zM271.803 47h-1.8l.2-.78V34.7l-2.32 12.3h-1.42l-2.36-12.32v11.54l.2.78h-.72l.2-.78V33.78l-.2-.78h1.82l-.06.76 2.38 12.4 2.34-12.4-.06-.76h1.8l-.2.78v12.44z"/><path fill="#60593c" d="M11.622 133.808c0-.792-.44-1.474-1.43-1.474H9.29v2.926h.902c.99 0 1.43-.682 1.43-1.452m-1.958 2.134H9.29v.792c0 1.562.198 1.848 1.43 1.848V139H6.342v-.418c1.232 0 1.43-.286 1.43-1.848v-2.816c0-1.562-.198-1.826-1.43-1.826v-.418h3.872c1.935 0 2.97.924 2.97 2.134 0 .968-.726 1.826-2.09 2.068l1.011 1.1c.88.968 1.518 1.474 2.464 1.606V139h-2.464zm12.362-4.268.154 2.068h-.352l-.11-.418c-.198-.726-.44-.99-2.002-.99h-1.21v2.464c1.716 0 1.848-.154 1.848-1.298h.418v3.278h-.418c0-1.144-.132-1.298-1.848-1.298v1.012c0 1.562.198 1.826 1.342 1.826h.308c1.562 0 1.804-.264 2.002-.99l.11-.396h.33L22.466 139h-6.908v-.418c1.232 0 1.43-.286 1.43-1.848v-2.816c0-1.562-.198-1.826-1.43-1.826v-.418zm9.97 7.326h-.417c-.088-.308-.176-.616-.264-.77-.572.594-1.518 1.056-2.376 1.056-2.31 0-4.18-1.782-4.18-3.96 0-2.156 1.87-3.938 4.18-3.938.858 0 1.804.418 2.354 1.034.11-.176.198-.484.286-.748h.418v3.014h-.44c-.352-1.628-1.276-2.618-2.618-2.618-1.98 0-2.508 1.848-2.508 3.256s.528 3.256 2.508 3.256c1.342 0 2.266-.99 2.618-2.618h.44zm8.743-7.326.154 2.068h-.352l-.11-.418c-.198-.726-.44-.99-2.002-.99h-1.21v2.464c1.716 0 1.848-.154 1.848-1.298h.418v3.278h-.418c0-1.144-.132-1.298-1.848-1.298v1.012c0 1.562.198 1.826 1.342 1.826h.308c1.562 0 1.804-.264 2.002-.99l.11-.396h.33L41.18 139h-6.908v-.418c1.232 0 1.43-.286 1.43-1.848v-2.816c0-1.562-.198-1.826-1.43-1.826v-.418zm7.77 2.134c0-.792-.44-1.474-1.407-1.474H46.2v2.926h.902c.968 0 1.408-.682 1.408-1.452m-2.31 2.926c0 1.562.199 1.848 1.43 1.848V139h-4.377v-.418c1.232 0 1.43-.286 1.43-1.848v-2.816c0-1.562-.198-1.826-1.43-1.826v-.418h3.85c1.936 0 2.97.924 2.97 2.134 0 1.166-1.034 2.134-2.97 2.134H46.2zM59.133 139h-.418c-.088-.308-.176-.616-.264-.77-.573.594-1.519 1.056-2.376 1.056-2.31 0-4.18-1.782-4.18-3.96 0-2.156 1.87-3.938 4.18-3.938.858 0 1.803.418 2.354 1.034.11-.176.198-.484.286-.748h.418v3.014h-.44c-.352-1.628-1.276-2.618-2.618-2.618-1.98 0-2.508 1.848-2.508 3.256s.527 3.256 2.508 3.256c1.342 0 2.266-.99 2.617-2.618h.44zm6.652 0h-4.378v-.418c1.232 0 1.43-.286 1.43-1.848v-2.816c0-1.562-.198-1.826-1.43-1.826v-.418h4.378v.418c-1.232 0-1.43.264-1.43 1.826v2.816c0 1.562.198 1.848 1.43 1.848zm10.849-3.674c0 2.178-1.98 3.96-4.4 3.96s-4.4-1.782-4.4-3.96c0-2.156 1.98-3.938 4.4-3.938s4.4 1.782 4.4 3.938m-1.65 0c0-1.43-.704-3.256-2.75-3.256-2.024 0-2.728 1.826-2.728 3.256 0 1.452.704 3.256 2.728 3.256 2.046 0 2.75-1.804 2.75-3.256m-.11-7.26c0 .33-.33.594-.506.66l-3.036 1.298-.11-.154 2.068-1.936c.352-.33.594-.506.968-.506.418 0 .616.374.616.638m12.937 4.026c-1.232 0-1.43.264-1.43 1.826v5.346h-.462l-5.126-5.456v2.926c0 1.562.198 1.848 1.43 1.848V139H78.68v-.418c1.232 0 1.43-.286 1.43-1.848v-2.816c0-1.562-.198-1.826-1.43-1.826v-.418h2.178l4.84 5.126v-2.882c0-1.562-.198-1.826-1.43-1.826v-.418h3.542zM64.91 317.092c-1.1 0-1.276.264-1.848 1.474l-2.684 5.72h-.374l-2.684-5.72c-.572-1.188-.77-1.474-1.76-1.474v-.418h4.268v.418c-1.276 0-1.408.352-.99 1.232l1.76 3.74 1.76-3.74c.44-.902.44-1.232-.946-1.232v-.418h3.498zm2.13 4.532-.33.726c-.417.88-.417 1.232.947 1.232V324h-3.498v-.418c1.1 0 1.298-.286 1.848-1.496l2.684-5.698h.396l2.662 5.698c.55 1.188.77 1.496 1.76 1.496V324h-4.246v-.418c1.254 0 1.386-.352.968-1.232l-.33-.726zm2.53-.66-1.1-2.354-1.1 2.354zm8.039.528c0 1.562.198 1.826 1.342 1.826h.77c1.584 0 1.826-.264 2.002-.99l.11-.396h.352L82.03 324h-7.37v-.418c1.232 0 1.43-.286 1.43-1.848v-2.816c0-1.562-.198-1.826-1.43-1.826v-.418h4.378v.418c-1.232 0-1.43.264-1.43 1.826zm11.347.44c0 1.386-1.21 2.354-2.662 2.354-.88 0-1.672-.462-2.002-.748-.11.11-.308.44-.352.748h-.418v-3.036h.462c.154 1.452 1.166 2.31 2.464 2.31.704 0 1.276-.396 1.276-1.056 0-.572-.506-1.012-1.408-1.43l-1.232-.594c-.902-.418-1.54-1.144-1.54-2.112 0-1.056.99-1.958 2.332-1.958.726 0 1.342.264 1.738.572.088-.088.22-.33.264-.594h.418v2.596h-.462c-.154-1.034-.726-1.892-1.87-1.892-.638 0-1.21.352-1.21.902 0 .572.462.88 1.518 1.364l1.232.594c1.056.506 1.452 1.32 1.452 1.98M16.788 502.734c0 1.562.198 1.848 1.43 1.848V505H13.84v-.418c1.232 0 1.43-.286 1.43-1.848v-2.816c0-1.562-.198-1.826-1.43-1.826v-.418h6.71l.176 2.068h-.374l-.11-.418c-.176-.726-.418-.99-2.002-.99h-1.452v2.464c1.716 0 1.848-.154 1.848-1.298h.418v3.278h-.418c0-1.144-.132-1.298-1.848-1.298zM26.833 505h-4.378v-.418c1.232 0 1.43-.286 1.43-1.848v-2.816c0-1.562-.198-1.826-1.43-1.826v-.418h4.378v.418c-1.232 0-1.43.264-1.43 1.826v2.816c0 1.562.198 1.848 1.43 1.848zm11.069-6.908c-1.232 0-1.43.264-1.43 1.826v5.346h-.462l-5.126-5.456v2.926c0 1.562.198 1.848 1.43 1.848V505h-3.542v-.418c1.232 0 1.43-.286 1.43-1.848v-2.816c0-1.562-.198-1.826-1.43-1.826v-.418h2.178l4.84 5.126v-2.882c0-1.562-.198-1.826-1.43-1.826v-.418h3.542zm3.53 4.532-.33.726c-.417.88-.417 1.232.947 1.232V505H38.55v-.418c1.1 0 1.297-.286 1.847-1.496l2.685-5.698h.395l2.663 5.698c.55 1.188.77 1.496 1.76 1.496V505h-4.247v-.418c1.254 0 1.386-.352.968-1.232l-.33-.726zm2.53-.66-1.1-2.354-1.1 2.354zm8.038.528c0 1.562.198 1.826 1.342 1.826h.77c1.584 0 1.826-.264 2.002-.99l.11-.396h.352L56.422 505h-7.37v-.418c1.232 0 1.43-.286 1.43-1.848v-2.816c0-1.562-.198-1.826-1.43-1.826v-.418h4.378v.418c-1.232 0-1.43.264-1.43 1.826zM61.874 505h-4.378v-.418c1.232 0 1.43-.286 1.43-1.848v-2.816c0-1.562-.198-1.826-1.43-1.826v-.418h4.378v.418c-1.232 0-1.43.264-1.43 1.826v2.816c0 1.562.198 1.848 1.43 1.848zm8.583-2.068L70.303 505h-6.358v-.506l4.224-6.16h-1.65c-1.584 0-1.804.264-2.002.99l-.11.418h-.352l.154-2.068h5.918v.44l-4.246 6.204h2.112c1.584 0 1.804-.264 2.002-.99l.11-.396zm3.976-.308-.33.726c-.418.88-.418 1.232.946 1.232V505H71.55v-.418c1.1 0 1.299-.286 1.849-1.496l2.683-5.698h.397l2.662 5.698c.55 1.188.77 1.496 1.76 1.496V505h-4.246v-.418c1.254 0 1.385-.352.968-1.232l-.33-.726zm2.53-.66-1.1-2.354-1.1 2.354zm-43.504 13.924c0-.77-.462-1.408-1.408-1.408h-1.32v1.694c0 .968.11 1.144 1.012 1.144h.308c.946 0 1.408-.66 1.408-1.43m-.638-3.3c0-.66-.374-1.254-1.188-1.254h-.902v2.464h.902c.814 0 1.188-.572 1.188-1.21M27.783 518v-.418c1.232 0 1.43-.286 1.43-1.848v-2.816c0-1.562-.198-1.826-1.43-1.826v-.418h3.938c1.76 0 2.662.836 2.662 1.914 0 .528-.242 1.012-.66 1.386.836.374 1.32 1.1 1.32 1.914 0 1.166-1.034 2.112-2.97 2.112zm18.235-3.674c0 2.178-1.98 3.96-4.4 3.96s-4.4-1.782-4.4-3.96c0-2.156 1.98-3.938 4.4-3.938s4.4 1.782 4.4 3.938m-1.65 0c0-1.43-.704-3.256-2.75-3.256-2.024 0-2.728 1.826-2.728 3.256 0 1.452.704 3.256 2.728 3.256 2.046 0 2.75-1.804 2.75-3.256m10.385-.022c0-1.298-.418-2.97-2.706-2.97H50.99v4.774c0 1.012.11 1.21.902 1.21h.154c2.288 0 2.706-1.672 2.706-3.014M48.043 518v-.418c1.232 0 1.43-.286 1.43-1.848v-2.816c0-1.562-.198-1.826-1.43-1.826v-.418h3.938c3.146 0 4.51 1.65 4.51 3.652S55.127 518 51.98 518zm12.446-2.376-.33.726c-.418.88-.418 1.232.946 1.232V518h-3.498v-.418c1.1 0 1.298-.286 1.848-1.496l2.684-5.698h.396l2.662 5.698c.55 1.188.77 1.496 1.76 1.496V518h-4.246v-.418c1.254 0 1.386-.352.968-1.232l-.33-.726zm2.53-.66-1.1-2.354-1.1 2.354z"/><rect width="65" height="25" x="216.5" y="213.5" stroke="#312e25" rx="3.5"/><path fill="#312e25" d="M229.369 233.32q-1.16 0-1.92-.94t-.8-2.46q0-1.16.54-2.14a6.2 6.2 0 0 1 1.34-1.68 6 6 0 0 1-1.12-1.68q-.42-.94-.42-2.26 0-1.52.66-2.5.68-.98 1.72-.98 1 0 1.62.92.64.92.68 2.38-.04 1.82-1.52 3.46.98.9 1.54 1.9.56.98.56 2.42 0 1.54-.8 2.56-.8 1-2.08 1m0-.32q.84 0 1.36-.9.54-.92.54-2.32 0-.76-.6-1.52a10.2 10.2 0 0 0-1.46-1.52l-.44-.4q-1.14 1.42-1.14 3.56.04 1.38.52 2.24t1.22.86m.5-7.8q.8-1.26.82-3.2-.02-1.32-.4-2.16-.36-.84-.92-.84-.62 0-1 .88-.38.86-.38 2.22 0 1.48 1.68 2.92zm5.04 7.9a.68.68 0 0 1-.5-.2.68.68 0 0 1-.2-.5q0-.28.2-.48.2-.22.5-.22.28 0 .48.22.22.2.22.48 0 .3-.22.5a.66.66 0 0 1-.48.2m0-3.2a.68.68 0 0 1-.5-.2.68.68 0 0 1-.2-.5q0-.28.2-.48.2-.22.5-.22.28 0 .48.22.22.2.22.48 0 .3-.22.5a.66.66 0 0 1-.48.2m5.478 3.42q-1.22 0-2.02-2.06-.8-2.08-.8-5.26t.8-5.24q.8-2.08 2.02-2.08t2 2.08q.78 2.06.78 5.24t-.78 5.26q-.78 2.06-2 2.06m0-.32q.6 0 .98-1.98.4-1.98.4-5.02t-.4-5.02q-.38-1.98-.98-1.98-.62 0-1.02 1.98t-.4 5.02.4 5.02 1.02 1.98m6.719.32q-1.22 0-2.02-2.06-.8-2.08-.8-5.26t.8-5.24q.8-2.08 2.02-2.08t2 2.08q.78 2.06.78 5.24t-.78 5.26q-.78 2.06-2 2.06m0-.32q.6 0 .98-1.98.4-1.98.4-5.02t-.4-5.02q-.38-1.98-.98-1.98-.62 0-1.02 1.98t-.4 5.02.4 5.02 1.02 1.98m10.504 0h-1.8l.2-.78v-12.44l-.2-.78h2.88q1.28 0 2.1 1.2t.82 3.04q0 1.94-.82 3.2t-2.1 1.26h-1.28v4.52zm1.08-5.62q.64 0 1.06-1.14.44-1.14.46-2.96 0-1.72-.44-2.84-.42-1.12-1.08-1.12h-1.28v8.06zm12.664 5.62h-1.8l.2-.78V220.7l-2.32 12.3h-1.42l-2.36-12.32v11.54l.2.78h-.72l.2-.78v-12.44l-.2-.78h1.82l-.06.76 2.38 12.4 2.34-12.4-.06-.76h1.8l-.2.78v12.44z"/><rect width="65" height="25" x="216.5" y="399.5" stroke="#312e25" rx="3.5"/><path fill="#312e25" d="M230.257 419h-1.8l.2-.78V406.4q0-.54-.64-.56l2.04-.84v13.22zm2.66.1a.68.68 0 0 1-.5-.2.68.68 0 0 1-.2-.5q0-.28.2-.48.2-.22.5-.22.279 0 .48.22.22.2.22.48a.65.65 0 0 1-.22.5.66.66 0 0 1-.48.2m0-3.2a.68.68 0 0 1-.5-.2.68.68 0 0 1-.2-.5q0-.28.2-.48.2-.22.5-.22.279 0 .48.22.22.2.22.48a.65.65 0 0 1-.22.5.66.66 0 0 1-.48.2m5.478 3.42q-1.22 0-2.02-2.06-.8-2.08-.8-5.26t.8-5.24q.8-2.08 2.02-2.08t2 2.08q.78 2.06.78 5.24t-.78 5.26q-.78 2.06-2 2.06m0-.32q.6 0 .98-1.98.4-1.98.4-5.02t-.4-5.02q-.38-1.98-.98-1.98-.62 0-1.02 1.98t-.4 5.02.4 5.02 1.02 1.98m6.719.32q-1.22 0-2.02-2.06-.8-2.08-.8-5.26t.8-5.24q.8-2.08 2.02-2.08t2 2.08q.78 2.06.78 5.24t-.78 5.26q-.78 2.06-2 2.06m0-.32q.6 0 .98-1.98.4-1.98.4-5.02t-.4-5.02q-.38-1.98-.98-1.98-.62 0-1.02 1.98t-.4 5.02.4 5.02 1.02 1.98m14.723 0h-1.82l.08-.78-.56-3.74h-2.52l-.56 3.74.08.78h-.72l.32-.78 1.86-12.44-.08-.78h1.62l1.98 13.22zm-2.34-4.84-1.22-8.1-1.22 8.1zm12.49 4.84h-1.8l.2-.78V406.7l-2.32 12.3h-1.42l-2.36-12.32v11.54l.2.78h-.72l.2-.78v-12.44l-.2-.78h1.82l-.06.76 2.38 12.4 2.34-12.4-.06-.76h1.8l-.2.78v12.44z"/><rect width="65" height="25" x="111.5" y="120.5" stroke="#312e25" rx="3.5"/><path fill="#312e25" d="M124.229 140h-1.4q0-1.54.62-3.12a39 39 0 0 1 1.42-3.18 35 35 0 0 0 1.44-3.18q.62-1.6.62-3.12h-5.28V126h5.6v1.4q0 1.52-.46 3.12a44 44 0 0 1-1.06 3.18 53 53 0 0 0-1.04 3.18 11.1 11.1 0 0 0-.46 3.12m5.68.1a.68.68 0 0 1-.5-.2.68.68 0 0 1-.2-.5q0-.28.2-.48.2-.22.5-.22.28 0 .48.22.22.2.22.48 0 .3-.22.5a.66.66 0 0 1-.48.2m0-3.2a.68.68 0 0 1-.5-.2.68.68 0 0 1-.2-.5q0-.28.2-.48.2-.22.5-.22.28 0 .48.22.22.2.22.48 0 .3-.22.5a.66.66 0 0 1-.48.2m5.478 3.42q-1.22 0-2.02-2.06-.8-2.08-.8-5.26t.8-5.24q.8-2.08 2.02-2.08t2 2.08q.78 2.06.78 5.24t-.78 5.26q-.78 2.06-2 2.06m0-.32q.6 0 .98-1.98.4-1.98.4-5.02t-.4-5.02q-.38-1.98-.98-1.98-.62 0-1.02 1.98t-.4 5.02.4 5.02 1.02 1.98m6.719.32q-1.22 0-2.02-2.06-.8-2.08-.8-5.26t.8-5.24q.8-2.08 2.02-2.08t2 2.08q.78 2.06.78 5.24t-.78 5.26q-.78 2.06-2 2.06m0-.32q.6 0 .98-1.98.4-1.98.4-5.02t-.4-5.02q-.38-1.98-.98-1.98-.62 0-1.02 1.98t-.4 5.02.4 5.02 1.02 1.98m10.504 0h-1.8l.2-.78v-12.44l-.2-.78h2.88q1.28 0 2.1 1.2t.82 3.04q0 1.94-.82 3.2t-2.1 1.26h-1.28v4.52zm1.08-5.62q.64 0 1.06-1.14.44-1.14.46-2.96 0-1.72-.44-2.84-.42-1.12-1.08-1.12h-1.28v8.06zm12.664 5.62h-1.8l.2-.78V127.7l-2.32 12.3h-1.42l-2.36-12.32v11.54l.2.78h-.72l.2-.78v-12.44l-.2-.78h1.82l-.06.76 2.38 12.4 2.34-12.4-.06-.76h1.8l-.2.78v12.44z"/><rect width="65" height="25" x="111.5" y="306.5" stroke="#312e25" rx="3.5"/><path fill="#312e25" d="M122.429 326v-.32q.86-.04 1.54-1.3.7-1.26 1.12-3.44-.46.3-1.04.3-1.22 0-2-1.36t-.78-3.42q0-2.08.78-3.42.78-1.36 2-1.36 1.2 0 1.98 1.28.78 1.26.84 3.3v.52q-.12 4.1-1.34 6.66t-3.1 2.56m1.62-4.98q.62 0 1.02-1.28.4-1.3.4-3.28 0-2-.4-3.28-.4-1.3-1.02-1.3-.6 0-1 1.3-.38 1.28-.38 3.28 0 1.98.38 3.28.4 1.28 1 1.28m5.479 5.08a.68.68 0 0 1-.5-.2.68.68 0 0 1-.2-.5q0-.28.2-.48.2-.22.5-.22.28 0 .48.22.22.2.22.48 0 .3-.22.5a.66.66 0 0 1-.48.2m0-3.2a.68.68 0 0 1-.5-.2.68.68 0 0 1-.2-.5q0-.28.2-.48.2-.22.5-.22.28 0 .48.22.22.2.22.48 0 .3-.22.5a.66.66 0 0 1-.48.2m5.499 3.42q-.64 0-1.44-.44a5.4 5.4 0 0 1-1.4-1.14l.56-2.22q.16 1.88.82 3.06.68.42 1.28.42.64 0 1.06-.62.44-.64.44-1.62 0-1.6-.62-2.88-.62-1.3-1.6-1.72v-.32q.98-.42 1.6-1.7.62-1.3.62-2.9 0-.98-.44-1.6-.42-.64-1.06-.64-.44 0-1.22.5-.72 1.1-.88 2.98l-.56-2.22q.62-.7 1.4-1.14.8-.44 1.44-.44 1.18 0 1.94.8.78.78.78 2 0 1.5-.86 2.76a4.6 4.6 0 0 1-2.2 1.76q1.36.52 2.2 1.78.86 1.24.86 2.74 0 1.22-.78 2.02-.76.78-1.94.78m7.46 0q-1.22 0-2.02-2.06-.8-2.08-.8-5.26t.8-5.24q.8-2.08 2.02-2.08t2 2.08q.78 2.06.78 5.24t-.78 5.26q-.78 2.06-2 2.06m0-.32q.6 0 .98-1.98.4-1.98.4-5.02t-.4-5.02q-.38-1.98-.98-1.98-.62 0-1.02 1.98t-.4 5.02.4 5.02 1.02 1.98m10.503 0h-1.8l.2-.78v-12.44l-.2-.78h2.88q1.281 0 2.1 1.2t.82 3.04q0 1.94-.82 3.2-.819 1.26-2.1 1.26h-1.28v4.52zm1.08-5.62q.64 0 1.06-1.14.44-1.14.46-2.96 0-1.72-.44-2.84-.42-1.12-1.08-1.12h-1.28v8.06zm12.665 5.62h-1.8l.2-.78V313.7l-2.32 12.3h-1.42l-2.36-12.32v11.54l.2.78h-.72l.2-.78v-12.44l-.2-.78h1.82l-.06.76 2.38 12.4 2.34-12.4-.06-.76h1.8l-.2.78v12.44z"/><rect width="65" height="25" x="111.5" y="492.5" stroke="#312e25" rx="3.5"/><path fill="#312e25" d="M121.657 510.6h-.32q0-1.12.36-2.2.38-1.08.92-2.1.56-1.02 1.16-1.96.72-1.16 1.24-2.18.52-1.04.52-1.92 0-.98-.44-1.6-.42-.64-1.06-.64-.38 0-1.2.52-.74 1.08-.9 2.96l-.56-2.22q.62-.7 1.4-1.14.8-.44 1.44-.44 1.18 0 1.94.92.78.9.78 2.32 0 .96-.7 1.98a24 24 0 0 1-1.62 2.1q-.72.84-1.4 1.74a10 10 0 0 0-1.12 1.86 4.75 4.75 0 0 0-.44 2m5.28 1.4v-1.4h-5.6v1.4zm2.659.1a.68.68 0 0 1-.7-.7q0-.28.2-.48.2-.22.5-.22.28 0 .48.22.22.2.22.48 0 .3-.22.5a.66.66 0 0 1-.48.2m0-3.2a.68.68 0 0 1-.7-.7q0-.28.2-.48.2-.22.5-.22.28 0 .48.22.22.2.22.48 0 .3-.22.5a.66.66 0 0 1-.48.2m5.479 3.42q-1.22 0-2.02-2.06-.8-2.08-.8-5.26t.8-5.24q.8-2.08 2.02-2.08t2 2.08q.78 2.06.78 5.24t-.78 5.26q-.78 2.06-2 2.06m0-.32q.6 0 .98-1.98.4-1.98.4-5.02t-.4-5.02q-.38-1.98-.98-1.98-.62 0-1.02 1.98t-.4 5.02.4 5.02 1.02 1.98m6.719.32q-1.22 0-2.02-2.06-.8-2.08-.8-5.26t.8-5.24q.8-2.08 2.02-2.08t2 2.08q.78 2.06.78 5.24t-.78 5.26q-.78 2.06-2 2.06m0-.32q.6 0 .98-1.98.4-1.98.4-5.02t-.4-5.02q-.38-1.98-.98-1.98-.621 0-1.02 1.98-.4 1.98-.4 5.02t.4 5.02q.399 1.98 1.02 1.98m14.723 0h-1.82l.08-.78-.56-3.74h-2.52l-.56 3.74.08.78h-.72l.32-.78 1.86-12.44-.08-.78h1.62l1.98 13.22zm-2.34-4.84-1.22-8.1-1.22 8.1zm12.489 4.84h-1.8l.2-.78V499.7l-2.32 12.3h-1.42l-2.36-12.32v11.54l.2.78h-.72l.2-.78v-12.44l-.2-.78h1.82l-.06.76 2.38 12.4 2.34-12.4-.06-.76h1.8l-.2.78v12.44z"/><path stroke="#a39d79" stroke-linecap="round" d="M290.5 40.5h11M92.5 134.5h11M286.5 225.5h11M95.5 320.5h11M288.5 413.5h11M92.5 506.5h11"/></svg>