<svg xmlns="http://www.w3.org/2000/svg" fill="none" viewBox="0 0 51 62"><path fill="#a39d79" d="M25.5 0C11.44 0 0 13.906 0 30.999s11.44 30.999 25.5 30.999S51 48.092 51 30.999 39.56 0 25.5 0m0 61.804C11.547 61.804.194 47.986.194 30.999S11.547.196 25.5.196 50.806 14.014 50.806 31 39.453 61.802 25.5 61.802z"/><path fill="#a39d79" d="M49.645 25.823C47.633 11.76 37.57 1.039 25.5 1.039 11.984 1.04.988 14.48.988 31c0 16.52 10.996 29.962 24.512 29.962S50.013 47.52 50.013 30.999c0-1.764-.126-3.493-.366-5.174v-.004zM25.5 1.216c11.96 0 21.935 10.616 23.963 24.552l-.093.033c-.252.089-.221.079-.49.22-2.208.925-5.593.802-8.867.682-2.112-.077-4.109-.151-5.828.035-1.224-2.442-3.63-3.522-6.416-2.937l-1.185-6.679q-.225-1.222.39-1.966.614-.742 1.845-.91v-.198h-3.013q-.454-.001-.858.232a1.26 1.26 0 0 0-.567.628l-6.867 17.743-7.482-17.743a1.17 1.17 0 0 0-.583-.644 1.9 1.9 0 0 0-.875-.214H5.497C9.9 6.3 17.224 1.216 25.5 1.216M19.948 41.02c.864 1.098 2.285 1.63 4.111 1.544 2.847-.136 5.9-1.992 8.18-4.968l2.083.546c-.835.772-1.677 1.605-2.566 2.483-3.87 3.83-8.258 8.174-13.529 8.423-2.994.144-5.182-1.504-5.575-4.194-.43-2.943 1.466-6.714 6.628-8.12-.412 1.697-.178 3.213.668 4.288zm7.9-16.765c2.56-.56 4.71.348 5.87 2.522a24 24 0 0 0-5.201 1.246zm6.083 2.959c1.24 2.826.53 6.602-1.857 9.895-1.735-.466-3.468-.896-5.304-1.142l1.594-.08 3.336.231v-.198q-1.004 0-1.506-.678t-.728-1.866l-.872-4.919c1.56-.572 3.333-1.006 5.337-1.244m-6.57 6.162q.194 1.191-.616 1.866-.492.409-1.47.57c-.85-.061-1.723-.077-2.635-.033-.978.047-1.882.164-2.692.353.831-2.326 2.992-5.003 6.724-6.854zm-4.698 2.858c3.34-.159 6.113.464 9.11 1.244-2.178 2.777-5.057 4.504-7.733 4.632-1.7.08-3.005-.409-3.778-1.414-.776-1.012-.947-2.458-.48-4.075.871-.21 1.816-.336 2.881-.387M32.804 37.3l-.271-.073c2.356-3.328 3.06-7.156 1.853-10.077 1.65-.158 3.55-.085 5.557-.006 2.502.096 5.08.196 7.188-.18-2.624 1.67-5.561 4.435-8.408 7.114l-.027.026a210 210 0 0 1-3.683 3.404l-.307.281c-.593-.14-1.201-.302-1.902-.489m8.824-4.178c2.169-2.09 4.372-4.187 6.055-5.552-3.681 3.444-6.878 7.14-9.32 10.787a25 25 0 0 1-2.145-.248 472 472 0 0 0 5.408-4.985zM5.385 14.252c.808.116 1.63.415 2.109.902q.728.743.437 2.131l-3.27 15.993q-.292 1.388-.89 2.015c-.392.41-1.4.62-2.272.627a36 36 0 0 1-.333-4.919c0-6.206 1.558-11.971 4.223-16.747zM25.5 60.784c-11.996 0-21.991-10.677-23.978-24.671l3.071-.226 4.016.231v-.198q-2.107.001-2.833-.629-.73-.627-.47-2.015l3.173-16.454 8.162 18.8 7.839-19.396 2.12 12.608c-.95.464-1.838.994-2.65 1.588-2.24 1.638-3.84 3.7-4.515 5.818-5.592 1.387-7.658 5.448-7.21 8.644.414 2.958 2.78 4.77 6.027 4.614 5.91-.28 11.516-5.453 16.02-9.608.53-.489 1.045-.964 1.543-1.414.821.159 1.534.273 2.254.306-1.814 2.778-3.147 5.446-3.857 7.728-.953 3.12-.771 5.55.515 6.843.736.74 1.81 1.078 3.17 1.013 1.17-.055 2.786-.562 3.45-.778-4.26 4.481-9.798 7.194-15.843 7.194zm16.391-7.787a.13.13 0 0 0-.098-.012c-2.043.664-4.865.941-5.796.03-1.156-1.13-1.36-3.438-.562-6.334.647-2.363 1.92-5.082 3.68-7.87 1.967-.043 3.708-.599 5.468-1.752a.126.126 0 0 0 .04-.165l-.094-.172a.13.13 0 0 0-.078-.061.13.13 0 0 0-.097.015c-1.572 1.024-3.189 1.57-4.94 1.664a63 63 0 0 1 10.122-12.026 36.5 36.5 0 0 1 .302 4.683c0 8.703-3.067 16.547-7.947 21.996z"/></svg>