<svg width="69" height="80" viewBox="0 0 69 80" fill="none" xmlns="http://www.w3.org/2000/svg">
<path d="M34.5 0C15.4751 0 0 17.9442 0 40C0 62.0558 15.4777 80 34.5 80C53.5223 80 69 62.0558 69 40C69 17.9442 53.5223 0 34.5 0ZM34.5 79.749C15.6218 79.749 0.261978 61.9189 0.261978 40.0025C0.261978 18.0862 15.6192 0.253485 34.5 0.253485C53.3808 0.253485 68.738 18.0837 68.738 40C68.738 61.9164 53.3782 79.7465 34.5 79.7465V79.749Z" fill="#312E25"/>
<path d="M67.1661 33.3207C64.4442 15.1762 50.8318 1.34094 34.5 1.34094C16.2139 1.34094 1.33609 18.6844 1.33609 40.0025C1.33609 61.3207 16.2139 78.6641 34.5 78.6641C52.7861 78.6641 67.6639 61.3207 67.6639 40.0025C67.6639 37.7262 67.4936 35.4956 67.1688 33.3257C67.1688 33.3257 67.1688 33.3232 67.1688 33.3207H67.1661ZM34.5 1.56907C50.6824 1.56907 64.177 15.2674 66.9199 33.2497L66.7941 33.2928C66.4536 33.4068 66.4955 33.3942 66.1313 33.5767C63.1448 34.7706 58.5654 34.6109 54.1353 34.4563C51.2771 34.3574 48.5761 34.2611 46.2498 34.5019C44.594 31.3511 41.3403 29.9569 37.5704 30.7123L35.9671 22.0938C35.7627 21.0418 35.9383 20.1977 36.4937 19.5564C37.0491 18.9176 37.8795 18.5273 38.9903 18.3828V18.1267H34.9139C34.5052 18.1267 34.1175 18.2256 33.7534 18.4259C33.3866 18.6261 33.1325 18.8948 32.9858 19.237L23.696 42.1318L13.5731 19.237C13.4264 18.8669 13.1644 18.5906 12.7846 18.4056C12.4047 18.2205 12.0091 18.1293 11.6004 18.1293H7.43758C13.3924 8.12928 23.3004 1.56907 34.5 1.56907ZM26.9891 52.9303C28.1575 54.3473 30.0804 55.0342 32.5509 54.9227C36.402 54.7478 40.5334 52.3523 43.6169 48.512L46.4358 49.2167C45.3066 50.2129 44.167 51.2877 42.9645 52.4208C37.7276 57.3638 31.7911 62.9683 24.6601 63.2902C20.6099 63.4753 17.6495 61.3485 17.1177 57.8783C16.5361 54.0811 19.1009 49.2142 26.0852 47.3992C25.5272 49.5894 25.8442 51.5463 26.9891 52.9328V52.9303ZM37.6778 31.2978C41.1412 30.5754 44.0491 31.7465 45.6184 34.5526C43.1191 34.8568 40.7561 35.4018 38.5816 36.1597L37.6778 31.2978ZM45.9066 35.1153C47.5832 38.763 46.6244 43.635 43.3942 47.8834C41.0469 47.2826 38.7021 46.7275 36.2186 46.4106L38.3747 46.3067L42.8886 46.6058V46.3498C41.9821 46.3498 41.3036 46.0583 40.8504 45.4753C40.3971 44.8923 40.0697 44.0887 39.8653 43.0672L38.6864 36.7199C40.7953 35.9823 43.1951 35.4221 45.9066 35.1153ZM37.0176 43.0672C37.1931 44.0913 36.9154 44.8948 36.1845 45.4753C35.7418 45.8276 35.0764 46.071 34.1961 46.2104C33.046 46.1318 31.8645 46.1115 30.6306 46.1673C29.3076 46.2281 28.0841 46.3802 26.9891 46.6236C28.113 43.6223 31.0366 40.1673 36.085 37.7795L37.0176 43.0672ZM30.6594 46.7554C35.1785 46.5501 38.9301 47.3536 42.9855 48.36C40.0382 51.9442 36.1426 54.1724 32.5221 54.3371C30.2219 54.4411 28.4561 53.8099 27.4109 52.512C26.3603 51.2066 26.1298 49.3409 26.7611 47.2548C27.9401 46.9835 29.2185 46.8213 30.6594 46.7554ZM44.3818 48.1293L44.0151 48.0355C47.2034 43.7414 48.1543 38.801 46.5222 35.0317C48.7543 34.8289 51.3243 34.9227 54.041 35.0241C57.4258 35.1483 60.9127 35.2776 63.7657 34.7909C60.2159 36.948 56.2416 40.5146 52.3905 43.9721L52.3539 44.0051C50.706 45.5032 49.087 46.91 47.371 48.398L46.9545 48.7605C46.1528 48.5805 45.3302 48.3701 44.3818 48.1293ZM56.3202 42.7376C59.2544 40.0406 62.2357 37.3359 64.5123 35.5741C59.5321 40.0177 55.2068 44.7883 51.9033 49.493C51.044 49.4398 50.1323 49.3384 49.0005 49.1736C51.4998 47.019 53.8891 44.8999 56.3176 42.7402L56.3202 42.7376ZM7.28302 18.3904C8.37547 18.5399 9.48888 18.9252 10.136 19.5539C10.7935 20.1926 10.99 21.1103 10.728 22.3042L6.30321 42.9404C6.04123 44.1343 5.63779 45.0013 5.09811 45.5412C4.56892 46.071 3.204 46.3397 2.0251 46.3498C1.72906 44.2839 1.57449 42.1648 1.57449 40.0025C1.57449 31.9949 3.68342 24.5551 7.28825 18.3929L7.28302 18.3904ZM34.5 78.4335C18.2704 78.4335 4.74706 64.6565 2.05915 46.5982L6.21414 46.3067L11.6476 46.6058V46.3498C9.74824 46.3498 8.46978 46.0811 7.81483 45.5387C7.15726 44.9987 6.94506 44.1318 7.17822 42.9379L11.4721 21.706L22.5145 45.9645L33.1194 20.9379L35.988 37.2066C34.7017 37.8048 33.5019 38.4892 32.4042 39.2548C29.3731 41.3688 27.2065 44.0304 26.2948 46.763C18.7289 48.5526 15.9336 53.7921 16.5387 57.9164C17.0994 61.7338 20.3007 64.071 24.6941 63.8707C32.6897 63.5082 40.274 56.834 46.3676 51.4728C47.0855 50.8416 47.7823 50.2281 48.4556 49.6477C49.5664 49.853 50.5305 50 51.505 50.0431C49.0503 53.6274 47.2479 57.0697 46.2864 60.0152C44.9975 64.0406 45.2438 67.1762 46.9833 68.8441C47.9788 69.7998 49.4328 70.2357 51.2719 70.1521C52.8542 70.0811 55.0418 69.4271 55.9404 69.1483C50.1768 74.9303 42.6842 78.4309 34.5052 78.4309L34.5 78.4335ZM56.6765 68.3853C56.6346 68.3625 56.5874 68.3574 56.5429 68.3701C53.779 69.2269 49.962 69.5843 48.7019 68.4081C47.1379 66.9506 46.8628 63.9721 47.9421 60.2357C48.8171 57.1863 50.5383 53.6781 52.9197 50.0811C55.5814 50.0253 57.9366 49.308 60.318 47.82C60.3914 47.7744 60.415 47.6806 60.373 47.6071L60.2447 47.384C60.2211 47.346 60.1844 47.3181 60.1399 47.3055C60.0953 47.2953 60.0482 47.3029 60.0089 47.3257C57.8816 48.6464 55.6941 49.3511 53.3258 49.4728C56.8835 44.2383 61.3371 38.9734 67.0194 33.9544C67.2867 35.924 67.4281 37.9417 67.4281 39.9975C67.4281 51.2269 63.2784 61.3485 56.6765 68.3802V68.3853Z" fill="#312E25"/>
</svg>
