<svg width="295" height="344" viewBox="0 0 295 344" fill="none" xmlns="http://www.w3.org/2000/svg">
<g style="mix-blend-mode:soft-light">
<path d="M-1.54483 37.3484C-12.0304 10.82 -37.5889 -5.22804 -78.2205 5.57982L-78.5482 3.61474C-36.2783 -7.84813 -10.0643 9.18243 0.748901 37.3484C7.95772 37.0209 15.4942 36.6933 23.0307 36.6933C59.4025 36.6933 130.835 50.7763 158.032 40.951C181.297 34.0733 182.28 34.0733 197.026 33.4182V35.7108C147.874 35.7108 105.277 103.178 66.939 163.44C46.6232 195.536 27.6182 225.34 9.26842 242.698C26.9628 230.252 48.2616 209.619 72.8372 186.366C131.491 130.034 207.839 56.6715 294.345 33.7457L295 35.7108C217.997 56.344 134.768 158.2 101.017 238.768C81.6843 284.947 66.939 358.309 146.564 337.021L147.219 338.986C57.7642 362.894 61.6962 296.737 88.5655 237.13C118.711 170.318 184.574 89.7501 251.747 51.4313C183.591 83.1999 122.971 141.169 74.4755 188.003C45.6402 213.549 9.26843 258.418 -20.8776 258.418V256.126C10.2514 251.54 34.4993 210.602 64.973 162.458C95.4467 114.641 128.542 62.5667 165.569 42.261C117.073 61.9117 73.1648 120.536 40.3974 153.287C-3.51086 197.174 -83.4633 279.379 -150.309 279.379C-180.455 279.379 -200.771 264.641 -209.618 244.99C-213.877 235.82 -215.516 225.995 -214.861 215.842C-214.205 205.361 -211.256 194.881 -206.013 185.056C-198.804 172.283 -187.991 160.492 -172.918 151.322C-167.348 105.471 -110.988 45.5361 -1.54483 37.3484ZM1.40424 39.6409C13.5282 74.6846 2.0596 126.104 -33.3292 161.147C-55.9387 184.073 -87.723 205.034 -121.146 205.034C-157.845 205.034 -175.54 182.763 -173.246 154.27C-187.336 163.113 -197.494 174.248 -204.047 186.038C-209.29 195.864 -211.911 206.016 -212.567 215.842C-213.222 225.667 -211.584 235.492 -207.652 244.008C-199.132 263.003 -179.472 277.086 -150.309 277.086C-90.3444 277.086 -18.9115 192.261 21.72 151.65C55.4704 117.916 98.3957 68.4619 146.891 45.8636C114.124 49.7938 55.4704 38.9859 23.0307 38.9859C15.4942 38.9859 8.2854 38.9859 1.40424 39.6409ZM-34.6399 159.51C-0.234131 125.121 11.2345 74.0296 -0.889465 39.6409C-107.711 47.1737 -163.743 105.143 -170.625 150.012C-151.292 138.877 -126.061 131.999 -93.9489 131.999V133.964C-126.389 133.964 -151.947 141.497 -170.952 152.632C-173.901 180.798 -157.19 202.741 -121.146 202.741C-88.3784 202.741 -57.2494 181.781 -34.6399 159.51Z" fill="#F7EFDA" fill-opacity="0.7"/>
</g>
</svg>
