<svg xmlns="http://www.w3.org/2000/svg" fill="none" viewBox="0 0 295 344"><path fill="#f7efda" fill-opacity=".7" d="M-1.545 37.348C-12.03 10.82-37.589-5.228-78.22 5.58l-.328-1.965C-36.278-7.848-10.064 9.182.749 37.348c7.209-.327 14.745-.655 22.282-.655 36.372 0 107.804 14.083 135.001 4.258 23.265-6.878 24.248-6.878 38.994-7.533v2.293c-49.152 0-91.749 67.467-130.087 127.729-20.316 32.096-39.32 61.9-57.67 79.258 17.694-12.446 38.993-33.079 63.568-56.332 58.654-56.332 135.002-129.694 221.508-152.62L295 35.71C217.997 56.344 134.768 158.2 101.017 238.768c-19.333 46.179-34.078 119.541 45.547 98.253l.655 1.965c-89.455 23.908-85.523-42.249-58.653-101.856 30.145-66.812 96.008-147.38 163.181-185.699C183.591 83.2 122.971 141.17 74.476 188.003c-28.836 25.546-65.208 70.415-95.354 70.415v-2.292c31.13-4.586 55.377-45.524 85.851-93.668 30.474-47.817 63.569-99.891 100.596-120.197-48.496 19.65-92.404 78.275-125.172 111.026-43.908 43.887-123.86 126.092-190.706 126.092-30.146 0-50.462-14.738-59.309-34.389-4.259-9.17-5.898-18.995-5.243-29.148.656-10.481 3.605-20.961 8.848-30.786 7.209-12.773 18.022-24.564 33.095-33.734 5.57-45.851 61.93-105.786 171.373-113.974m2.95 2.293c12.123 35.044.655 86.463-34.734 121.506-22.61 22.926-54.394 43.887-87.817 43.887-36.699 0-54.394-22.271-52.1-50.764-14.09 8.843-24.248 19.978-30.801 31.768a73.4 73.4 0 0 0-8.52 29.804c-.655 9.825.983 19.65 4.915 28.166 8.52 18.995 28.18 33.078 57.343 33.078 59.965 0 131.398-84.825 172.029-125.436 33.75-33.734 76.676-83.188 125.171-105.786-32.767 3.93-91.42-6.878-123.86-6.878-7.537 0-14.746 0-21.627.655M-34.64 159.51C-.234 125.121 11.235 74.03-.89 39.64c-106.821 7.534-162.853 65.503-169.735 110.372 19.333-11.135 44.564-18.013 76.676-18.013v1.965c-32.44 0-57.998 7.533-77.003 18.668-2.949 28.166 13.762 50.109 49.806 50.109 32.768 0 63.897-20.96 86.506-43.231" style="mix-blend-mode:soft-light"/></svg>