<svg width="231" height="60" viewBox="0 0 231 60" fill="none" xmlns="http://www.w3.org/2000/svg">
<path d="M85.3795 7L85.4835 7.312C79.7635 8.872 63.9555 23.016 55.5315 33.832C53.9195 35.86 46.0155 46.052 52.9835 46.052V46.416C43.5715 46.364 51.3195 35.86 53.9715 32.584C60.9395 23.796 72.9515 13.292 80.7515 8.924C69.0515 13.656 58.6515 23.64 50.4875 31.492C45.8595 36.12 38.7355 42.828 35.3555 42.672V42.36C40.2955 41.632 44.1435 35.132 48.9795 27.436C53.8155 19.844 59.0675 11.576 64.9435 8.352C57.1955 11.472 50.2795 20.78 45.0795 25.98C38.1115 32.948 25.4235 46 14.8155 46C2.95953 46 0.879531 32.064 11.2275 25.72C12.1115 18.388 21.0555 8.872 38.4235 7.624C36.7595 3.36 32.7035 0.811999 26.2555 2.58L26.1515 2.216C32.9115 0.447998 37.0715 3.152 38.7875 7.572C39.9315 7.52 41.0755 7.468 42.3235 7.468C48.0955 7.468 59.4315 9.756 63.7475 8.196C65.7755 7.416 67.8555 7 69.9355 7V7.364C62.1355 7.364 55.3755 18.024 49.2915 27.644C46.0675 32.688 43.0515 37.42 40.1395 40.228C42.9475 38.2 46.3275 34.976 50.2275 31.232C59.2235 22.6 70.8715 11.42 84.0275 7.364C84.4955 7.208 84.9635 7.052 85.3795 7ZM33.1715 26.968C38.6315 21.508 40.4515 13.448 38.5275 7.936C21.5235 9.184 12.6835 18.388 11.5915 25.46C14.6075 23.744 18.6635 22.6 23.7595 22.6V22.964C18.6115 22.964 14.5555 24.108 11.5395 25.928C11.0715 30.348 13.7235 33.884 19.4435 33.884C24.6435 33.884 29.5835 30.556 33.1715 26.968ZM38.8915 7.936C40.8155 13.552 38.9955 21.664 33.3795 27.228C29.7915 30.868 24.7475 34.248 19.4435 34.248C13.6195 34.248 10.8115 30.66 11.1755 26.136C1.34753 32.428 3.42753 45.636 14.8155 45.636C24.2795 45.636 35.6675 32.168 42.1155 25.72C47.4715 20.364 54.2835 12.512 61.9275 8.924C56.7795 9.6 47.4715 7.832 42.3235 7.832C41.1275 7.832 39.9835 7.884 38.8915 7.936ZM64.1168 44.284C64.8968 44.492 66.3008 43.972 68.4848 42.36C70.7208 40.748 73.7888 37.992 77.8968 33.884L78.1568 34.144C74.0488 38.252 70.9288 41.008 68.6928 42.672C66.4048 44.336 64.8968 44.856 64.0128 44.648C62.4528 44.232 62.9728 41.892 65.3128 38.668C62.2448 41.632 57.3568 45.844 55.5888 44.596C53.5088 43.036 56.4728 37.992 61.2048 33.26C64.5328 29.932 71.2408 24.316 74.2048 26.032C75.3488 26.708 74.3088 28.736 73.0088 30.452C76.8048 26.864 78.3648 25.98 81.5888 25.98L81.6408 26.344C79.6648 26.864 72.6968 33.936 71.0328 35.652C70.5648 36.068 62.4528 43.868 64.1168 44.284ZM67.5488 35.964C68.0168 35.444 68.5368 34.924 69.1088 34.352C69.5768 33.884 70.0448 33.416 70.5128 32.948C71.3448 32.116 75.3488 27.644 74.1008 26.396C72.5928 24.888 65.1568 32.48 64.1688 33.468C63.2328 34.404 54.1328 43.348 55.7968 44.336C58.1368 45.636 66.0928 37.472 67.5488 35.964ZM97.1904 25.98L97.2424 26.344C95.3184 26.864 88.3504 33.936 86.6344 35.652C81.0704 41.216 62.0384 59.572 54.3944 59.572V59.208C58.8664 59.208 70.4104 48.548 77.8984 41.164C75.2984 43.296 72.6984 45.012 71.3464 44.648C70.2024 44.336 69.8904 43.66 70.1504 42.776C70.6704 40.748 74.6224 37.056 76.2864 35.392C78.0544 33.624 83.6184 28.476 84.0344 26.812C84.1384 26.552 84.0864 26.396 83.8264 26.344L83.9304 26.032C85.3344 26.396 85.7504 27.124 85.4904 28.164C84.9184 30.244 80.9144 33.884 79.1464 35.652C78.5224 36.276 77.7944 37.004 77.0664 37.68C75.6104 39.136 72.6464 41.84 71.6064 43.608C71.3984 43.972 71.2944 44.284 71.4504 44.284C74.2064 44.96 82.9424 36.12 85.0224 34.04C88.3504 30.452 92.2504 25.98 97.1904 25.98ZM98.8999 35.652C96.4039 38.148 94.3759 40.176 93.1279 41.684C91.9839 43.088 91.5159 44.024 91.9839 44.284C92.8159 44.492 94.1679 43.972 96.3519 42.36C98.5879 40.748 101.656 38.044 105.764 33.884L106.024 34.144C101.864 38.304 98.7959 41.008 96.5599 42.672C94.2719 44.336 92.7639 44.908 91.8799 44.648C91.3079 44.492 90.4239 44.024 90.6839 42.568C90.9439 41.268 92.2959 39.032 95.9359 35.392C97.9639 33.364 100.2 31.076 101.552 29.204C102.644 27.748 103.632 26.448 101.656 25.616C99.8359 27.748 97.2359 30.504 93.5959 34.144L93.3359 33.884C96.9239 30.296 99.5239 27.54 101.344 25.46C100.148 24.628 101.032 22.808 101.656 21.82C102.592 20.416 104.048 19.168 104.776 19.324C106.7 19.844 102.644 24.42 101.864 25.356C103.58 25.928 104.412 26.708 103.892 28.632C103.424 30.348 101.812 32.688 98.8999 35.652ZM101.552 25.148C102.488 24.056 105.92 20 104.672 19.688C104.1 19.532 102.8 20.676 101.916 22.028C101.448 22.808 100.564 24.472 101.552 25.148ZM109.261 44.284C110.041 44.492 111.445 43.972 113.629 42.36C115.865 40.748 118.933 37.992 123.041 33.884L123.301 34.144C119.193 38.252 116.073 41.008 113.837 42.672C111.549 44.336 110.041 44.856 109.157 44.648C107.597 44.232 108.117 41.892 110.457 38.668C107.389 41.632 102.501 45.844 100.733 44.596C98.6533 43.036 101.617 37.992 106.349 33.26C109.677 29.932 116.385 24.316 119.349 26.032C120.493 26.708 119.453 28.736 118.153 30.452C121.949 26.864 123.509 25.98 126.733 25.98L126.785 26.344C124.809 26.864 117.841 33.936 116.177 35.652C115.709 36.068 107.597 43.868 109.261 44.284ZM112.693 35.964C113.161 35.444 113.681 34.924 114.253 34.352C114.721 33.884 115.189 33.416 115.657 32.948C116.489 32.116 120.493 27.644 119.245 26.396C117.737 24.888 110.301 32.48 109.313 33.468C108.377 34.404 99.2773 43.348 100.941 44.336C103.281 45.636 111.237 37.472 112.693 35.964ZM196.623 7V7.364C192.931 7.364 189.395 9.132 186.067 11.628C191.839 18.076 182.531 29.672 168.023 29.724C163.499 34.144 157.675 39.448 151.799 42.776C154.035 43.556 156.427 44.232 159.495 44.232V44.596C156.271 44.596 153.723 43.816 151.435 42.984C148.055 44.804 144.675 46 141.451 46C134.847 46 134.795 40.28 142.231 40.28C145.455 40.28 148.003 41.32 150.707 42.36C157.571 37.94 164.331 30.192 168.803 25.772C173.119 21.404 178.423 15.424 184.403 11.368C182.531 9.288 178.787 7.884 172.547 7.832C169.583 7.832 166.567 7.988 163.655 8.352C167.659 19.584 155.283 34.248 144.051 34.248C128.087 34.248 136.823 11.628 163.187 8.092C161.055 2.84 156.115 1.176 150.863 2.58L150.759 2.268C156.271 0.759997 161.367 2.58 163.551 8.04C166.515 7.676 169.531 7.468 172.547 7.52C178.735 7.572 182.843 8.872 185.183 10.848C188.823 8.56 192.619 7 196.623 7ZM185.131 12.408C179.983 16.516 175.459 22.288 171.715 26.032C170.727 27.02 169.583 28.164 168.387 29.36C178.891 29.048 188.719 18.596 185.131 12.408ZM141.451 45.688C144.311 45.688 147.327 44.44 150.343 42.568C147.743 41.58 145.299 40.644 142.231 40.644C135.315 40.644 135.263 45.688 141.451 45.688ZM163.291 8.404C137.551 11.836 128.451 33.884 144.051 33.884C155.075 33.884 167.295 19.376 163.291 8.404ZM178.542 35.132C183.118 33.832 186.29 31.856 188.162 30.036C188.734 29.464 190.606 27.436 190.138 26.5C189.774 25.72 187.902 26.812 187.538 27.02C186.03 28.008 183.742 29.88 180.154 33.468C179.582 34.092 179.01 34.612 178.542 35.132ZM173.81 44.284C174.798 44.544 176.41 44.284 178.854 42.828C181.402 41.32 184.782 38.564 189.462 33.884L189.722 34.144C185.042 38.824 181.61 41.58 179.062 43.088C176.462 44.648 174.798 44.908 173.706 44.648C172.77 44.388 172.094 43.66 171.938 42.672C171.262 39.552 175.266 35.184 177.19 33.26C179.998 30.452 182.442 28.632 184.418 27.54C185.198 27.072 189.722 24.836 190.45 26.344C191.022 27.488 189.098 29.568 188.37 30.296C186.394 32.22 183.014 34.3 178.074 35.652C176.618 37.212 173.446 40.904 173.186 43.14C173.134 43.66 173.238 44.128 173.81 44.284ZM178.282 15.06L178.178 14.904L178.022 14.8L184.158 7.052H187.85V7.208L187.954 7.364L178.282 15.06ZM195.029 35.652C192.533 38.148 190.505 40.176 189.257 41.684C188.113 43.088 187.645 44.024 188.113 44.284C188.945 44.492 190.297 43.972 192.481 42.36C194.717 40.748 197.785 38.044 201.893 33.884L202.153 34.144C197.993 38.304 194.925 41.008 192.689 42.672C190.401 44.336 188.893 44.908 188.009 44.648C187.437 44.492 186.553 44.024 186.813 42.568C187.073 41.268 188.425 39.032 192.065 35.392C194.093 33.364 196.329 31.076 197.681 29.204C198.773 27.748 199.761 26.448 197.785 25.616C195.965 27.748 193.365 30.504 189.725 34.144L189.465 33.884C193.053 30.296 195.653 27.54 197.473 25.46C196.277 24.628 197.161 22.808 197.785 21.82C198.721 20.416 200.177 19.168 200.905 19.324C202.829 19.844 198.773 24.42 197.993 25.356C199.709 25.928 200.541 26.708 200.021 28.632C199.553 30.348 197.941 32.688 195.029 35.652ZM197.681 25.148C198.617 24.056 202.049 20 200.801 19.688C200.229 19.532 198.929 20.676 198.045 22.028C197.577 22.808 196.693 24.472 197.681 25.148ZM203.882 35.132C208.458 33.832 211.63 31.856 213.502 30.036C214.074 29.464 215.946 27.436 215.478 26.5C215.114 25.72 213.242 26.812 212.878 27.02C211.37 28.008 209.082 29.88 205.494 33.468C204.922 34.092 204.35 34.612 203.882 35.132ZM199.15 44.284C200.138 44.544 201.75 44.284 204.194 42.828C206.742 41.32 210.122 38.564 214.802 33.884L215.062 34.144C210.382 38.824 206.95 41.58 204.402 43.088C201.802 44.648 200.138 44.908 199.046 44.648C198.11 44.388 197.434 43.66 197.278 42.672C196.602 39.552 200.606 35.184 202.53 33.26C205.338 30.452 207.782 28.632 209.758 27.54C210.538 27.072 215.062 24.836 215.79 26.344C216.362 27.488 214.438 29.568 213.71 30.296C211.734 32.22 208.354 34.3 203.414 35.652C201.958 37.212 198.786 40.904 198.526 43.14C198.474 43.66 198.578 44.128 199.15 44.284ZM228.689 26.292C228.585 26.292 228.533 26.24 228.429 26.24C227.337 26.136 226.193 25.98 224.737 26.396C223.645 26.656 222.293 27.54 220.681 28.892C219.017 30.244 217.145 32.064 215.065 34.144L214.805 33.884C216.885 31.804 218.809 29.984 220.421 28.632C222.085 27.28 223.489 26.344 224.633 26.032C226.193 25.616 227.389 25.772 228.481 25.876C229.001 25.98 229.521 26.032 230.041 26.032V26.396C229.261 26.396 227.493 28.372 225.205 30.972C220.941 35.808 214.701 42.88 208.409 44.388C209.397 44.44 210.177 44.492 210.957 44.596C212.985 44.804 214.389 44.96 216.833 44.284C220.733 43.244 225.569 37.836 229.469 33.884L229.729 34.144C225.725 38.148 220.941 43.556 216.937 44.648C214.441 45.324 212.985 45.168 210.905 44.96C209.657 44.804 208.149 44.648 206.069 44.648V44.284C209.397 44.284 214.025 39.5 218.497 34.872C222.241 31.024 225.829 27.28 228.689 26.292Z" fill="#312E25"/>
</svg>
