<svg xmlns="http://www.w3.org/2000/svg" fill="none" viewBox="0 0 184 96"><path fill="#fff" d="M35.372 41h-5.04l.56-2.184V6.56L24.396 41H20.42L13.812 6.504v32.312l.56 2.184h-2.016l.56-2.184V3.984l-.56-2.184h5.096l-.168 2.128 6.664 34.72L30.5 3.928 30.332 1.8h5.04l-.56 2.184v34.832zm21.607 0h-16.24l.56-2.184V3.984l-.56-2.184h16.24l1.568 6.16q-2.745-4.368-6.216-5.264h-7.112v18.256h4.704l6.16-1.568q-4.368 2.744-5.264 6.216v-3.752h-5.6v18.256h7.112q3.471-.896 6.216-5.264zm14.03.896q-2.409 0-4.648-1.344-2.241-1.4-3.417-3.584l2.185-5.936q0 5.431 1.567 8.568 2.24 1.4 4.313 1.4 2.016 0 3.303-1.68 1.289-1.736 1.288-4.368 0-2.295-1.735-4.984-1.737-2.688-4.088-5.656a91 91 0 0 1-3.305-4.424 34 34 0 0 1-2.631-4.536q-1.008-2.24-1.008-4.368 0-4.704 2.127-7.392Q67.146.904 70.45.904q1.96 0 3.975.84 2.016.784 3.192 2.128l-1.567 6.216q-.393-5.208-2.8-7.84Q71.96 1.8 70.953 1.8q-1.792 0-3.025 1.792-1.175 1.735-1.175 4.48t1.903 5.824a88 88 0 0 0 4.368 6.272 66 66 0 0 1 4.48 6.384q2.016 3.192 2.016 6.104 0 4.033-2.407 6.664-2.408 2.576-6.105 2.576M100.634 41h-5.096l.224-2.184-1.568-10.472h-7.056L85.57 38.816 85.794 41h-2.016l.896-2.184 5.208-34.832-.224-2.184h4.536l5.544 37.016zm-6.552-13.552-3.416-22.68-3.416 22.68zm35.597 12.656q7.503-.392 12.152-5.6 4.704-5.208 4.872-13.44-.168-7.896-4.816-12.936-4.648-5.096-12.096-5.432h-8.512v37.408zm-.056.896h-12.824l.56-2.184V3.984l-.56-2.184h12.88q9.015 0 14.84 5.32 5.823 5.32 6.104 13.776v.168q0 8.792-5.824 14.392Q138.974 41 129.623 41m40.45 0h-16.24l.56-2.184V3.984l-.56-2.184h16.24l1.568 6.16q-2.745-4.368-6.216-5.264h-7.112v18.256h4.704l6.16-1.568q-4.368 2.744-5.264 6.216v-3.752h-5.6v18.256h7.112q3.471-.896 6.216-5.264zM18.121 95h-3.696l-.28-2.016-7.448-18.648h-1.4v18.48L5.857 95H.817l.56-2.184V57.984L.817 55.8h7.896q3.64 0 5.992 2.408 2.408 2.352 2.408 6.048 0 4.2-2.184 7Q12.8 74 9.273 74.336l7.448 18.648zM8.713 73.44q1.905 0 3.136-2.52 1.288-2.52 1.344-6.552 0-3.304-1.288-5.488-1.231-2.184-3.192-2.184H5.297V73.44zM39.753 95h-16.24l.56-2.184V57.984l-.56-2.184h16.24l1.567 6.16q-2.744-4.368-6.216-5.264h-7.112v18.256h4.704l6.16-1.568q-4.367 2.744-5.264 6.216v-3.752h-5.6v18.256h7.112q3.473-.896 6.216-5.264zm24.206.896q-8.904 0-14.728-5.768-5.769-5.824-5.768-14.728 0-8.904 5.768-14.672 5.824-5.824 14.728-5.824 3.36 0 7.112 1.456 3.807 1.4 6.496 3.696l-3.08 1.68q-4.257-4.2-9.8-5.152-1.456-.224-2.8-.224-3.92 0-7.504 1.96-6.328 3.864-7.672 10.976a18.5 18.5 0 0 0-.336 3.528q0 5.488 3.136 11.2 4.255 7 10.36 9.184 2.463.896 4.928.896 3.528 0 6.944-1.904 1.791-1.064 3.36-2.856 1.623-1.792 2.52-3.64V74.672h-15.96v3.752q-.896-3.472-5.264-6.216l6.16 1.568h16.464V86.32q-2.745 4.256-6.944 6.944-4.2 2.632-8.12 2.632M99.704 95h-5.096l.224-2.184-1.568-10.472h-7.056L84.64 92.816 84.864 95h-2.016l.896-2.184 5.208-34.832-.224-2.184h4.536l5.544 37.016zm-6.552-13.552-3.416-22.68-3.416 22.68zM120.8 95h-16.24l.56-2.184V57.984l-.56-2.184h5.04l-.56 2.184v36.12h7.112q3.472-.896 6.216-5.264zm21.417.896q-5.655 0-10.304-2.744a21.56 21.56 0 0 1-7.448-7.448q-2.744-4.648-2.744-10.304 0-5.655 2.744-10.304 2.8-4.649 7.448-7.392 4.649-2.8 10.304-2.8 5.657 0 10.304 2.8a20.6 20.6 0 0 1 7.392 7.392q2.8 4.648 2.8 10.304 0 5.655-2.8 10.304-2.744 4.648-7.392 7.448-4.647 2.745-10.304 2.744m2.128-1.512q3.977 0 7.952-2.184 6.105-3.752 7.168-10.864.224-1.4.224-2.8 0-5.824-3.528-12.152-4.255-7.168-10.752-9.352-2.52-.896-4.984-.896-3.92 0-7.784 2.184-6.384 3.864-7.728 10.752a19.5 19.5 0 0 0-.28 3.304q0 5.432 3.136 11.2 4.536 7.447 11.256 9.856 2.688.952 5.32.952m30.352 1.512q-2.408 0-4.648-1.344-2.24-1.4-3.416-3.584l2.184-5.936q0 5.431 1.568 8.568 2.24 1.4 4.312 1.4 2.016 0 3.304-1.68 1.288-1.736 1.288-4.368 0-2.296-1.736-4.984t-4.088-5.656a91 91 0 0 1-3.304-4.424 34 34 0 0 1-2.632-4.536q-1.008-2.24-1.008-4.368 0-4.704 2.128-7.392 2.184-2.688 5.488-2.688 1.96 0 3.976.84 2.016.784 3.192 2.128l-1.568 6.216q-.392-5.208-2.8-7.84-1.288-.448-2.296-.448-1.792 0-3.024 1.792-1.176 1.735-1.176 4.48t1.904 5.824a88 88 0 0 0 4.368 6.272 66 66 0 0 1 4.48 6.384q2.016 3.192 2.016 6.104 0 4.032-2.408 6.664-2.408 2.576-6.104 2.576"/></svg>