<svg xmlns="http://www.w3.org/2000/svg" fill="none" viewBox="0 0 319 72"><path fill="#a39d79" d="M107.182 31h-3.139L95.83 3.222v26.101L96.26 31h-1.548l.43-1.677V2.577L94.712.9h3.57l8.212 27.778V2.577L106.064.9h1.548l-.43 1.677zm11.168.688q-2.88 0-4.73-2.322-1.849-2.365-1.849-6.02V2.577L111.341.9h3.87l-.43 1.677v20.769q.087 3.398 1.118 5.547Q116.931 31 118.651 31q1.763 0 3.053-2.107 1.29-2.15 1.419-5.547V2.577L122.693.9h1.548l-.43 1.677v20.769q0 3.655-1.505 6.02-1.505 2.322-3.956 2.322M140.86 31h-12.47l.43-1.677V2.577L128.39.9h12.47l1.204 4.73q-2.106-3.354-4.773-4.042h-5.461v14.018h3.612l4.73-1.204q-3.354 2.108-4.042 4.773v-2.881h-4.3v14.018h5.461q2.667-.688 4.773-4.042zm10.773.688q-1.849 0-3.569-1.032-1.72-1.075-2.623-2.752l1.677-4.558q0 4.17 1.204 6.579Q150.042 31 151.633 31q1.548 0 2.537-1.29.989-1.334.989-3.354 0-1.763-1.333-3.827a56 56 0 0 0-3.139-4.343 70 70 0 0 1-2.537-3.397 26 26 0 0 1-2.021-3.483q-.774-1.72-.774-3.354 0-3.612 1.634-5.676 1.677-2.064 4.214-2.064 1.505 0 3.053.645 1.548.602 2.451 1.634l-1.204 4.773q-.301-4-2.15-6.02Q152.364.9 151.59.9q-1.376 0-2.322 1.376-.903 1.333-.903 3.44t1.462 4.472a68 68 0 0 0 3.354 4.816 51 51 0 0 1 3.44 4.902q1.548 2.45 1.548 4.687 0 3.096-1.849 5.117-1.85 1.978-4.687 1.978M169.715 31h-3.87l.43-1.677V1.588h-.946q-2.622.688-4.773 4.042L161.76.9h12.04l1.204 4.73q-2.106-3.354-4.773-4.042h-.946v27.735zm22.269 0h-2.838l-.215-1.548-5.719-14.319h-1.075v14.19l.43 1.677h-3.87l.43-1.677V2.577L178.697.9h6.063q2.795 0 4.601 1.849 1.849 1.806 1.849 4.644 0 3.225-1.677 5.375-1.635 2.107-4.343 2.365l5.719 14.319zm-7.224-16.555q1.461 0 2.408-1.935.988-1.935 1.032-5.031 0-2.537-.989-4.214-.947-1.677-2.451-1.677h-2.623v12.857zM208.647 31h-3.913l.172-1.677-1.204-8.041h-5.418l-1.204 8.041.172 1.677h-1.548l.688-1.677 3.999-26.746L200.219.9h3.483l4.257 28.423zm-5.031-10.406-2.623-17.415-2.623 17.415zm14.155 11.094q-1.85 0-3.569-1.032-1.72-1.075-2.623-2.752l1.677-4.558q0 4.17 1.204 6.579Q216.18 31 217.771 31q1.548 0 2.537-1.29.989-1.334.989-3.354 0-1.763-1.333-3.827a56 56 0 0 0-3.139-4.343 69 69 0 0 1-2.537-3.397 26 26 0 0 1-2.021-3.483q-.774-1.72-.774-3.354 0-3.612 1.634-5.676 1.676-2.064 4.214-2.064 1.505 0 3.053.645 1.548.602 2.451 1.634l-1.204 4.773q-.302-4-2.15-6.02-.99-.344-1.763-.344-1.377 0-2.322 1.376-.903 1.333-.903 3.44t1.462 4.472a67 67 0 0 0 3.354 4.816 51 51 0 0 1 3.44 4.902q1.548 2.45 1.548 4.687 0 3.096-1.849 5.117-1.85 1.978-4.687 1.978M13.496 71h-2.838l-.215-1.548-5.719-14.319H3.649v14.19L4.079 71H.209l.43-1.677V42.577L.209 40.9h6.063q2.795 0 4.601 1.849 1.85 1.806 1.849 4.644 0 3.225-1.677 5.375-1.635 2.107-4.343 2.365l5.719 14.319zM6.272 54.445q1.462 0 2.408-1.935.99-1.935 1.032-5.031 0-2.537-.989-4.214-.946-1.677-2.451-1.677H3.649v12.857zM30.106 71h-12.47l.43-1.677V42.577l-.43-1.677h12.47l1.204 4.73q-2.107-3.354-4.773-4.042h-5.461v14.018h3.612l4.73-1.204q-3.354 2.108-4.042 4.773v-2.881h-4.3v14.018h5.46q2.668-.688 4.774-4.042zm18.167.688q-4.343 0-7.912-2.107a16.55 16.55 0 0 1-5.72-5.719q-2.106-3.57-2.106-7.912t2.107-7.912a16.2 16.2 0 0 1 5.719-5.676q3.57-2.15 7.912-2.15 6.02 0 10.449 3.956l-2.365 1.29q-4.257-4.257-9.46-4.257-3.053 0-5.977 1.634-4.902 2.967-5.934 8.256a15 15 0 0 0-.215 2.537q0 4.17 2.408 8.6 3.483 5.719 8.643 7.568 2.064.73 4.085.731 3.052 0 6.106-1.677 3.096-1.849 4.515-4.988l1.075.473a16.3 16.3 0 0 1-5.633 5.375q-3.483 1.978-7.697 1.978m31.662 0q-4.343 0-7.912-2.107a16.55 16.55 0 0 1-5.719-5.719q-2.107-3.57-2.107-7.912t2.107-7.912a16.2 16.2 0 0 1 5.72-5.676q3.568-2.15 7.911-2.15t7.912 2.15a15.84 15.84 0 0 1 5.676 5.676q2.15 3.57 2.15 7.912t-2.15 7.912a16.2 16.2 0 0 1-5.676 5.719q-3.57 2.107-7.912 2.107m1.634-1.161q3.052 0 6.106-1.677 4.688-2.88 5.504-8.342.172-1.075.172-2.15 0-4.472-2.709-9.331-3.268-5.505-8.256-7.181-1.935-.688-3.827-.688-3.01 0-5.977 1.677-4.902 2.967-5.934 8.256a15 15 0 0 0-.215 2.537q0 4.17 2.408 8.6 3.483 5.719 8.643 7.568 2.064.73 4.085.731M116.27 71h-3.87l.43-1.677V44.555L107.842 71h-3.053l-5.074-26.488v24.811l.43 1.677h-1.548l.43-1.677V42.577l-.43-1.677h3.913l-.129 1.634 5.117 26.66 5.031-26.66-.129-1.634h3.87l-.43 1.677v26.746zm16.591 0h-12.47l.43-1.677V42.577l-.43-1.677h12.47l1.204 4.73q-2.108-3.354-4.773-4.042h-5.461v14.018h3.612l4.73-1.204q-3.355 2.108-4.042 4.773v-2.881h-4.3v14.018h5.461q2.665-.688 4.773-4.042zm17.384 0h-3.139l-8.213-27.778v26.101l.43 1.677h-1.548l.43-1.677V42.577l-.43-1.677h3.569l8.213 27.778V42.577l-.43-1.677h1.548l-.43 1.677zm13.705-.688q5.763-.3 9.331-4.3 3.612-3.999 3.741-10.32-.128-6.063-3.698-9.933-3.568-3.913-9.288-4.171H157.5v28.724zm-.043.688h-9.847l.43-1.677V42.577l-.43-1.677h9.89q6.924 0 11.395 4.085 4.473 4.085 4.687 10.578v.129q0 6.75-4.472 11.051Q171.089 71 163.907 71m31.113 0h-3.913l.172-1.677-1.204-8.041h-5.418l-1.204 8.041.172 1.677h-1.548l.688-1.677 3.999-26.746-.172-1.677h3.483l4.257 28.423zm-5.031-10.406-2.623-17.415-2.623 17.415zm22.851 11.094q-4.342 0-7.912-2.107a16.56 16.56 0 0 1-5.719-5.719q-2.106-3.57-2.107-7.912 0-4.343 2.107-7.912a16.2 16.2 0 0 1 5.719-5.676q3.57-2.15 7.912-2.15 6.021 0 10.449 3.956l-2.365 1.29q-4.257-4.257-9.46-4.257-3.052 0-5.977 1.634-4.902 2.967-5.934 8.256a15 15 0 0 0-.215 2.537q0 4.17 2.408 8.6 3.483 5.719 8.643 7.568 2.064.73 4.085.731 3.054 0 6.106-1.677 3.096-1.849 4.515-4.988l1.075.473a16.3 16.3 0 0 1-5.633 5.375q-3.483 1.978-7.697 1.978M233.818 71h-3.87l.43-1.677V42.577l-.43-1.677h3.87l-.43 1.677v26.746zm19.083.688q-4.343 0-7.912-2.107a16.55 16.55 0 0 1-5.719-5.719q-2.107-3.57-2.107-7.912t2.107-7.912a16.2 16.2 0 0 1 5.719-5.676q3.569-2.15 7.912-2.15t7.912 2.15a15.85 15.85 0 0 1 5.676 5.676q2.15 3.57 2.15 7.912t-2.15 7.912a16.2 16.2 0 0 1-5.676 5.719q-3.569 2.107-7.912 2.107m1.634-1.161q3.053 0 6.106-1.677 4.687-2.88 5.504-8.342.172-1.075.172-2.15 0-4.472-2.709-9.331-3.268-5.505-8.256-7.181-1.935-.688-3.827-.688-3.01 0-5.977 1.677-4.902 2.967-5.934 8.256a15 15 0 0 0-.215 2.537q0 4.17 2.408 8.6 3.483 5.719 8.643 7.568 2.064.73 4.085.731m29.917.473h-3.139L273.1 43.222v26.101l.43 1.677h-1.548l.43-1.677V42.577l-.43-1.677h3.569l8.213 27.778V42.577l-.43-1.677h1.548l-.43 1.677zm17.049 0h-12.47l.43-1.677V42.577l-.43-1.677h12.47l1.204 4.73q-2.106-3.354-4.773-4.042h-5.461v14.018h3.612l4.73-1.204q-3.354 2.108-4.042 4.773v-2.881h-4.3v14.018h5.461q2.667-.688 4.773-4.042zm10.773.688q-1.849 0-3.569-1.032-1.72-1.075-2.623-2.752l1.677-4.558q0 4.17 1.204 6.579Q310.683 71 312.274 71q1.548 0 2.537-1.29.989-1.334.989-3.354 0-1.763-1.333-3.827a56 56 0 0 0-3.139-4.343 70 70 0 0 1-2.537-3.397 26 26 0 0 1-2.021-3.483q-.774-1.72-.774-3.354 0-3.612 1.634-5.676 1.677-2.064 4.214-2.064 1.505 0 3.053.645 1.548.602 2.451 1.634l-1.204 4.773q-.301-4-2.15-6.02-.989-.345-1.763-.344-1.375 0-2.322 1.376-.903 1.333-.903 3.44t1.462 4.472a68 68 0 0 0 3.354 4.816 51 51 0 0 1 3.44 4.902q1.548 2.45 1.548 4.687 0 3.096-1.849 5.117-1.85 1.978-4.687 1.978"/></svg>