<svg width="211" height="156" viewBox="0 0 211 156" fill="none" xmlns="http://www.w3.org/2000/svg">
<path d="M0 20C0 8.95431 8.95431 0 20 0C31.0457 0 40 8.95431 40 20V73H0V20Z" fill="#E7923A"/>
<path d="M57 20C57 8.95431 65.9543 0 77 0C88.0457 0 97 8.95431 97 20V73H57V20Z" fill="#B62975"/>
<path d="M114 20C114 8.95431 122.954 0 134 0C145.046 0 154 8.95431 154 20V73H114V20Z" fill="#595927"/>
<path d="M171 20C171 8.95431 179.954 0 191 0C202.046 0 211 8.95431 211 20V73H171V20Z" fill="#232E5D"/>
<path d="M211 136C211 147.046 202.046 156 191 156C179.954 156 171 147.046 171 136L171 83L211 83L211 136Z" fill="black"/>
<path d="M154 136C154 147.046 145.046 156 134 156C122.954 156 114 147.046 114 136L114 83L154 83L154 136Z" fill="#9E9F40"/>
<path d="M97 136C97 147.046 88.0457 156 77 156C65.9543 156 57 147.046 57 136L57 83L97 83L97 136Z" fill="#C84F85"/>
<path d="M40 136C40 147.046 31.0457 156 20 156C8.9543 156 -6.84658e-06 147.046 -5.88094e-06 136L-1.24753e-06 83L40 83L40 136Z" fill="#CA5D1D"/>
</svg>
