<svg xmlns="http://www.w3.org/2000/svg" fill="none" viewBox="0 0 79 94"><path fill="#312e25" d="M41.139 93.98c21.796-.763 38.732-22.414 37.826-48.36S59.657-.74 37.861.02C16.065.784-.87 22.435.035 48.38s19.308 46.361 41.104 45.6"/><path fill="#f9f5ed" d="M38.194 9.574C20.86 10.18 7.34 27.463 8.06 48.099c.72 20.637 15.411 36.933 32.747 36.327S71.66 66.537 70.94 45.901 55.532 8.968 38.194 9.574m2.603 74.617c-17.204.602-31.784-15.592-32.5-36.098-.714-20.506 12.701-37.68 29.906-38.282s31.784 15.592 32.5 36.098c.715 20.506-12.701 37.678-29.906 38.28z"/><path fill="#f9f5ed" d="M69.052 39.708c-3.073-16.89-15.93-29.402-30.814-28.882-16.665.583-29.657 17.284-28.961 37.23.696 19.947 14.82 35.7 31.485 35.118s29.657-17.284 28.961-37.23a43 43 0 0 0-.669-6.232v-.005zM38.246 11.042c14.747-.515 27.492 11.872 30.579 28.61l-.113.044c-.307.117-.27.104-.595.286-2.683 1.213-6.861 1.209-10.904 1.206-2.608-.002-5.072-.006-7.184.293-1.612-2.895-4.623-4.096-8.034-3.269L40.253 30.2q-.332-1.465.397-2.39.726-.923 2.237-1.178l-.009-.24-3.715.13a2.1 2.1 0 0 0-1.048.317q-.49.298-.673.783L29.724 49.34l-9.973-21.1a1.42 1.42 0 0 0-.746-.752 2.4 2.4 0 0 0-1.088-.22l-3.794.132c5.098-9.544 13.914-15.998 24.118-16.354zM33.08 59.337c1.11 1.289 2.885 1.87 5.133 1.687 3.504-.286 7.191-2.659 9.876-6.35l2.592.57c-.997.967-2 2.01-3.06 3.108-4.61 4.792-9.838 10.224-16.326 10.753-3.685.302-6.452-1.594-7.05-4.824-.654-3.534 1.524-8.17 7.83-10.09-.437 2.067-.084 3.888 1.005 5.149zm9.034-20.58c3.133-.787 5.821.216 7.343 2.792-2.268.364-4.403.95-6.36 1.728zm7.624 3.31c1.647 3.359.932 7.948-1.873 12.026-2.159-.488-4.314-.932-6.587-1.15l1.961-.166 4.124.136-.009-.24q-1.238.045-1.886-.752-.647-.798-.976-2.222l-1.281-5.901c1.897-.758 4.066-1.358 6.527-1.732m-7.841 7.722q.29 1.43-.68 2.28-.59.515-1.789.751a28 28 0 0 0-3.25.074c-1.204.099-2.314.28-3.304.543.926-2.844 3.478-6.17 8-8.565zm-5.674 3.654c4.111-.336 7.557.296 11.285 1.109-2.569 3.447-6.046 5.656-9.34 5.926-2.093.17-3.723-.364-4.718-1.545-1-1.188-1.27-2.927-.764-4.899 1.066-.291 2.226-.483 3.537-.591m12.55.846-.337-.076c2.765-4.12 3.47-8.772 1.86-12.247 2.028-.26 4.373-.255 6.852-.247 3.089.009 6.27.019 8.855-.528-3.165 2.132-6.67 5.595-10.067 8.953l-.032.032a257 257 0 0 1-4.398 4.27l-.368.352c-.736-.143-1.493-.314-2.365-.51m10.702-5.423c2.586-2.617 5.214-5.242 7.232-6.963-4.394 4.316-8.18 8.918-11.037 13.425a31 31 0 0 1-2.656-.207 576 576 0 0 0 6.458-6.252zM13.993 27.648c1 .105 2.028.43 2.638.998q.93.865.63 2.554L13.9 50.65q-.3 1.688-1.013 2.471c-.465.513-1.7.808-2.774.855a43 43 0 0 1-.618-5.925c-.261-7.492 1.418-14.52 4.502-20.4zM40.754 82.96c-14.79.517-27.564-11.942-30.603-28.753l3.777-.405 4.962.107-.009-.24q-2.596.092-3.52-.637-.925-.726-.664-2.413l3.22-20.002 10.855 22.345 8.848-23.754 3.145 15.13c-1.153.602-2.224 1.28-3.2 2.032-2.693 2.074-4.58 4.633-5.322 7.22-6.837 1.915-9.213 6.906-8.527 10.746.636 3.554 3.63 5.638 7.627 5.311 7.275-.594 13.969-7.08 19.347-12.29.633-.614 1.249-1.21 1.843-1.775 1.02.157 1.902.264 2.792.273-2.12 3.432-3.65 6.71-4.43 9.497-1.044 3.807-.717 6.733.923 8.238.938.863 2.278 1.224 3.95 1.087 1.44-.116 3.413-.798 4.223-1.087-5.064 5.593-11.778 9.107-19.232 9.368zm19.883-10.108a.16.16 0 0 0-.123-.01c-2.49.89-5.957 1.346-7.144.286-1.473-1.314-1.82-4.092-.96-7.623.699-2.88 2.153-6.218 4.206-9.66 2.423-.136 4.546-.883 6.668-2.35a.15.15 0 0 0 .043-.202l-.124-.204a.17.17 0 0 0-.098-.07.16.16 0 0 0-.119.023c-1.895 1.303-3.866 2.032-6.02 2.221a76.6 76.6 0 0 1 11.973-14.956c.308 1.835.502 3.718.57 5.642.366 10.506-3.085 20.109-8.873 26.899z"/></svg>