<svg xmlns="http://www.w3.org/2000/svg" fill="none" viewBox="0 0 295 42"><path fill="#f9f5ed" d="M72.517 7.38v6.86c0 2 .26 2.34 1.92 2.34V17h-4.56v-.42c1.66 0 1.9-.34 1.9-2.34v-6.5c0-2-.24-2.32-1.9-2.32V5h3.28l4.24 9.74L81.617 5h3.26v.42c-1.68 0-1.92.32-1.92 2.32v6.5c0 2 .24 2.34 1.92 2.34V17h-5.4v-.42c1.66 0 1.9-.34 1.9-2.34V7.42l-4.28 9.92h-.26zM84.861 17v-.42c1.68 0 1.78-.34 2.4-1.74l4.4-10.18h.26l4.42 10.18c.62 1.4.72 1.74 2.38 1.74V17h-5.54v-.42c1.66 0 2.04-.42 1.56-1.52l-.96-2.22h-4.84l-.96 2.22c-.48 1.08-.1 1.52 1.56 1.52V17zm4.4-4.9h4.18l-2.1-4.82zM100.47 17v-.42c1.66 0 1.9-.34 1.9-2.34V12.3l-3.32-5.14c-.86-1.32-1.48-1.74-2.9-1.74V5h5.7v.42c-1.68 0-1.68.6-1.08 1.52l2.88 4.4 2.92-4.4c.7-1.08.6-1.52-1.08-1.52V5h4.68v.42c-1.68 0-2.1.56-2.9 1.74l-3.3 5v2.08c0 2 .24 2.34 1.9 2.34V17zm13.2-5.98h1.76c1.74 0 2.54-1.18 2.54-2.64 0-1.44-.8-2.64-2.54-2.64h-1.76zm-3.5 5.98v-.42c1.66 0 1.9-.34 1.9-2.34v-6.5c0-2-.24-2.32-1.9-2.32V5h5.28c2.78 0 4.3 1.52 4.3 3.38 0 1.74-1.3 3.12-3.56 3.36l1.96 2.3c1.18 1.4 2.52 2.4 3.72 2.54V17h-3.3l-3.96-5.26h-.94v2.5c0 2 .24 2.34 1.9 2.34V17zm10.882 0v-.42c1.681 0 1.781-.34 2.401-1.74l4.4-10.18h.26l4.42 10.18c.62 1.4.72 1.74 2.38 1.74V17h-5.54v-.42c1.66 0 2.04-.42 1.56-1.52l-.96-2.22h-4.84l-.96 2.22c-.48 1.08-.1 1.52 1.56 1.52V17zm4.401-4.9h4.18l-2.1-4.82zm18.031-2.24c1.4-.8 2.7-1.54 2.7-2.9 0-.88-.68-1.52-1.58-1.52-1.28 0-1.9 1-1.9 1.78 0 .92.28 1.74.78 2.64m.7 6.7c1.04 0 1.8-.42 2.34-1.06-1.44-1.52-2.74-2.94-3.66-4.24-.74.64-1.34 1.4-1.34 2.74 0 1.3 1.1 2.56 2.66 2.56m-.16.78c-1.9 0-3.94-1.1-3.94-3.5 0-1.6 1.04-2.52 2.28-3.3-.7-1.1-1.1-2.1-1.1-3 0-1.66 1.52-2.88 3.34-2.88 1.54 0 2.86.94 2.86 2.3 0 1.78-1.96 2.4-3.6 3.52.74 1.1 1.82 2.34 3.26 3.92.14-.38.24-.78.28-1.2.18-1.46-.1-1.8-1.76-1.8v-.42h4.52v.42c-1.68 0-1.88.4-2.08 1.8-.08.64-.22 1.24-.46 1.74.78.9 1.68 1.6 2.42 1.6.36 0 .8-.2 1.3-.7l.34.34c-.56.76-1.36 1.16-2.02 1.16-1.08 0-1.88-.58-2.66-1.34-.68.84-1.66 1.34-2.98 1.34m11.853-.34v-.42c1.68 0 1.78-.34 2.4-1.74l4.4-10.18h.26l4.42 10.18c.62 1.4.72 1.74 2.38 1.74V17h-5.54v-.42c1.66 0 2.04-.42 1.56-1.52l-.96-2.22h-4.84l-.96 2.22c-.48 1.08-.1 1.52 1.56 1.52V17zm4.4-4.9h4.18l-2.1-4.82zm9.463 4.9v-.42c1.66 0 1.9-.34 1.9-2.34v-6.5c0-2-.24-2.32-1.9-2.32V5h5.42c4.66 0 6.68 2.7 6.68 6s-2.02 6-6.68 6zm5.36-.74h.08c3.9 0 4.74-2.92 4.74-5.26s-.84-5.26-4.74-5.26h-1.94v8.2c0 2 .22 2.32 1.86 2.32m11.89-5.24h1.76c1.74 0 2.54-1.18 2.54-2.64 0-1.44-.8-2.64-2.54-2.64h-1.76zm-3.5 5.98v-.42c1.66 0 1.9-.34 1.9-2.34v-6.5c0-2-.24-2.32-1.9-2.32V5h5.28c2.78 0 4.3 1.52 4.3 3.38 0 1.74-1.3 3.12-3.56 3.36l1.96 2.3c1.18 1.4 2.52 2.4 3.72 2.54V17h-3.3l-3.96-5.26h-.94v2.5c0 2 .24 2.34 1.9 2.34V17zm12.403 0v-.42c1.66 0 1.9-.34 1.9-2.34v-6.5c0-2-.24-2.32-1.9-2.32V5h5.4v.42c-1.66 0-1.9.32-1.9 2.32v6.5c0 2 .24 2.34 1.9 2.34V17zm5.394 0v-.42c1.68 0 1.78-.34 2.4-1.74l4.4-10.18h.26l4.42 10.18c.62 1.4.72 1.74 2.38 1.74V17h-5.54v-.42c1.66 0 2.04-.42 1.56-1.52l-.96-2.22h-4.84l-.96 2.22c-.48 1.08-.1 1.52 1.56 1.52V17zm4.4-4.9h4.18l-2.1-4.82zm1.82-8.58-.1-.14 1.88-1.74c.32-.3.54-.48.88-.48.38 0 .56.34.56.58 0 .3-.3.52-.46.6zm18.424 13.82-8.14-10.06v6.96c0 2 .26 2.34 1.92 2.34V17h-4.56v-.42c1.66 0 1.9-.34 1.9-2.34v-6.5c0-2-.24-2.32-1.9-2.32V5h2.82l7.68 9.52V7.74c0-2-.24-2.32-1.9-2.32V5h4.56v.42c-1.66 0-1.92.32-1.92 2.32v9.6zM119.746 37v-.48l3.64-3.28c.78-.68 1.24-1.54 1.24-2.26 0-1.48-.88-2.14-2.08-2.14-1.14 0-2.46 1.36-1.34 3l-.62.62c-2.08-1.44-.98-4.46 2.1-4.46 1.72 0 3.32 1.02 3.32 2.68 0 1.6-1.62 2.8-1.62 2.8l-2.7 2.36h4.58l-.22 1.16zm9.16 0v-.48l3.64-3.28c.78-.68 1.24-1.54 1.24-2.26 0-1.48-.88-2.14-2.08-2.14-1.14 0-2.46 1.36-1.34 3l-.62.62c-2.08-1.44-.98-4.46 2.1-4.46 1.72 0 3.32 1.02 3.32 2.68 0 1.6-1.62 2.8-1.62 2.8l-2.7 2.36h4.58l-.22 1.16zm11.72-.88c0 .56-.52 1.04-1.12 1.04-.62 0-1.1-.48-1.1-1.04 0-.58.48-1.06 1.1-1.06.6 0 1.12.48 1.12 1.06m7.566.88h-4.58v-.42c1.34 0 1.58-.34 1.58-2.34v-3.06c0-2-.46-2.2-1.9-2.16v-.42l3.32-.66v6.3c0 2 .26 2.34 1.58 2.34zm7.168 0h-4.58v-.42c1.34 0 1.58-.34 1.58-2.34v-3.06c0-2-.46-2.2-1.9-2.16v-.42l3.32-.66v6.3c0 2 .26 2.34 1.58 2.34zm5.188-.88c0 .56-.52 1.04-1.12 1.04-.62 0-1.1-.48-1.1-1.04 0-.58.48-1.06 1.1-1.06.6 0 1.12.48 1.12 1.06m3.026.88v-.48l3.64-3.28c.78-.68 1.24-1.54 1.24-2.26 0-1.48-.88-2.14-2.08-2.14-1.14 0-2.46 1.36-1.34 3l-.62.62c-2.08-1.44-.98-4.46 2.1-4.46 1.72 0 3.32 1.02 3.32 2.68 0 1.6-1.62 2.8-1.62 2.8l-2.7 2.36h4.58l-.22 1.16zm15.66-2.76c0 1.7-1.62 3.1-3.6 3.1-1.88 0-2.88-1.1-2.88-1.76 0-.26.18-.48.56-.48.7 0 .42 1.4 2.32 1.4 1.4 0 2.18-1.04 2.18-2.26 0-1.26-.64-2.3-2.02-2.3-.82 0-1.7.5-1.92 1.46h-.8l.52-5.06h5.18l-.2 1.16h-4.3l-.22 2.3c.46-.42 1.22-.68 1.92-.68 1.9 0 3.26 1.4 3.26 3.12"/><path stroke="#f9f5ed" stroke-miterlimit="10" d="M200.57 33h93.57M.23 33H93.8"/></svg>